<mxfile host="Electron" modified="2023-07-11T07:21:48.603Z" agent="Mozilla/5.0 (Windows NT 10.0; Win64; x64) AppleWebKit/537.36 (KHTML, like Gecko) draw.io/21.6.1 Chrome/112.0.5615.204 Electron/24.6.1 Safari/537.36" etag="3tnjX7s6PUu5gzI_ts_4" version="21.6.1" type="device">
  <diagram name="ページ1" id="rY_8IjaefA1TKIRKsKTm">
    <mxGraphModel dx="1290" dy="629" grid="1" gridSize="10" guides="1" tooltips="1" connect="1" arrows="1" fold="1" page="1" pageScale="1" pageWidth="827" pageHeight="1169" math="0" shadow="0">
      <root>
        <mxCell id="0" />
        <mxCell id="1" parent="0" />
        <mxCell id="mUVZ_eBPIsCB5TYUY8Db-2" value="&lt;font style=&quot;font-size: 36px;&quot;&gt;&lt;b&gt;ログイン&lt;/b&gt;&lt;/font&gt;" style="text;html=1;strokeColor=none;fillColor=none;align=center;verticalAlign=middle;whiteSpace=wrap;rounded=0;" vertex="1" parent="1">
          <mxGeometry x="40" y="80" width="180" height="30" as="geometry" />
        </mxCell>
        <mxCell id="mUVZ_eBPIsCB5TYUY8Db-3" value="&lt;font style=&quot;font-size: 36px;&quot;&gt;&lt;b&gt;新規登録&lt;/b&gt;&lt;/font&gt;" style="text;html=1;strokeColor=none;fillColor=none;align=center;verticalAlign=middle;whiteSpace=wrap;rounded=0;" vertex="1" parent="1">
          <mxGeometry x="85" y="610" width="180" height="30" as="geometry" />
        </mxCell>
        <mxCell id="mUVZ_eBPIsCB5TYUY8Db-4" value="&lt;span style=&quot;font-size: 18px;&quot;&gt;ユーザーID&lt;/span&gt;" style="text;html=1;strokeColor=none;fillColor=none;align=center;verticalAlign=middle;whiteSpace=wrap;rounded=0;" vertex="1" parent="1">
          <mxGeometry x="80" y="130" width="100" height="30" as="geometry" />
        </mxCell>
        <mxCell id="mUVZ_eBPIsCB5TYUY8Db-6" value="" style="rounded=1;whiteSpace=wrap;html=1;" vertex="1" parent="1">
          <mxGeometry x="80" y="160" width="600" height="30" as="geometry" />
        </mxCell>
        <mxCell id="mUVZ_eBPIsCB5TYUY8Db-7" value="&lt;span style=&quot;font-size: 18px;&quot;&gt;パスワード&lt;/span&gt;" style="text;html=1;strokeColor=none;fillColor=none;align=center;verticalAlign=middle;whiteSpace=wrap;rounded=0;" vertex="1" parent="1">
          <mxGeometry x="80" y="240" width="100" height="30" as="geometry" />
        </mxCell>
        <mxCell id="mUVZ_eBPIsCB5TYUY8Db-8" value="" style="rounded=1;whiteSpace=wrap;html=1;" vertex="1" parent="1">
          <mxGeometry x="80" y="270" width="600" height="30" as="geometry" />
        </mxCell>
        <mxCell id="mUVZ_eBPIsCB5TYUY8Db-9" value="&lt;span style=&quot;font-size: 18px;&quot;&gt;ユーザーID&lt;/span&gt;" style="text;html=1;strokeColor=none;fillColor=none;align=center;verticalAlign=middle;whiteSpace=wrap;rounded=0;" vertex="1" parent="1">
          <mxGeometry x="80" y="710" width="100" height="30" as="geometry" />
        </mxCell>
        <mxCell id="mUVZ_eBPIsCB5TYUY8Db-10" value="" style="rounded=1;whiteSpace=wrap;html=1;" vertex="1" parent="1">
          <mxGeometry x="80" y="740" width="600" height="30" as="geometry" />
        </mxCell>
        <mxCell id="mUVZ_eBPIsCB5TYUY8Db-11" value="&lt;font style=&quot;font-size: 24px;&quot;&gt;&lt;b&gt;ログイン&lt;/b&gt;&lt;/font&gt;" style="rounded=1;whiteSpace=wrap;html=1;" vertex="1" parent="1">
          <mxGeometry x="80" y="360" width="190" height="50" as="geometry" />
        </mxCell>
        <mxCell id="mUVZ_eBPIsCB5TYUY8Db-13" value="" style="html=1;verticalLabelPosition=bottom;align=center;labelBackgroundColor=#ffffff;verticalAlign=top;strokeWidth=2;strokeColor=#001426;shadow=0;dashed=0;shape=mxgraph.ios7.icons.eye;" vertex="1" parent="1">
          <mxGeometry x="650" y="277.95" width="20" height="14.1" as="geometry" />
        </mxCell>
        <mxCell id="mUVZ_eBPIsCB5TYUY8Db-20" value="&lt;font style=&quot;font-size: 14px;&quot;&gt;条件　を満たしています&lt;/font&gt;" style="text;html=1;strokeColor=none;fillColor=none;align=left;verticalAlign=middle;whiteSpace=wrap;rounded=0;" vertex="1" parent="1">
          <mxGeometry x="110" y="800" width="220" height="30" as="geometry" />
        </mxCell>
        <mxCell id="mUVZ_eBPIsCB5TYUY8Db-21" value="" style="shape=image;verticalLabelPosition=bottom;labelBackgroundColor=default;verticalAlign=top;aspect=fixed;imageAspect=0;image=data:image/png,iVBORw0KGgoAAAANSUhEUgAAAgAAAAIACAYAAAD0eNT6AAAABHNCSVQICAgIfAhkiAAAAAlwSFlzAAAOxAAADsQBlSsOGwAAABl0RVh0U29mdHdhcmUAd3d3Lmlua3NjYXBlLm9yZ5vuPBoAACAASURBVHic7N13fJX1/f//x3UyCDtsGSJuBGQFXGXICBsBi4gDR+us1tmW9tv+PtraodW6ah21rYKjigukjCRIZDhDwhQQFwjKTghkkHHO9fsjoKKMjHPO67rOed5vt97aG8m5rkdReL9yXedcbwcR8bZlJJFPK6A10BqHVEKk4tAMl1QcUoGmQENcGgANcUg+8GuJB/77uxoBSd/7tQqg6Hu/tgcIAoW4lAPFOJQAxbjswWEPsOfA/y7AZQ8uOwiwkyR2MIjKcP42iEh4OdYBInFtLq1IogMux+PQEZcOOHTApT1VC36rA//xo53AjgP/vQX4CocthNiEw2aS2MIgdtkmisQvDQAikTSDBJrSETgFh5O/+W+XU4CTgfq2geZKgU9x+IwQn+LwKQE+o4JP+YAvuZuQdaBIrNIAIBIumbQjQBdCdMWhCy5dgZ5AQ+s0nyoHPgU+wmUtDh8RYi17Wc8kgtZxIn6nAUCkppaRxC5OI4E0XNKANKAX0MC4LF5UAJ8AuUAuDrnsJ4+xlBh3ifiKBgCRo5lBAs3ogsvZwDnAWcAZVL25Tryj8sBVgg9xeR/4gPdYq1sIIkemAUDku+bShET6AT/C4VygDy6NrbOkVvYCOQcGgnfYz1LGsc86SsQrNABIfJtFYxpyNiGGAv2o+gn/+x+Rk9gQBD7GYSkuC0giW59CkHimAUDiy7vUZx/9CJCOSzrQA/05iFchYCWQRYAsEljKIPZbR4lEi/7ik9g3nx4EGI5LOg79gBTrJPGkUmAJDllABumstg4SiSQNABJ7skkhSD9CjAXGAx2tk8SXNuGQQYj/kUyWrg5IrNEAILFhAS0IMg64AIeh6LP3El7FQCbwJiHeZAT51kEidaUBQPwrm5ZUMgq4CJfh6M17Eh1B4H3gFULMYARbrYNEakMDgPjLAtrgMgmXScB5QMA6SeJaEHgHmEElMxjFTusgkerSACDe9y71KWIMDlfoJ33xsKorAy7T2c9/9cwB8ToNAOJN2SRSzggcpgBj0aY54i8lwJs4PE8B87V3gXiRBgDxlnmcToBLcLgavXtfYsNW4BUC/JuhrLKOETlIA4DYm0VjGjCZEFcfePyuSKx6B5dnSOZlBlFkHSPxTQOA2MmgMw5XAdcBzYxrRKLHYR/wX4I8zghWWudIfNIAINE1g2RSGYfLdQc+ry8S73Jx+SeNeY7zKLWOkfihAUCiI5N2uPwMh+uAVtY5Ih60A4d/HrgqoGcLSMRpAJDImk9vErgelyvQM/hFqqMcmEWAhxjKe9YxErs0AEj43U2Ac7kQh9upeliPiNTOUhwe4h1mcjch6xiJLRoAJHxmkEwzJuPyG6CzdY5IDPkceJQkntKmRBIuGgCk7mbRmPr8BPgl0N46RySGbcflSZJ5mEHssY4Rf9MAILU3n+YkcDsuPweaWueIxJE9wKOU8zBjKLCOEX/SACA1V7X17s9xuBVItc4RiWNFwD8I8VdtUSw1pQFAqi+blpRzMw63oZ/4RbykCPgPAf7MULZbx4g/aACQY8umERXcBPwGLfwiXlZ1RcDhL6RTaB0j3qYBQI5sBsk05Soc/gC0sc4RkWrbDdxPEo/oUwNyJBoA5IeySaSSq3H5P6CDdY6I1NqXuPyeQqZpS2L5Pg0AcqgFDCXEg8CZ1ikiEjbrcbmD4cyzDhHv0AAgVRbQhRD3A6OsU0QkQhz+R4DbGMJn1iliTwNAvHuL9gT5I3AFELDOEZGIKwMeoZI/MYq91jFiRwNAvFpGEvn8DId7cGlsnSMiUbcbuIc9PKb3B8QnDQDxKJMhwKNAF+sUETG3HJfbGM5i6xCJLg0A8eQtTibIX4CLrFNExGMc/keIWxjOF9YpEh0aAOJB1eX+XwL/H5BinSMinlUK3E0SDzKISusYiSwNALEuk57Av4A06xQR8QmXVSRwDUPJsU6RyNEAEKvepT5F3AX8AkiwzhER36kEHsfl/zGcYusYCT8NALEogwE4PA2cZp0iIr73OQGuZygLrEMkvDQAxJJsUqnkPlyuRf9sRSS8XiHAjQxlt3WIhIcWiViRwVgcngDaW6eISMzajsOvSGe6dYjUnQYAv3uL9oR4Epcx1ikiEidcZuFyIyPYap0itacBwM8ymQA8DbSwThGRuLMHlxsZzkvWIVI7GgD8qOod/vcCt1iniEjce44kfsYgiqxDpGY0APhNJn2AF9A7/EXEO74gwGUM5T3rEKk+DQB+4eKQxS3AX4Fk6xwRke+pxOVPFHKPNhfyBw0AfpBFR1ymAwOtU0REjsrlPeAy7Sngfdr/3esymIjLcrT4i4gfOJyLw3IyuMw6RY5OVwC8ai5NSOQxYIp1iohILT1LEj/XGwS9SQOAF83jdBJ4HehinSIiUkcbCHEhI/jIOkQOpVsAXpPJBSTwAVr8RSQ2nEYC75HBROsQOZSuAHjFDBJI5U/Ar9A/FxGJPS7wd5K4k0FUWseIFhpvyKYlFbwIpFuniIhE2CICXMxQtluHxDsNANbm05sArwGdrFNERKJkCy4TGc4H1iHxTO8BsJTFFQRYihZ/EYkvHXBYRBbXWofEM10BsDCXeiTwdxz9yy8ice85GnE951FqHRJvNABEWybtgJlAX+sUERGP+IAkxjOIbdYh8UQDQDRl0A2HOUBH6xQREY/5ChjDMFZYh8QLvQcgWhYwFIelaPEXETmc9jgsJoOR1iHxQgNANGRxNSHmAk2tU0REPMulMQ5vksn11inxQANAJLk4ZHA3Lv8BkqxzRER8IBF4kkwewdVt6kjSb26kzKUeSfwbVztiiYjU0iskcQWD2G8dEos0AETCfJoT4HW0ha+ISF29SxLjGMQu65BYowEg3BZwEiHmAJ2tU0REYsSnwCiG8Yl1SCzRewDCaT5nEeJ9tPiLiITTKcASMkizDoklGgDCJYvzCZAFtLJOERGJQW1weJv5DLIOiRUaAMIhg7G4zAOaWKeIiMSwRgT4H5kMsw6JBRoA6iqTy3F4HUixThERiQMNgNlkMsE6xO80ANRFBrcD06n63KqIiERHMvAyGVxsHeJnGgBqK4Nf4vAg+iSFiIiFJBxeIIOfWof4lQaA2shkKg5/tc4QEYlzCTg8TRa3WYf4kQaAmsrgbuBe6wwREQHAweUhsrjLOsRvdPm6JrK4B5ffWWeIiMhh3ccwfm0d4RcJ1gG+kcmfgN9aZ4iIyBH1YwoJPEe2dYgf6ApAdegnfxER/3D4Dem6VXssGgCOJZP/A35vnSEiIjVyJ8N40DrCyzQAHE0mdwIPWGeIiEiNuThcTzpPW4d4lQaAI8niNlwess4QEZFaC+JyGcN52TrEizQAHE4mU4Bp6PdHRMTvKnD5McOZbR3iNVrgvi+Lcbi8ih7vKyISK8pxGc9w5lmHeIkGgO/KYDAOc9DGPiIisaYEl5EMZ7F1iFdoADhoPmcR4C2gkXWKiIhERCEuQxhOrnWIF2gAAMjgRBzeB1pbp4iISETtIsS5jOBT6xBr2gtgPs0JMA8t/iIi8aAlAWbzP5pZh1iL7wFgBskEeAWX061TREQkajqTzEzmUs86xFL8DgAuDqn8CxhsnSIiIlE3gESexY3fW+HxuxnQj/gTcLN1hoiImOnGZ8DzvG0dYiE+J58MfoLDv60zRETEnIvL1QxnmnVItMXfAJDF+bhkAMnWKSIi4gkVBBjFUBZYh0RTfA0AC+hCiHeAVOsUERHxlL049COd1dYh0RI/A8B82hLgfaCjdYqIiHjSRpI4l0Fssw6Jhvj4FEA2KQSYhRZ/ERE5sk5U8Ea8fDwwPgaACh4D+lpniIiI551DIo9YR0RD7A8AGVwH/NQ6Q0REfON6MmJ/3Yjt9wBUbfCzGOLjco6IiITNfqA/w1hmHRIpsTsALKAFIZYBnaxTRETEl74kiTQGscs6JBJi8xbADBII8SJa/EVEpPY6UsFLzIjNp+bG5gDQlHuBYdYZIiLie0NI5Q/WEZEQe7cAMhiPw+vE4v83ERGx4OIyieG8ah0STrG1SM7jdBL4EGhinSIiIjHEYR8O5zCUtdYp4RI7twDm0oREZqHFX0REws2lMSFeIZtG1inhEjsDQCKP4XK6dYaIiMSsLlTwsHVEuMTGLYAMJuLwinWGiIjEAZfJDOdl64y68v8AMJcOJLISaG6dIiIicWEPDj1I50vrkLrw9y2AuwmQxHS0+IuISPSk4vKc358P4O8B4Ef8BpdB1hkiIhJ3BpDKndYRdeHfWwAZpOHwLpBsnSIiInGpghD9GMGH1iG14c8BIIOGBMjVu/5FRMTYpyTRi0EUWYfUlD9vATg8osVfREQ84BQquN86ojb8dwUgkwnA69YZIiIi33AYTzqzrDNqwl8DwFu0J8hKoIV1ioiIyHfsIkR3RrDVOqS6/HULoJJ/oMVfRES8pyUBnraOqAn/DAAZTMZhnHWGiIjIEYwmi0utI6rLH7cA5tOcAGuBNtYpIiIiR7GbAF0ZynbrkGPxxxWAAA+ixV9ERLyvBUGeso6oDu9fAZjPIAK8hR9aRUREAFwuYjivWmccjbcX1dk0IJlVOJxsnSIiIlID2ynnDMZQYB1yJN6+BVCPe7T4i4iID7UhmT9bRxyNd68ALKAvId4Df++2JCIicSuES3+G8651yOF48wpANomEeAot/iIi4l8BHJ5iGUnWIYfjzQGggl8BvawzRERE6qgb+dxhHXE43rsF8BYnE2QNkGKdIiIiEgYlJNCFIWyyDvku710BCPIQWvxFRCR2NCDIA9YR3+etKwCZDAMyrDNERETCzmEE6d5Z47wzAMwgmWaswuV06xQREZEIWEdzetCHCusQ8NItgKbcqcVfRERi2Bnk83PriIO8cQXgLdoTZD3QyDpFREQkgvYS4DQvbBbkjSsAQf6EFn8REYl9TXD5g3UEeOEKwHx6ECAPrwwjIiIikRXEoRfprLaMsF90HR7wRIeIiEh0JODysHWE7cKbwRgchpo2iIiIRN9gshhuGWB3CyCbRCpYBZxh1iAiImJnDXvoySSCFie3uwJQzk/Q4i8iIvGrG6lMsTq5zRWAbFKoYANwvMn5RUREvGETlZzOKMqifWKbKwCV3IwWfxERkRNI4HqLE0f/CsAsGlOfT4HWUT+3iIiI9+yklJMZx75onjT6VwAa8Cu0+IuIiBzUihRujfZJo3sFIJuWVPI5Lo2jel4RERFvK6ScExlDQbROGN0rABX8Qou/iIjIDzQlmduiecLoXQFYQAtcvtAAICIiclh7KadTtK4CJEbjJACEuBO0+IuI+EmjhEZ0qt+J41OOp129drRMavnN11xcdlXsYlf5LnaU72Bt8Vr2Vu41rPW9JiRxK3B3NE4WnSsA82lOAhv107+IiLd1TOnI6JajOSf1HPo06UPnBp0JONW/W7yxdCOrilaxqGARGbsz+KjoowjWxqSovRcgOgNABn/E4bdROZeIiNRI+3rtubr91UxoNYHeTXqH9dib929mxvYZ/Oer/7C2eG1Yjx2zHO4mnd9H/jSRNpcmJLIJSI34uUREpNoGNBvAzcffzITWE0h0In9H+L3C93h408O8uuNVQm4o4ufzsQKS6MggiiJ5ksh/CiCJn6HFX0TEM3o36U1WWhaL+iziojYXRWXxBzi36bm83P1lVp6zkoltJuIY7kfncc2o5OpInySyv/tzqUciXwBtI3oeERE5ppZJLXnw9Ae57LjLanRfP1KWFCzhunXXsb54vXWKF31BEqcxiMpInSCy/wYkchVa/EVEzF3Q6gLWnLeGKW2neGLxB+jfrD8rzlnB/530f1G7CuEjJ1LBhEieIHJXAGaQQCrrgFMjdg4RETmq5EAyj3V+jGvbX2udclRvF7zNxasuZkf5DusUL8lhGGdF6uCRGwObMgEt/iIiZloktSCzd6bnF3+A85udT+7ZuZzVNGLrnR/1JYt+kTp4JK8D3RHBY4uIyFGc2uBU3j/rfQY2G2idUm0dUjqwMG0hQ5oPsU7xkjsjdeDI3ALIIA2HZRE5toiIHFXXRl3J7J1Ju3rtrFNqpSxUxsWrLmbWzlnWKV7g4tCVdNaF+8CRugKgn/5FRAycl3oeS/su9e3iD1AvUI8Z3WfoSkAVB5dbInPgcMukHfAFkBz2Y4uIyBENbj6YmT1m0jgxNp66vrdyL+flnKfHCcN+AnRiKNvDedBIXAG4CS3+IiJRNbHNROb1mhcziz9Ak8QmzOwxkxZJLaxTrKXgckO4DxreKwBVD/7ZDLQK63FFROSIprSdwn+6/idmP0v/5s43GbdinHWGtR1U0pFRlIXrgOG9ApDIRWjxFxGJmp8f/3OmdZsWs4s/VD3E6Mp2V1pnWGtNIheG84DhvgVwY5iPJyIiR/DHU/7Io50fjYtn6j9y+iN0SOlgnWEtrLcBwjcALKA7cF7YjiciIofl4PDQ6Q/x2xPjZ5f1polN+fMpf7bOsDaADLqF62DhGwBC+ulfRCTSEpwE/t3139zW8TbrlKi77LjL6N2kt3WGLYewPdYxPNeNsmlEBV8BTcJyPBER+YGUQAozus9gbKux1ilm5u+ez8i8kdYZlgpxac9wiut6oPBcAajkErT4i4hETMOEhrzZ8824XvwBRrQYQfdG3a0zLDXF4aJwHCg8A4DLT8JyHBER+YFmSc1YkLaA9Bbp1imecOPxcX/H+epwHKTutwDmcToJrAvLsURE5BDt67UnMy2TLg27WKd4RlGwiA6LO1BYWWidYsUlxGmM4NO6HKTuVwAS+Sla/EVEwu7E+ifydp+3tfh/T6OERoxpNcY6w5KDw1V1PUjdBoBsEnG5vK4RIiJyqC4Nu7Ck7xJOaXCKdYonjWsV508GdLiKGSTU5RB1GwDKGQm0rdMxRETkEOc0PYclfZfQvl576xTPGtFiBPUC9awzLLWnGUPrcoC6DQAOU+r0ehEROcT5zc4ns3cmzZOaW6d4WuPExqQ1SbPOsFanNbj2A8AsGgNxfRNGRCScxrYay7zesbWjXySd1eQs6wRbLuPJplFtX177ASCFC4H6tX69iIh84/K2l/N6j9dJCaRYp/hG36Z9rROsNaSCWj8YovYDgMOltX6tiIh849aOtzK92/SY3tEvEro1Cttj8f3sktq+sHYDQAatgcG1PamIiFSZ2mkqD5/+cFzs6Bdux9c73jrBC0awgBa1eWFtrwBMBjSqiojUkoPD3077G/eeeq91im81S2pGw4SG1hnWkgjV7tHAtRsAHCbV6nUiIkKik8gzXZ/hjhPusE7xveOSj7NO8IIoDQDZHAecW5uTiYjEu+RAMv89879c2e5K65SYkBxItk7wgoEHbs3XSM0HgHIurNXrRETiXMOEhszuOZuJbSZap8QMvXESgAQcLqjpi2q+kDv8uMavERGJc82TmvNW2lsMazHMOiWmJDh1ehpu7HBrvjbXbACoeqfhgJqeREQknh2XfBwL0xZydtOzrVNizp7KPdYJ3uAwhP/RrCYvqdkA4HIBeve/iEi1darficV9F9OjcQ/rlJi0s3yndYJXJJFcs6fz1nQAGF+j7xcRiWNnNDyDJX2WcGqDU61TYlJJsITiYLF1hpfU6H0A1R8A5lIPPfxHRKRa0pqksbjvYjqkdLBOiVlflH5hneA1Iw6s1dVS/QEgkSFQ+00HRETixcBmA1mYtpCWSS2tU2LaqqJV1gle04hk+lf3m6s/ALja+U9E5FjGtBrDvN7zaJLYxDol5q0uWm2d4D1BRlf3W6s/ADiMqlWMiEicuLzt5bzR4w3qB7RRajQs27vMOsF7avA8gOoNAAvoDpxQ2x4RkVh3Y4cbmdZ1mh5MEyWloVKWFiy1zvCik8igc3W+sXoDQIgRdcoREYlhUztN5fEzHifg6CGp0ZKdn01pqNQ6w5sC1Vuzq/dvq0t6nWJERGKQdvSzM2fXHOsE76rmmn3sDaizSaGCfEA3tUREDkhwEnjyjCe5pv011ilxpyxURofFHdhVscs6xauKqaQFoyg72jcd+wpABQPQ4i8i8o2DO/pp8bfx+o7XtfgfXUOSjr1r77EHAF3+FxH5xsEd/S5qU6st2CUMnv7qaesE76vG2n3sAcDRACAiApCamEpG7wzt6Gfo3T3vkp2fbZ3hB8dcu4/+HoD5NCfATmqzbbCISAxpk9yG+b3n07NxT+uUuDYkdwgL8xdaZ/hBiCRaMIgjbpd49IXdYcAxv0dEJMadkHICS/ou0eJv7K38t7T4V1+ASn509G84+lcHhDVHRMRnOjfszJK+2tHPWlmojJ+v/7l1hr+4R1/Dj/XIqoFhTBER8ZXeTXozv9d8WiW3sk6Je/d8fg/ritdZZ/jNUdfwI78HYC5NSCQfSAh3kYiI1w1oNoDZPWdrUx8PWLZ3GT/K+RHloXLrFL+ppJTmjGPf4b545FsAifRDi7+IxKHRLUczv/d8Lf4ekF+Rz6RVk7T4104iKZxzpC8e7T0A/SIQIyLiaZOPm8wbPbWjnxeE3BCXrr6UL0q/sE7xL4f+R/rSkQcA58hTg4hILLqhww280O0Fkpwk65S45+Jy4/obydidYZ3id2cf6QuHHwDuJoBLWsRyREQ8Rjv6ecsvN/ySf275p3VGLDibuw+/1h/+3/R+dAN080tEYp6Dw32n3se9p96LU4390SSyXFzu3HAnf9v0N+uUWNGUfnQ+3BcO/zFA98iXDEREYkVKIIWnuzzN5W0vt04RIOgG+dn6n+kn/3ALcg6w9vu/fPgrABoARCTGtavXjsV9F2vx94jyUDmXrblMi38kBA6/ph/pQUBnRTBFRMRUWpM0ZvecTdt6ba1TBCgJljBx1UTm7ZpnnRKbjvBD/Q9veGWTQgX7OPZTAkVEfEcP+PGWwspCxiwfw9I9S61TYlkFSTRhEPu/+4s/vAVQRne0+ItIDNIDfrwlvyKfYXnDtPhHXhJldPn+L/5wAAjQKyo5IiJRdMlxl+gBPx6ytWwrA5cN5MPCD61T4oPzw7X9cG8C1AAgIjHlhg438Hy35/WAH4/4vPRz+uX0Y03RGuuU+FHNAaB3FFJERKJiaqepPHHGE3rAj0esKVpD/5z+fF76uXVKvDnGADCDBKBbtGpERCLluw/4EW/4sPBDBi4byNdlX1unxKPu338i4KEDQHNOBnSDTER8LcFJ4KkuT/GrTr+yTpEDFuYvZEjuEPIr8q1T4lUjzuWE7/7CoQNAiK5RzRERCbPkQDIvnvki17a/1jpFDpi5Yyajlo+iKFhknRLvDlnjDx0AnB9+TEBExC8aJDRgZo+ZTGozyTpFDpi+dToXrbqIslCZdYp8b43//hUADQAi4ktNE5uS0TuDkS1HWqfIAY9++ShXrbmKSrfSOkWqHGUA0BUAEfGh1smtye6TTb/UftYpcsB9G+/j1o9vxcW1TpFvHbLGf/vEv6p3B54e7RoRkbromNKRzN6ZnN5Qf315gYvLHR/fwcNfPmydIj90Bi4OTtVU9u0AUPXuQH0CQER84/SGp5PZO5OOKR2tU4Sq7XyvWXsNz379rHWKHF4j5tEe2AKH3gI4xaZHRKTmejXuxeI+i7X4e0RZqIyLVl2kxd/rkr5d678dAAIaAETEH85uejYL0hbQOrm1dYoARcEixiwfwxs73rBOkWNxv13rE7/ziyebxIiI1MCQ5kOY2XMmjRIaWacIVTv6jV4+mvcL37dOker4zlr/3QHgFByTHBGRahnfejwvnfkS9QL1rFOEqh39hucNZ3XRausUqS7ncLcAHN0CEBHvuqLtFbzS/RUt/h7xRekX9M/pr8Xff753C8DFIYsTzXLkGw0TGtKrcS86N+xMh5QOdKjXgdSkVJomNgXAdV12Veyq+k/5Lj4u+ZjV+1azoWSDHrYhMetXnX7Fvafei6PLlJ6wqmgVw3OHs618m3WK1JTz7S2Aqj9Nc2lFIjvMguJYciCZQc0GMb71ePql9uOMhmeQ4CTU+DjloXI+KPyAjN0ZZOzOIG9fHiE3FIFikej68yl/5jcn/sY6Qw54r/A9Ri8fTUFFgXWK1FY5zRlDQdUAMJ/eBMg1Toor56Wex40dbuSCVhfQJLFJ2I+/ef9mnvn6GZ75+hk2lm4M+/FFIi3gBPhH539wQ4cbrFPkgKzdWUxYOYHiYLF1itRFgB4MZVXVAJDFOFxmGifFvAQngcvbXs6tHW+lV+NeUTlnyA0xb/c8fv/Z78nZmxOVc4rUVZKTxLRu07jkuEusU+SA13a8xmWrL9OmPrHAYQzpzDn4JsDjTWPiwJhWY1h5zkqe7fps1BZ/qPopanTL0Xx49ofM7jmb7o26R+3cIrVRP1CfN3q+ocXfQ575+hkuXnWxFv/Y0REOfgrA1QAQKQefUz6752y6Nup67BdE0JhWY8g9J5d7T72X+gE99Vm8p0liE+b1nsfolqOtU+SAhzY9xE8/+ilBN2idIuFyYM0/OAB0MI2JUVe1u4pV564ivUW6dco3Ep1EpnaayurzVnNe6nnWOSLfaJXcioVpCxnYbKB1ihzwf5/9H3dsuEM7+sWe7wwADu1MU2JMSiCFF898kWe6PvPNx/e85uT6J5Odls1Nx99knSJCh5QOLOqziLQmadYpQtWOfresv4V7Pr/HOkUioy18+yCgNoYhMaV1cmsW9lnoi/uXyYFkHuv8GNO6TSM5kGydI3Hq1AansrTvUs5oeIZ1igCVbiVXrrmSv2/+u3WKRE4b+PZRwBoAwuCk+ifxVtpbdKrfyTqlRq5oewXNE5szcdVEvclHoqpH4x5k9M6gTbL+CvKC/aH9TF41mVk7Z1mnSGS1BnBYRhL5lIEesVUXx6ccz6I+izixvn8fqPh2wduMXT6WomCRdYrEgb5N+jKv9zxaJLWwThGgOFjMhJUTyNqdZZ0ikRciiXoBCmmNFv86aV+vPdl9sn29+AOc3+x8Xuvxmm4HSMQNazGMd+S4fAAAIABJREFU7D7ZWvw9YnfFbgbnDtbiHz8CBGkRIIQ21K6DlEAKb/R8g5Prx8ZuysNaDOPlM18m0Uk89jeL1MK4VuOY1XMWDRMaWqcIsK18G4OXDebDwg+tUyS62gRwaWVd4WePdX6Mvk36WmeE1fjW4/l3139r4xUJuyltp/Bqj1dJCaRYpwiwsXQj/XP6s6polXWKRFuIVgFcmll3+NVP2/+Un7b/qXVGRFzR9goeOO0B6wyJIXeccAfTuk3T1SWPWFO0hvNyzuPTkk+tU8SCQ2oCV9APGGPd4jdt67VlVs9ZMf2TzLmp5xIkyOKCxdYp4nNTO03l/tPu11Ulj1i2dxnpuensKNcmsHEsK4CjKwC18Xjnx0lNTLXOiLh7Tr6HO064wzpDfMrB4cHTHuTeU++1TpED3i54myG5Q9hVscs6RSw5pAYI4c1H1XnY2FZjGd96vHVG1Nx/6v1c3vZy6wzxmUQnkendpnP7Cbdbp8gBM3fMZETeCPZW7rVOEXtNAzjE/o+xYeTg8IeT/2CdEVUBJ8CzXZ9lYpuJ1iniE/UC9Xi5+8saHD3kha0vMGnVJD3sS6q4NAuArgDUxITWE+jZuKd1RtQlOAm80O0FhrcYbp0iHtcwoSGze87mwtYXWqfIAY9vfpwrPrqCCrfCOkW8wiE1ADSy7vCT3574W+sEM8mBZF7p/gpnNT3LOkU8qkVSC7L7ZHtqB8x494fP/8BN628i5IasU8RbGgaABtYVfpHWJI3eTXpbZ5hqnNiYjN4ZcXkVRI7uuOTjWNhnYcw9F8OvXFx+seEX3PXZXdYp4kUuDQJAfesOv4jVz/zXVGpiKnN6zeGk+idZp4hHdKrfiSV9l9C9UXfrFAGCbpBr117L3zb9zTpFvMqhvq4AVFNyINkXW/xGS7t67chMy6RtvbbWKWKsW6NuvNv3XU5pcIp1igBloTImrZrEv7/6t3WKeNmBKwAaAKrhR6k/iovP/dfEyfVPJrN3pjZ0iWN9mvQhu0+2BkGPKA4WM27FOF7f8bp1inifbgFUl979fnjdGnVjbq+5NE5sbJ0iUXZ+s/NZmLaQlkktrVME2FO5h2F5w8jYnWGdIv5QPwDE7rNswyi9ud7VfCRnNT2LN3q8Qb1APesUiZLxrcczv/d8DX4esa18GwNzBvLunnetU8Q/6gcA7cxxDPUC9Tiz8ZnWGZ42pPkQZnSfoY1e4sBlbS/jle6vaODziE37NzEgZ4B29JOaSgzgaAA4ljMankGSk2Sd4XkXtLqAZ7o+Q8AJWKdIhNx0/E1M7zpdg55HrC9eT7+cfnxS8ol1ivhPQgCXBOsKr+vWqJt1gm9c3vZyHjrtIesMiYC7TrqLxzo/pgHPI5btXUb/nP5s2b/FOkX8KTEAGgCOpVP9TtYJvnJLx1u4++S7rTMkTBwcHjjtAf0z9ZDFBYu1o5/UVYIGgGrQu5xr7q6T7uLOE+60zpA6SnASeLrL0/pn6SFzds3Rjn4SDroCUB2tkltZJ/jS/afdzzXtr7HOkFpKDiTz0pkv6QmYHvLfbf9lwooJlIZKrVPE/xJ0M68aGiVov6TacHB48ownmdB6gnWK1FCjhEbM6TVHW0B7yOObH+fyNZdrRz8JmwAQtI7wuqCr36LaSnASeOnMlxjRYoR1ilRTamIqGb0zGNp8qHWKHHDfxvu0o5+EW1ADQDVoAKib5EAyr/V4jX6p/axT5BjaJLfh7T5vc17qedYpQtWOfr/65Ff8+pNfW6dI7KnUAFANZaEy6wTfa5DQgFk9Z3FmIz1QyatOrH8i75z1Dj0a97BOEap+8Lhu7XXcv/F+6xSJTcEAjgaAY/m67GvrhJjQPKk5C9IWcHrD061T5HvOaHgGi/ss5uT6J1unCFAeKufS1Zfyr6/+ZZ0isasygEuldYXXfVX2lXVCzGid3Jqs3ll0TOlonSIHpDVJY1GfRXRI6WCdIkBJsIRxK8YxY/sM6xSJbcEAaAA4ls37N1snxJTjU45nXu95er6CB5zf7Hyy07L1UVePOLij3/zd861TJPZVBoD91hVep002wq9Lwy5kpWWRmphqnRK3xrQaw9ze2srZK3aU72DQskG8s+cd6xSJD6UBQE+UOIbPSj5jd8Vu64yY07NxT97o+QYpAe1IHW2XHncpr/d4nfqB+tYpAny5/0v65/Rnxb4V1ikSP0oDQIl1hde5uOTtzbPOiEnnNztf2whH2U3H38Rz3Z7TDpce8XHxx/TL6ceGkg3WKRJfSjQAVNNb+W9ZJ8Sssa3G8mzXZ7XLXBRM7TRVO/p5SN7ePAYsG6D3GUn0OVUDgG4BVMPrO163Tohpl7W9jMc6P2adEbMcHP566l+599R7rVPkgCUFSxicO5gd5TusUyQeuboFUG2flHzCuuJ11hkx7cYON/LHU/5onRFzEpwEnuryFL/s9EvrFDlg7q65jFg+gsLKQusUiVcOJQlMYSygx7NVQ7OkZgxuPtg6I6YNaDaAomAR7xW+Z50SE5IDybx45otMaTvFOkUOeHnby1y86mI9YVRsOeQGcNlj3eEXT215Sn9oo+D+0+7n2vbXWmf43sHHL1/U5iLrFDlg2tfTtKOfeEOI/ACOBoDq2lm+k1e3v2qdEfMcHJ444wkuPu5i6xTfSk1MJbN3pnZh9JBHv3yUqz+6mkpXz14TD3DYEwANADXxwKYHtCVnFCQ4CUzvOp3hLYZbp/hOm+Q2ZPfJ5kepP7JOEao+RvybT37DrR/fiotrnSNyUKFuAdTQin0r+O+2/1pnxIXkQDJv9HyD/s36W6f4RseUjizuu5iejXtapwhVi//tH9/OvRv16QvxGJeCAAENADX1u89+p/cCREn9QH1m95xN7ya9rVM8r3PDziztu5TTGpxmnSJApVvJ1R9dzSNfPmKdIvJDAfYECFFg3eE3G0s3aqKPoqaJTZnbay6nNjjVOsWzejfpzeI+izk+5XjrFAFKQ6WMXzGeaV9Ps04ROTyXwgAOO607/OiPn/+RnL051hlxo01yGxamLeSElBOsUzynf7P+LExbqB39PKIoWMTY5WOZs2uOdYrIkblsDxBiu3WHH1W6lVy55kpKQ3qQYrR0SOlAVloWbZLbWKd4xqiWo8jonUHTxKbWKQLkV+QzNHeoHh0ufrAjQD12Anpbey2sK17HDWtvsM6IK6c2OJXMtEyaJTWzTjE3+bjJzOw5Uzv6ecTWsq0MXDaQDwo/sE4ROZYghewOMIhKIN+6xq+mb53OX774i3VGXOneqDtzes2hYUJD6xQz13e4nhe6vaAd/Tzii9Iv6J/TnzVFa6xTRKpjF5MIHtwSTLtR1MHvPvudHhAUZec2PZcZ3WfE5QI4tdNUnjjjCe3o5xEr963k3A/P5bPSz6xTRKrHrbr1X/U3iKP3AdRFyA1x2ZrLmL97vnVKXBnVchQvdX+JBCfBOiVq7j75bu499V4cHOsUAT4s/JAhuUPYXq6/QsVXdsDBASDEVtOUGFAeKufHK3/M0j1LrVPiyoWtL+RfXf4V8wuig8Mjpz/CXSfdZZ0iByzMX8jQvKHsrthtnSJSM07Vmn/wCsBm05gYURIsYczyMSzft9w6Ja5c1e4qHjz9QeuMiEl0Enmm6zPc0vEW6xQ5YNbOWYxePpp9lfusU0RqzuVLODgAoAEgXAorCxmRN4KPiz+2Tokrt3W8jamdplpnhF29QD1e6f4KV7a70jpFDnhu63NMXDmR/aH91ikitXPgh34NABGwo3wH6XnpfLn/S+uUuPKXU//C9R2ut84Im0YJjZjTaw7jW4+3TpED/r7571y55krt6Cd+950BQLcAwm7z/s2k56brzUFR5ODweOfHmXzcZOuUOmue1JwFaQsY0nyIdYoccN/G+7hl/S3a0U/875BbAA76UTUCNpRsYETeCPZUar+laAk4AaZ3m87olqOtU2qtbb22LOqziLObnm2dIny7o9+vP/m1dYpIeASqfuj/9q3TmRQDDax6Ytl5qeeR1TuLBgn67Y2W0lApI/NGsqhgkXVKjZxU/ySy0rI4qf5J1ikCBN0g1669lme+fsY6RSRc9jKMpvDtewAAPjeKiXnv7nmXyasnU+FWWKfEjfqB+rzZ803SmqRZp1Rb10ZdWdJ3iRZ/jygLlTFp1SQt/hJrvnli1bcDgMOnJilxYvbO2Vy15ipCrrZdiJYmiU2Y33s+ZzQ8wzrlmM5qehaL+iyiXb121ikCFAeLGbtiLK/veN06RSTcvlnrvx0AQhoAIu3FbS9y8/qbrTPiSsuklmSlZdGpfifrlCMa3Hwwb6W9RYukFtYpAhRUFDA0dyhZu7OsU0Qi4TADgIMeZB0FT2x5gt99+jvrjLjSvl57snpncVzycdYpPzCu1Tjm9JpDo4RG1ikCbCvfxsBlA3m/8H3rFJHIcA93C8DVABAtf/riT9y/8X7rjLhySoNTPLeN8BVtr+DVHq+SEkixThG+3dFvddFq6xSRyAkcbgBAtwCiaeonU3n6q6etM+LKmY3OZG6vuZ74afvnx/+cZ7s9S6KTaJ0iwNritfTP6c+nJfprUGJcxeFuAbzHJqDUoiceubjcuO5GXt72snVKXDmn6Tm80fMN6gXqmTVM7TSVRzs/GvMbGPlFzt4cBuYM5Kuyr6xTRCKtiJF88y/6twPA3YSA9RZF8SroBpmyZgpzd821TokrQ5sP5aUzX4r6T98ODg+d/hD3nnpvVM8rR/Z2wdsMyR3Cropd1iki0bAW59tHWQYO+ZLD2qjnxLkKt4KJKyeypGCJdUpcGd96fFS3EU5wEvhP1/9wW8fbonI+ObbZO2czMm+kdvSTeHLIGn/oAOBqALBQGipl7Iqx5O3Ns06JK1e2u5KHT3844uepF6jHjO4zuKrdVRE/l1TP81uf58KVF2pHP4kvrgYATyqsLGTE8hGsL9ZdmGi6peMt/PbE30bs+I0SGvG/Xv/jwtYXRuwcUjP/2PwPrvxIO/pJHAocbQBI0ABgaWf5TtLz0tm0f5N1Slz54yl/5PYTbg/7cZslNSMrLYuhzYeG/dhSO/dtvI+b19+sJ3JKfAodbQDI5zOgJJo9cqgt+7doG2EDfzvtb1zd7uqwHe/gjn7nND0nbMeU2nNxuXPDndrRT+JZ0YFP+33j0AFgEkFAT8Ew9knJJwzLHUZBRYF1StxwcHi6y9P8uPWP63ysE+ufyJK+Sziz0ZlhKJO6CrpBrll7DQ9uetA6RcTSigOf9vtG4DDftDxKMXIUq4pWMXr5aIqDxdYpcSPBSeDFM19kWIthtT5Gl4ZdWNJ3CSfXPzmMZVJb5aFyJq+ezH+++o91iogt94dr+w8HgMN8k9h4r/A9JqycQFmozDolbiQHknm1+6v0adKnxq/t26Qvi/supn299hEok5o6uKPfq9tftU4R8YIV3/+FHw4ADvosmodk7c7i0tWXEnSD1ilxo3FiY+b1nkeXhl2q/ZpBzQdpRz8PKagoYFjeMDJ3Z1qniHhDoDpXACpZDVREo0eq5/Udr3PN2mtwv32Ak0TYwW2ET6x/4jG/94JWFzC311waJzaOQpkcy7bybQzKHcS7e961ThHxinIqfvgpvx8OAKMow2VdVJKk2p79+llu/zj8H1WTI2tXrx1ZaVm0rdf2iN9zedvLea3Ha9rRzyM2lm5kQM4AVu5baZ0i4iVrGcUP7iUf7k2AAB9EOEZq4ZEvH+G+jfdZZ8SVk+ufTGbvTJonNf/B1246/iamdZ2mHf08Yl3xOvov688nJZ9Yp4h4zfuH+0UNAD7zm09+w1NbnrLOiCvdGnX7wTbCUztN5bHOjxFwjvRHSKIpd28uA3IGsGX/FusUES867JquAcBnXFx+tv5nvLTtJeuUuHJ207OZ1XMW9QP1+dtpf9OOfh6yqGARg3MHa0c/kSNxD38F4PBbod1NgPPIB5pGsklqL8lJYmbPmYxqOco6Ja5s2b+FDikdrDPkgDd3vsnFqy7Wpj4iR7aHd2nx/YcAwZEGAIBMFgBDIlkldVM/UJ95vecxsNlA6xSRqHtx24tcteYqKlx9aEnkiFzmM5yRh/vSkW9gHuGSgXhHaaiUC1ZcQO7eXOsUkah6YssTTFkzRYu/yLEd8Zb+0d7B9E4EQiTM9lbuZUTeCNYV65ObEh/u23gfP1v3M+3oJ1IdCSw90peOPADsZymgDbN9YFfFLtJz09lYutE6RSRiXFx+ueGX2tFPpPoqCPLekb545AFgHPs4zLODxZu+KvuK9Lx0tpVvs04RCbugG+S6tdfxwKYHrFNE/MNlGcM54o5yx/oQ8+Iw50gEfVryqbYRlphTHirnktWX8K+v/mWdIuIvztHX8KMPAMd4sXjP6qLVjFo+iqJgkXWKSJ2VBEsYt2Icr2x/xTpFxI/qMAAEWQI//OygeNv7he8zYYW2ERZ/21O5h2F5w5i/e751iogfBUniqDtiHX0AGEE+oF01fGhB/gImr55Mpav3cYr/bC/fzqBlg3hnjz6MJFJLuQxiz9G+oToPMs8KU4xE2cwdM7WNsPjOpv2bGJAzgBX79B5kkVpzj712H3sACGgA8LNpX0/jto9vs84QqZb1xevpn9OfDSUbrFNE/M0JxwBQ9RCB0nD0iI1Hv3yUP3/xZ+sMkaPK25vHgGUD2Lx/s3WKiN8VU3nsp/keewAYxH448pOExB9+++lveWjTQ9YZIoe1uGAxg3MHs7N8p3WKiP85ZDOKY74LvHqbmVfjXoJ4350b7uSZr5+xzhA5xJxdcxiRN4LCykLrFJHYEKreml29AQDm1SFFPMLF5dq11/LajtesU0QAeGnbS0xYMYHSkO4yioRNiIzqfNuRtwP+vkw+B06sbY94R3Igmdk9ZzOsxTDrFIljT255kpvW36RNfUTCyeUzhnNKdb61ulcAAObUMkc8pjxUzsRVE1m2d5l1isQp7egnEiEOs6r7rdUfAAIaAGLJvsp9jMwbydritdYpEkdcXKZ+MpVff/JrPZ9CJBLc6q/V1R8AysnGYV+tgsSTDm4j/EXpF9YpEgeCbpAb1t3AXzf+1TpFJFbtpbD6n9qr/gAwijJcFtQqSTzr67KvSc9NZ2vZVusUiWHloXIuW3MZ/9zyT+sUkVg2n0mUV/eba/IeAIA3a/j94gOflX7GsLxh5FfkW6dIDCoJljB+5Xhe3vaydYpIrJtdk2+u2QCQxEyo/nQh/rGmaI22EZawKwoWMXbFWObt0ieJRSKsnPKavVevZgNA1c5Ci2r0GvGNDwo/YNyKcewP7bdOkRiQX5HPkNwhLMxfaJ0iEg+yGENBTV5Q01sAAHqKTAxbmL+Qyau0jbDUzdayrQxcNpAPCz+0ThGJD07N1+aaDwABZgLBGr9OfGPWzln85KOf6DPaUiufl35Ov5x+rClaY50iEi8qSazZ/X+ozQAwlO3AOzV+nfjKc1uf49aPb7XOEJ9ZU7SG/jn9+bz0c+sUkXiSzSB21fRFtbkFAA6v1Op14iuPbX6MP3z+B+sM8YkPCz9k4LKBfF32tXWKSHxxebU2L6vdAFDBy4BuEseBuz67iwc3PWidIR63MH8hQ3KH6KOkItFXTkLt3ptXuwFgFDv1UKD48YsNv+DfX/3bOkM8auaOmfoIqYgVl3kMZXdtXlq7AQDA4cVav1Z8xcXl+nXX88p23fmRQ03fOp2LVl1EWajMOkUkXv23ti+s/QDg8jpQXOvXi68E3SCXr7mcjN3V2mZa4sCjXz7KVWuu0kdGRewUA/+r7YtrPwAMpxin9icW/ykPlXPhygt5Z48+BBLv7tt4H7d+fKt29BOx9TrDa/+DeO0HgCrP1fH14jMlwRLGLB/Din0rrFPEgIvL7R/fzq8/+bV1ioi4dVuD6zYAFDAf2FKnY4jv7Kncw/C84Wwo2WCdIlEUdIP85KOf8PCXD1uniAhsoZA6PWe7bgPAJILAC3U6hvjSjvIdpOem8+X+L61TJArKQmVctOoinv36WesUEanyzIE1uNbqegsAAvwHdCMwHn25/0tGLR/F7opafQJFfKIoWMSY5WN4Y8cb1ikiUsUlgWl1PUjdB4ChbADeq/NxxJc+KvqIkXkj2Ve5zzpFIiC/Ip/03HQW5OuxHyIesoghfFbXg9R9AABw+U9YjiO+lLM3h3ErtY1wrNlatpXzl53P+4XvW6eIyHc5PBOOw4RnAEjmZWBvWI4lvpSdn83Fqy7WZ8JjxBelX9A/pz+ri1Zbp4jIofawv3bP/v++8AwAgyjC4fmwHEt8682db3L1R1drG2GfW1u8ln45/fistM5XGEUk/KYxlpJwHCg8AwCAwz/QmwHj3vNbn+fnH//cOkNqKWdvDgNyBmhHPxGvCvF0uA6VEK4DMZ2dTGEo0DFsxxRfytmbQ4gQg5oPsk6RGsjOz2bk8pHsqdxjnSIih/c2w7k/XAcL3xUAAJcnw3o88a17Pr+HhzY9ZJ0h1VDhVvDc1ucYuVyf5hDxtDCvsU44D8Zc6pHIZqBVWI8rvuTg8M8u/+Sa9tdYp8gRlIXKmLx6MjN3zLROEZGj284eOjKJ8nAdMLxXAEZRBroKIFVcXG5YdwMzts+wTpHDKAoWMXr5aC3+In7g8EQ4F38I9wAAEOIJCG+k+FfQDTJlzRTm7ZpnnSLfkV+Rz9DcobyV/5Z1iogcWxmJPBXug4Z/ABjBVkA/8sk3ykPlTFw1kSUFS6xThKoH/AxcNpAPCj+wThGR6nmRQWwL90HDPwAAhNC7v+QQJcESxq4Yy/J9y61T4trBB/ysKVpjnSIi1fdoJA4amQFgBHnA0ogcW3yrsLKQ4XnD+bj4Y+uUuPRR0Ud6wI+I/yxkGCsiceDIDAAAjq4CyA/tLN9Jel46m/Zvsk6JKx8WfsjAZQP1gB8Rv3F5OFKHjtwA8A4zgbURO7741ub9m0nPTWd7+XbrlLiwMH8hQ/OGattmEf9Zx3vMidTBIzcA3E0IlwcjdnzxtU9KPmF43nA9dS7CZu2cxejlo/WAHxE/criXu4nY5iqRGwAAWjAd2BzRc4hvrdy3ktHLR1McLLZOiUnPbX2OiSsnaptmEX/aQgEvRfIEkR0A+lCBE5l3L0pseHfPu1y48kLKQ3p0RDj9ffPfuXLNldqeWcS/Hgj3g3++L7IDAEAJTwEFET+P+Fbm7kxtIxxG9228j1vW34KrzTlF/CqfJP4d6ZOEbzfAI3mJcqbQABgY8XOJb60uWs3O8p2MbjXaOsW3XFzu+PgO/vjFH61TRKRu/sJQFkT6JJEfAACuYDlwA5ASlfOJLy3bu4wKt4IhzYdYp/hO0A1yzdpreHKLtuIQ8blCkriUaUT8zTvRGQCeo4wraAQMiMr5xLeW7FlCg4QG/Cj1R9YpvnFwR7//bvuvdYqI1N1fGEpGNE4U3u2AjyabVCr4AkiN2jnFlxwcnjzjSa7rcJ11iucVB4uZsHICWbuzrFNEpO4KSaITg4jK56Mj/ybAg6r+Dz0etfOJb7m43Lj+Rl7aFtFPwPheQUUBQ3OHavEXiRUOD0Vr8a86XTQtoAUhPgeaRPW84ktJThIze85kVMtR1imes618G8Nyh7G6aLV1ioiERwFJnBTNASB6VwAAhrIbR08HlOqpcCuYuHIiiwsWW6d4ysEd/bT4i8QQl/ujufhDtAcAgET+Bugh8FItpaFSxq4YS97ePOsUT1hbvJb+Of35tORT6xQRCZ8d7OexaJ80+gPAIIpwuDfq5xXf2lu5lxHLR7CueJ11iqmcvTkMzBnIV2VfWaeISHj9gXFEfcOO6A8AAAU8Dnxhcm7xpZ3lOxmWN4yNpRutU0y8XfA2Q3KHsKtil3WKiITXRir5l8WJbQaASZTjoseVSY1s2b+F9Lx0tpVvs06Jqtk7ZzMyb6R29BOJRQ53MYoyi1PbDAAAhUzDZZXZ+cWXPi35lOG5wymoiI/tJZ7f+jwXrrxQO/qJxKYVFPCC1cntBoBJBHG5zez84lurilbFxTbC/9j8D678SDv6icSw25hE0OrkdgMAwAiycZhp2iC+9F7he1y06qKY3Ub47s/u5ub1N2uHRJHYNYNhLLIMsB0AABzuBJv7H+Jv83bN4+LVF8fUT8guLnduuJPff/576xQRiZz9BJlqHWE/AAzlc+AR6wzxp5k7ZvLTj36Ki2udUmcHd/R7cJOelSUS0xweYCQbrTOisxvgsUzkA5K4CmhsnSL+s7JoJfkV+YxsOdI6pdbKQ+VcuuZSXthq9n4gEYmOr0jiEqZhfv/SGwPAS5RzOXtwuMA6Rfzpw70fkhRIYkAz/+04XRwsZvzK8czeOds6RUQi7yaGssw6ArwyAACcwkqOZxTQ3jpF/Glh/kKaJjbl3NRzrVOqraCigJHLR/J2wdvWKSISeR+Qzq145C0+3hkA3sblcj7C4SdEe5dCiRmZuzM5PuV4ejXpZZ1yTNvKt5Gel86yvZ74YUBEIsvF4RJO5kvrkIPs3wT4XcN5F3jFOkP8y8XlunXX8dqO16xTjmpj6UYG5Axg5b6V1ikiEh3Pk85S64jv8tYAAJDAr4BS6wzxr6Ab5NLVl5K5O9M65bDWFa+j/7L+fFLyiXWKiERHEQn8xjri+7w3AAxhE3jlDon4VXmonAtXXsi7e961TjlE7t5cBuQMYMv+LdYpIhItDv8fQ/DcNp7eGwAAkvgbkGudIf5WHCzmghUXsLZ4rXUKAIsKFjE4d7B29BOJLzkU8HfriMPx7pvt5tODADlAknWK+Fu7eu1Y2ncpJ9Y/0azhfzv/x6RVkygN6e6WSBypxOEs0lluHXI43rwCADCClcBD1hnif1+XfU16bjpby7aanP/FbS9y4coLtfiLxBuHe726+IOXBwCARtwNfGqdIf73WelnDMsbRn5FflTP+8SWJ5iyZgoVbkVUzysi5jaQyJ+sI47G2wPAeZTicC3EwIPexdyaojWMXD6SomBRVM45AvSWAAAOa0lEQVR338b7+Nm6n2lHP5H44+JyI4PYbx1yNN4eAADSeRuHZ6wzJDZ8WPgh41aMY38ocn8uXVx+ueGX/PqTX0fsHCLiaU8xnIXWEcfi/QGgyh3gvY9QiD8tzF/I5FWTI7KNcNANct3a63hg0wNhP7aI+MJWkrz3mf/D8ccAkE4hcLt1hsSOWTtncfVHV4f18nx5qJxLVl/Cv776V9iOKSK+cxOD2GMdUR3e2QvgWJ5jLVfQE+hsnSKxYVXRKnZX7GZUy1F1PlZJsIQJKyfw5s43w1AmIj71KsP4g3VEdflnAAC4jMU4XAk0sE6R2JCzNwfHcTi/2fm1Psaeyj2MXD6S7ILs8IWJiN/sIMBYplNsHVJd/hoAnqeIK9gATLZOkdjxdsHbNE5szHmp59X4tdvLt5Oem07O3pwIlImIT7i4XMow8qxDasJfAwDAc3zMFbQD0qxTJHZk7c6iQ0oHejfpXe3XbNq/icHLBvNR8UcRLBMRH3ic4TxsHVFT/ngT4Pft53ZgvXWGxA4Xl+vXXc8r26u3G/X64vX0z+nPhpINES4TEY9bRxm/so6oDe/uBXAs8+lNgPeAZOsUiR3JgWRm9ZzFiBYjjvg9eXvzGLF8BDvLd0axTEQ8qAw4h2GssA6pDX9eAQAYQR4Od1lnSGwpD5Xz45U/ZumepYf9+uKCxQzOHazFX0QA/p9fF3/w8wAA8A5/Be8/bUn8pSRYwpjlY1ix79A/13N2zWFE3ggKKwuNykTEQ7J413/3/b/Lv7cADnqL9gRZBTS3TpHY0jq5NYv7LOb0hqfz0raXuGLNFdrUR0QACnDpwXA2W4fUhf8+BfB909nHFXwKXGydIrGlOFjMnF1zKA4Wc/PHNxN0g9ZJIuINVzKc96wj/v/27j3G8rK+4/jrd2aXcg0LlEIsRClUEbCKQGBhW7Myc2YXVqAINJFyFcUrl5oG2jQK2lRJNApFKtQIdU2l3CwXCzO7dMXislRWTBRQu0opxSyC7IBclr2cX/+Y3bhQLnuZmeec3/m8kslks/+8s5nM893n9/yes6V6fwdgvVFX4/TSGRER0WCVqww5u3TGROjtMwAbmu7jeLB0RkRENNaPdPxF6YiJ0pwdAFjozTr+EzuWTomIiEYZ03GIOZaVDpkozdkBgEE/w6moS6dERERj1DizSYs/TRsAoO0WfK50RkRENMZntH2rdMREa94AAIv9jdodpTMiIqLnLTDWOx/xuymadQZgQ3fYWct92Kt0SkRE9KRHTHew2Z4sHTIZmrkDAHM8hePxQumUiIjoOSvV3tvUxZ8mDwBYd0dzI97XjIiIKVT5iGFLS2dMpmYPANA2H1eWzoiIiJ5xuSFXl46YbM0fAGCNc3Fv6YyIiOh6i435ROmIqdDcQ4Avt8juVluCN5ZOiYiIrvSwlpkGPV46ZCr0xw4AzLZcZS5WlE6JiIiu87TaMf2y+NNPAwAMeQh/ihdLp0RERNdYjfca9uPSIVOpvwYAaLsLZ8h1wRERQa1ylrY7S4dMtf4bAKDtm/hM6YyIiCjuU4Z8vXRECf1zCPDlapVR16icWjolIiKK+KYhJ6v6c0e4P3cAoFLbxVn037ZPRES4yxpn9OviTz/vAKy3wI5qd+OA0ikRETElHrTKLPP6+62wDABwuzcZsAS7lU6JiIhJVFtumsMc6ZHSKaX17yOADc3132pH4+nSKRERMWnGVOZm8R+XAWC9YUu1zMWzpVMiImLCPa/jmHUfEhcyALzUoHtwHFaWTomIiAnzgo555viP0iHdJAPAy7XdqXKc3BYYEdEEq9VOMsei0iHdJgPAKxkyovI+rCmdEhERm22t2qmG3VY6pBtlAHg1Q25SOwud0ikREbHJanzIsGtLh3SrDACvZdg/4ZzSGRERsUlqtY9p+2rpkG6WAeD1tH1Z5fzSGRERsdH+yrArSkd0uwwAG2PIl1T+tnRGRES8jtrF2i4pndELchPgphh1AT5XOiMiIl7RJdouLB3RK7IDsCnGp8oLSmdERMT/88ks/psmOwCbY9SH8GUZoCIiSqtxvrZLS4f0mgwAm2vEySrXYFrplIiIPrVW5QOGXF06pBdlANgSC5yk9g1ML50SEdFnVqmdbNgNpUN6VQaALbXA0WrXY5vSKRERfeJFlT8z5ObSIb0sA8BEGPUulVvVdiidEhHRcM9pOc6ghaVDel0GgImy0CE67sDOpVMiIhpqTO1owxaXDmmCnGKfKIO+r9bG46VTIiIap7Zc5d1Z/CdOdgAm2oi9VL6Nt5ZOiYhoiAcMONqRHikd0iTZAZhowx62yhGqfPZ0RMQE+HfTzcriP/EyAEyGeVZYYY7a10unRET0sGuMmWu2sdIhTZRHAJOpVhn1KZVPyr91RMTGqtU+re1ilbp0TFNlUZoKI05TuQpblU6JiOhyq3CWtvmlQ5ouA8BUGfFulRsxo3RKRESXWqFyvCHfKR3SDzIATKWF9tPxbbypdEpERJd5WOVoQx4qHdIvcghwKg160HQzsaR0SkREF1msdlgW/6mVAWCqzbbcdH+MS0qnREQUV7nKmNmG/ap0Sr/JI4CSRv05rsS2pVMiIqbYSrWPGva10iH9KgNAaaPegZuwV+mUiIgp8j9aTjDo+6VD+lkeAZTW9kMth2CkdEpExBS4XceBWfzLywDQDQb92pC5uBCd0jkREZOgxiUWm2eOp0rHRB4BdJ8R81Tmy30BEdEcz+B0bd8qHRK/lQGgG436Q+PnAg4onRIRsYV+su5yn7zi12XyCKAbtf2X6Waqcjo2InpY7R/VDs7i352yA9DtFjhe7SrsUjolImIjjal92LBrS4fEq8sA0AsW2d0qV6vMKZ0SEfE67jTgNEd6rHRIvLY8AugFsy3XdhTOw4ulcyIiXsFqtYst1s7i3xuyA9BrRhyg8s94W+mUiIh1HlI52ZD7S4fExssOQK8Z9mPbOxSXGX+vNiKipPlqh2Tx7z3ZAehlCwzruEZl99IpEdF3nlB7v2G3lg6JzZMdgF42ZETtnbildEpE9JHajVrelsW/t2UHoClGnYgr8LulUyKioWrL8XHDbiidElsuOwBN0Xa92v6YXzolIhqnNv6sf/8s/s2RHYAmGnEC/j5nAyJii1V+quODhn23dEpMrOwANNGwG7Tsa/xNgbWlcyKiJ63BJaZ5Rxb/ZsoOQNPd4Z1arsJBpVMiomfcr/YBw5aWDonJkx2AppvjB3Y2Exfi+dI5EdHVnlM535hDsvg3X3YA+smdft9an8UppVMioqvUuMGAv3SkR0rHxNTIANCP7jBby2U4oHRKRBR3H87T9r3SITG18gigH82xyHQHGv9woadL50REEb9UO9tih2bx70/ZAeh3C+2m9mm192OgdE5ETLqVal/AZw17rnRMlJMBIMaN2Ffl0zixdEpETJLKbTrOMezh0ilRXgaAeKmFBnV8Hm8vnRIRE+Z+tfPyPn9sKGcA4qUGLTTmIJUzyWngiB73sMppFjs4i3+8XHYA4tVdZys7Oh0X51rhiJ7yJD5vukvNtrJ0THSnDADx+kZsp/Ix45cJzSidExGvovIbtSus8XeO8kzpnOhuGQBi491sB9v4iAwCEd1l/cK/yiXmWVE6J3pDBoDYdL8dBC7ATqVzIvpWFv7YAhkAYvMtMsMa56qdg51L50T0kV/jUpXLDOUyr9g8GQBiyy2ytTVOwl+rvaV0TkRj1ZbjSi1fzMIfWyoDQEyci7TMdLTKhTi8dE5EgyzD5db4iqO8WDommiEDQEyOBWbhE2rHyH0TEZunskjHF7XdplKXzolmyQAQk2uhP9BxLs7CtqVzInrAKtys9gXD7i0dE82VASCmxr/Z1TQfxkfxe6VzIrrQ42pfMeAfDHq8dEw0XwaAmFrX2coMx6p9UOVI+RmMWKp2lR3Md7gXSsdE/8gv3yjndm8x4Azjjwd2KZ0TMYWeVvkXXG7Ij0rHRH/KABDljV81fKLKmWqz5OcymqnGd1W+ZqUbvMfzpYOiv+UXbXSXEXuqvA9nY6/SORET4DF8Q8dXzbGsdEzEehkAojtdpOUIQzhF7ThsVzopYqONX9H7r2rz3eNOF+mUTop4uQwA0f0W2doqQyqn4FhsVTop4hWsVVukZb5pbjLbs6WDIl5LBoDoLQvtouMEnIR3YaBwUfS3NWrf0XKdtW40x1OlgyI2VgaA6F132NmAeThRrS07AzE11mIJrtdybd7Zj16VASCaYZEZVnuP2rFa2mo7lE6KRnkGI7hF5dZ8EE80QQaAaJ7rDNjJTLV5OAZvLZ0UPekXKgt13OZpI06yqnRQxETKABDNN2JfLXPUhoyfG8gbBfFKnsVdWKDldoN+VjooYjJlAIj+cp2t7OTwdWcGhnCgHCTsV2vxA7VRlQXG3JP/5Uc/yQAQ/W2R7a11mLVm4QiVP5HDhE21Fj/E93C3jjtzaj/6WQaAiA0tsr3VDscsHLrua8eyUbGZxnCv2hID7rbWPYY9VzoqoltkAIh4LRdpmWVftUNx2Lrv+2F64bJ4qdV4APdiicq9Bv1EpS7cFdG1MgBEbKr7TPekNxtwkNpBOAhvx/aFy/rFs/gpHsRSlaW2szQfpRuxaTIAREyUUW/Qsp+O/VX2U9tf5Y9yJ8FmexE/xwNqD6o8oONBSzyUu/UjtlwGgIjJVKuM2kNtHy17Yx+1fVT2Vtk7w4Fn8AssU1um8nOVZVZbZq7HsoUfMXkyAESUdJud/I49dLxRy55qe2BPvAG7Ydd1X62SmZuhgyfWfT2OX+JRPKr2v1oeMc2jZhsrGRnRzzIARHS76wzY1a7W2FXHrthZZYbKDJ113ysz1LZV20Fla2xj/MKjrYy/xbDhALH+7zf0AlZu8OcOnsYqPKfyvI4XVX6j8rzamNqYljEdKzb4/oRpnnCXX2WbPqK7/R/ekZWlyzUTdQAAAABJRU5ErkJggg==;" vertex="1" parent="1">
          <mxGeometry x="80" y="804" width="22" height="22" as="geometry" />
        </mxCell>
        <mxCell id="mUVZ_eBPIsCB5TYUY8Db-22" value="" style="shape=image;verticalLabelPosition=bottom;labelBackgroundColor=default;verticalAlign=top;aspect=fixed;imageAspect=0;image=data:image/png,iVBORw0KGgoAAAANSUhEUgAAAgAAAAIACAYAAAD0eNT6AAAABHNCSVQICAgIfAhkiAAAAAlwSFlzAAAOxAAADsQBlSsOGwAAABl0RVh0U29mdHdhcmUAd3d3Lmlua3NjYXBlLm9yZ5vuPBoAACAASURBVHic7d15lJx1mfbx7/1UdRaSAIZkWNKpqgQUIS6DkbDroL7nFQRlcJsRRFbRUYfRcWEcR3EdxREVF7YAihsiIi6AvuIoSkSiUVHDIgldVVkQSKKE7Omu3/tHdUOWXqqqq+p+lutzDkeSdD11HUn3fdXv9yyGiMRWgIgDDpjOpEnTqdWmE8J0QtgHmE4U1X8N9d+r/3oCMG3w5ZOAyYP/PgWY0ODbbgM2Dv77ZmDL4L8/gdk2arV1mK0F1mG2jlpt3ZP/braWKFrHli3rWL16nUFtvP8fiEhnmHcAkSwLxeL+mBWp1QqYFYACZiVCKACzgBm+CcdtDbAaswohlIEqIVSJoiohVKhU/mIQnDOKZJIKgEgHhfnze3j00YPJ5eZRqx2MWQkoEMLQwJ/om9DdVkKoYlalXg4qRNH9DAwsZc89/2xLl27zDiiSVioAIm0QIE+hUADmAYdiVv/f+q8nuYZLrn6gCtyL2VJqtXuBpUTRUiuXt4zxWhEZgwqASJNCb+90crkjgOcBz6I+6J9J43vsMj7bgPuBe4E/Ab9jYOBXtnLlOt9YIsmiAiAyigA5CoVnAvOJomMI4Vjqwz5yjia7exizO6nVFgFLmDDh17Zs2VbvUCJxpQIgsoNQLO5PCM8niuYTwnzgWGBv71zSkk3A7zBbQq22BLNfWKXS5x1KJC5UACTTQrE4B3gRcDxwHFDwTSQdVgXuIIQfY3a7VSoPewcS8aICIJkSSqX9qNVegtnQ0C85RxJffwJ+DPyYLVt+bo88snGsF4ikhQqApNrgHv7fAy/B7GTgKLR/L8PrB+7B7HZqtduZOfMOW7Jku3cokU5RAZDUCQccMIMJE15GCCcB/wfYyzuTJNI6zH4C3Mq2bT+w1avXeAcSaScVAEmFUCzOIYSXY3YS8EKgxzuTpEqN+gmFPyCEb1qlcp93IJHxUgGQxAqFwjyi6DWE8ErqN9wR6ZalmH2bWu0Gq1aXeocRaYUKgCTKDp/0Xw0c451HhPqdCr+llQFJGhUAib0wa1YvudzrMDsNeI53HpERmf2RWu1r9PR83ZYvX+EdR2Q0KgASS6G3dzJRdBJmZwAvBfLemUSaUAPuIoTrmDDhelu2bL13IJFdqQBIbAQwisXjgXOAU4A9nCOJtMNm4DuEcA3V6v/q8ccSFyoA4m7w5jxvwOw84EDvPCIdtBKzr2F2mfX1VbzDSLapAIiLABHF4gmYvZEQTkRL/JIt/ZjdRq12JdXqrVbfMhDpKhUA6aowd+5e9Pefidm/AnO984jEwCrMFrJt2+d1syHpJhUA6YpQLD4Ps/MJ4XS0ty8ynK2YfY9a7bNWrS7yDiPppwIgHTO4zH8K8A50zb5IM34JXEKlcrPBgHcYSScVAGm7UCpNolZ7DWb/ATzTO49IgvURwhXk85fbQw897h1G0kUFQNomzJmzL7XavwJvAqZ75xFJkb8SwhXkcp+xvr5HvMNIOqgAyLiFuXML1Gr/Tgjnov19kU7aBnyTgYEP2cqVy7zDSLKpAEjLQqEwlyi6gBDOByZ65xHJkO3A9cB/6/kD0ioVAGlaKBYPIYQPDD6QJ/LOI5JhNUL4FvAhq1bv9Q4jyaICIA0LpVIJ+A9COAfIOccRkafUMPs2Zv9lfX0PeIeRZFABkDGFOXOKhPBeQjgb3bFPJM7qRaC//z9t5coHvcNIvKkAyIhCqbQfIbwfOBfo8c4jIg3bTghXY/Yhq1Qe9g4j8aQCILsJ++47hYkT34rZe4E9vfOISMs2YfY5oui/dR8B2ZUKgDwpzJ/fw2OPnYXZB4H9vPOISNusJYRPMmHCZ2zZsq3eYSQeVAAEgFAs/iNwMXCQdxYR6ZjlwLusUvmOdxDxpwKQcaFUeiYhXAKc4J1FRLrmZ0TRv1lf3z3eQcSPCkBGhd7e6eTzHyCEf0Fn9otkUQ34GlH0Lt1eOJtUADImQI5C4S2D+/x7e+cREXd/I4SLqFa/YNDvHUa6RwUgQ0KhMB/4ImYLvLOISOzcA/yLVSq/9A4i3aECkAGhUHgaUXQRIbwV3bpXREYWgK+Sz7/Tli9/1DuMdJYKQIoFMIrFc4CPA/t45xGRxFhHCBdSrS60eimQFFIBSKlQKMzF7ArgJd5ZRCSxFmF2rpXL93sHkfZTAUiZAPnBk/w+CkzxziMiibcFs08wZcrHbOnSbd5hpH1UAFIkzJnzHEJYSAiHe2cRkdT5A1F0nvX1LfYOIu2hApACYd68CWzY8F/AheiafhHpnH7gYqZO/aBWA5JPBSDhwuzZzyKKvgw8zzuLiGTGUkJ4g1WrS7yDSOt0SVhCBciHQuE9RNFv0PAXke6ah9mvQqn08TBv3gTvMNIarQAkUCiVnkmt9mXd0EdE3Jn9mhDeYJXKfd5RpDlaAUiYUCicQQi/0fAXkVion3T821AoXBD0oTJR9B8rIUKptDchXAb8k3cWEZFhhfBd+vvPtdWr13hHkbGpACRAKBaPB74CzPLOIiIyhkeAs6xSuc07iIxOWwAxNnii338Dt6PhLyLJsC/wg1AqfTzosuRY0wpATIXe3lnk898ghOO8s4iItCSExUTRa61cLntHkd2pAMRQKBZfBHwN2M87i4jIOK0B3mCVyq3eQWRn2gKIkQC5UCpdBPwYDX8RSYcZ1LcEPhvmz+/xDiNP0QpATIQDD/w7+vuvB473ziIi0iF3EEWvtb6+R7yDiApALIRi8TDgJqDkHEVEpNNWYfYqK5d/5R0k67QF4CwUCqcDi9DwF5FsmEUIPwuFwnneQbJOKwBOAuQplT5CCO/xziIi4sLsSqZMeZueLOhDBcBBOOigmWzffhNwrHcWERFnvySKTtV5Ad2nAtBlg4/v/R4wxzuLiEhMrAJebpXKb72DZInOAeiiUCq9lCi6Ew1/EZEdzQLuCKXSKd5BskQFoEtCoXABIfwA2Ms7i4hIDE0lhJsG74UiXaAtgA4L8+f3sGbNZcA53llERBLiWmbMON+WLNnuHSTNVAA6KMycOZU99vgmcKJ3FhGRhPkJudwr7aGHHvcOklYqAB0SSqX9Bpf853tnERFJqD+Rz59oy5ev8A6SRioAHRCKxUOA24CidxYRkYRbjdnLrFz+vXeQtNFJgG0WZs8+jvqd/TT8RUTG7wBC+Gkolf7BO0jaqAC0USgUTiKKfgQ8zTuLiEiK7E0IPwyFwqu8g6SJCkCbhGLxdZjdBEz2ziIikkITMbs+FIu6oqpNVADaIBSLbwG+AuhZ1yIinZMDrgrF4ju9g6SBCsA4hULhPcDn0f+XIiLdYMAnQ6n0ce8gSaerAFoUwCiVPk0IF3hnERHJqC9QqbzNIHgHSSIVgBYEMIrFzwJv884iIpJxV1OpvNGg5h0kaVQAmjQ4/D8P/It3FhERAeAbVCpnGPR7B0kSFYAmBMhRKCzE7EzvLCIisgOzGyiXT1MJaJwKQIMC5CkWvwy8zjuLiIgM60ZmzHidHiLUGJ253oAAOYrFa9HwFxGJs1exZs31AfLeQZJABWAMg3v+lwGne2cREZExnUqx+A2VgLGpAIwigFEofBE4zzuLiIg07FUUCguDZtyodA7ACHS2v4hI4l1LpXKuLhEcntrRSEqlT6PhLyKSZGdRLF7qHSKuVACGEUqlD+oOfyIiqfCWUCx+xDtEHGkLYBeDD/b5vHcOERFpq3dZpfI/3iHiRAVgB6FYPA24Dq2MiIikTQDOs0rlau8gcaECMCgUCidjdhO6dEREJK0GCOGfrVr9lneQOFABAMLs2ccRRT8CJntnERGRjtqC2QlWLv/MO4i3zBeAUCweAtwJTPfOIiIiXbGeKDrO+vr+4B3EU6YLQCgW9wfuAoreWUREpKtWkc8fZcuXr/AO4iWzJ7uFgw+eBtyChr+ISBbNor//1lAq7e0dxEsmC0CYP7+HzZu/BRzmnUVERNw8ixBuCvPmTfAO4iGTBYA1ay7D7P96xxAREXfHs2HD5d4hPGSuAIRi8Z3AOd45REQkNs4KxeK7vEN0W6ZOAgyl0ksJ4QdAzjuLiIjESg2zU61c/q53kG7JTAEIhcKhmP0S2Ms7i4iIxNIGouhY6+u7xztIN2SiAIRZs/Yhn78bONA7i4iIxFqFKDrC+voe8Q7Saak/ByDMn99DPn8zGv4iIjK2IrXad7JwZUDqCwBr1nwGONY7hoiIJMZRPPHEpd4hOi3VWwChUHg9Ztd55xARkQQK4Y1WrV7lHaNTUlsAQrF4GLAIPeBHRERas50QjrdqdZF3kE5IZQEYPOnvN0DJO4uIiCTaw9Rqz7cVK1Z7B2m31J0DECBHPv8tNPxFRGT89ieKvh4g7x2k3VJXACgWPwgc7x1DRERS44UUCh/yDtFuqdoCCMXii4D/h+70JyIi7RWo1U6xFSu+5x2kXVJTAEKptB8h/A7YzzuLiIik0jrM5lu5XPYO0g6p2AIY3Ju5AQ1/ERHpnOmEcH1abhKUigJAofBhQjjOO4aIiKTeEWzY8FHvEO2Q+C2AUCq9kBB+gvb9RUSkOwJwklUqt3oHGY9EF4BQKDwNs98DBe8sIiKSKY8QRc9N8kODkn1dYxRdTgga/p0yaRKUSvV/DjgAJk+GqVNh4kTYuhU2bIAtW2D1aujrg3K5/msR6YzJk6FYhDlz6t+Tkybt/j25eTOsWgWVSv37cutW79RptS+12rUBXmb1FYHESewKQCiVzieEy71zpMrMmXDssXD44bBgARx4IFiTf0WWL4fFi+HXv4Y774RHH+1MVpEs2HdfOOaY+vfjggUwd25zrw8Bli2rfz8uXlz/nlyzpjNZs8rszVYuJ3IWJbIAhFLpmYSwBNjDO0vi7bknvPSl8IpXwJFHQq6Np1LUanD33fDd78Jtt8Hjj7fv2CJptddecOKJ9e/JBQsgauO52gMDcNdd9e/JH/4QnniifcfOrk3A861Suc87SLMSVwAC5CkUFmG2wDtLos2cCaedBuecA9Omdf79tm2DH/wALr20vlUgIjvr7a1/P772tbBHFz7bbNwIN9wAV11V38aT8fgdM2YcYUuWbPcO0ozkFYBi8X3Ah71zJNaMGfDud8Opp0Le4RSQ/n64+Wa4+GJtD4hAfZn/3e+uf+L3+p688Ub45Cdh7druv39ahPABq1YTdbvgRBWAMGfOc6nVFgOpuAlDV+XzcMYZ8Pa3d+cT/1g2bYIrr4QvfrG+OiCSNUPfk+94R/1EPm/r18Nll8HChbA9UR9k46KfWu0oW7HiN95BGpWYAhDmz+9hzZq7gPneWRKntxc+9zk47DDvJLv785/hbW+DBx7wTiLSPXPnwuc/D4ce6p1kd3/8Y/17Ult1rbh38FbBibgcKjl3Alyz5gNo+DfvxBPh1lvjOfwBnvGM+glJZ5/tnUSkO175Svj+9+M5/AGe/Wy45RY45RTvJEl0KLXa+71DNCoRKwChWDwMWEzS71vQTWZw4YVw/vneSRp3zTXwkY/Urx4QSZsogve/H8480ztJ4y67rH6+TkjkZe5eBqjVjkzCVkDsC0CAPMXir9Cn/8blcvCxj9XPJk6aH/4QLrhANy+RdOnpgUsugZNP9k7SvJtuqp+k2N/vnSRJ/sCMGc+P+1UB8d8CKBT+HQ3/xuXzcMUVyRz+UL8nwcKF9TuciaTBpEn11a0kDn+oXzF0+eU+Vygk13NYu/ad3iHGEusVgNDb+3RyuXuAyd5ZEsGsvlz36ld7Jxm/xYvhrLPq1yqLJNWkSfVCe+yx3knG7+ab61cRaTugUVuBw+J8g6DYrgAEMHK5y9Dwb9yFF6Zj+EP9DmhXXqmVAEmuSZPg6qvTMfyhflLgu9/tnSJJJhLC5SHGH7RjWwAoFs8BXuwdIzFOOilZJ/w14phj4LrrYMoU7yQizRn65H/MMd5J2uvNb67fsEgaY/YCCoVzvWOMJJbNJPT2TieXewCY4Z0lEYrF+mU7cbiZSCdoO0CSJE3L/sPZuLH+gaOvzztJUqyjp+eZtmzZY95BdhXPFYBc7mI0/BuTz9dvKJLW4Q/aDpDkSNuy/3CmTIHPfEYnBTZuOtu3/7d3iOHErgCE2bMPB87yzpEYZ55Zv3FH2mk7QOIurcv+w3nuc+H0071TJMnZoVR6oXeIXcVqCyBAjmLx10BMb1sXMzNmwE9/Go97+3eLtgMkjtK+7D+cDRvg+OPhsditbMfVn5gx43lxujdAvFYACoW3oOHfuHe/O1vDH7QdIPGThWX/4UydWr8sUBr1LNaufYt3iB3FZgVg8MS/B4Hp3lkSYf/94Re/yO4+nFYCJA6y+Ml/R/398IIXwOrV3kmS4gnMnmHl8l+8g0CcVgCi6GNo+DfuvPOyO/yhvhJw7bU6J0D8ZH34Q/1n0Fk6ZasJ04APeocYEosVgFAozMPs9+hhP43Zc0+46y4NP4BFi+Ccc2BLIp6+KWkxtOyfhRP+xrJxIxxxRP2cAGlEjRAWWLW6xDtIPFYAoujTaPg37sQTNfyH6OoA6bYsne3fiClT6s/wkEZFmP2PdwiIQQEIxeI/EsL/8c6RKC9/uXeCeNF2gHSLlv2Hp59JzfqHUCye6h3CdQsgzJs3gQ0blgIHeeZIlJkz4Ve/qj/yV3am7QDpJC37j6y/v17E163zTpIky5k69VBbunSbVwDfFYAnnngTGv7NOfZYDf+RaDtAOkXL/qPL5+Hoo71TJM2BgzPQjVsBCDNnTsXsvV7vn1iHH+6dIN60HSDtpmX/xixY4J0gecz+Kxx00J5eb++3ArDHHu8G9nV7/6Q64gjvBPGnEiDtouHfOP1sasUMtm9/l9ebu5wDEA488O/o719G/ZpIadSkSXDvvRC5n7uZDLpZkIyHhn9zajU45BDYutU7SdJspr//GbZq1cpuv7HPJOnvvwgN/+aVShr+zdBKgLRKw795UQSzZ3unSKLJ5HLv83jjrk+TMGdOETin2++bCqWSd4LkUQmQZmn4t27OHO8EyWR2bpg79xndftvuf5wcGLgImND1902DAw7wTpBMeoCQNCqrD/ZpF/2MalWO/v6unxTf1QIQensPwkwPkW7V1KneCZJLlwjKWHSp3/jp+6t1ZqeHUumZ3XzL7q4A5HIXoVv+tm7yZO8EyabtABmJlv3bQ99b45EjhP/q5ht2rQAM7m/8U7feL5UmTvROkHzaDpBdadm/ffQhZbz+KfT2Prtbb9a9FYD+/g8BuoXdeOjymvbQdoAM0bJ/e23e7J0g6SLy+a5dEdCVAjC49/+qbrxXqumbq320HSBa9m8/3XNj/EJ4VSgUDu3GW3VnBSCXey/69D9+et52e2k7ILu07N8ZmzZ5J0iDCOjK3QE7XgDCgQfOBk7r9PtkwsMPeydIH20HZI+W/Ttn1SrvBOlgdloodf7GL51fAejvfze67r89+vq8E6STtgOyQ8v+nVUueydIix5C6PgqQEefBTB4z/8yoFND22Hy5PqzAMzlEQ7pp2cHpJuGf2fpWQDttpVaba6tWLG6U2/Q2RWA/v4L0PBvn82btQrQSTonIL205995y5Zp+LfXRHK5f+3kG3SsAIQDDtgDOL9Tx8+su+/2TpBuOicgfbTn3x362dR+IZwfZs7s2C1gO7cC0NNzNrBPx46fVb/+tXeC9NM5AemhZf/uUQHohL2ZPPnsTh28IwUg1C/5u6ATx868O++s77VJZ2k7IPm07N89/f1w113eKdLJ7O2hQ7fQ78wKQLF4CnBQR46ddY8+qqbdLdoOSC4t+3fXXXfB2rXeKdKqRKFwSicO3KktgLd36LgC8L3veSfIDm0HJI+W/btPP5M6y+wdHTlsuw8YisXDgN+2+7iyg732qjfuPfbwTpIdixbBOefAli3eSWQ0Q8v++uTfPRs3wlFHwfr13knSrVZbYCtWtPUksPavAITQ0csWBHj8cfjmN71TZIu2A+JPy/4+vvENDf9uMHtL2w/ZzoOFQuFpmK0E9NG00/bfH37xC8h35NwQGYluFhRPWvb30d8PL3gBrO7YvWrkKVvJ5wu2fPmj7Tpgu1cAzkPDvzsefhhuvtk7Rfbo6oD40dn+fm68UcO/eyYyMNDWSwLbtgIQIKJYXAbMadcxZQwzZsBPfwrTpnknyR6tBMSDPvn72bABXvSi+pVJ0i1VKpW5BgPtOFj7VgCKxRPQ8O+uNWvgc5/zTpFNujrAn4a/r0su0fDvvgKl0kntOlj7CoDZG9t2LGnctdfC0qXeKbJJ2wF+tOzv649/rJ8UK90XwrntOlRbtgBCqbQfIVSBnnYcT5pUKsEtt+jTqBdtB3SXPvn72rgRTj4ZHnrIO0lWDZDPz7Hly1eM90DtWQEI4Ww0/P2Uy/D+93unyC5tB3SPhr+/971Pw99Xjv7+N7TjQOMuAKG+inBWG7LIeHz723DNNd4pskvbAZ2nZX9/CxfCd77jnULg7NCG+T3+FYBC4UXovv/x8OEP14uA+NDNgjpHN/nx9/3vw8c+5p1C6uYMzt5xGX8BMOvYowqlSSHAhRfWbxAkPrQS0H765O/vF7+Ad7xDTyKNE7Nzxn2I8bw4HHzwNLZs+Qu6+U+8aJ/Un04MbA/9Xfa3eDGceSZs2uSdRHa2BbP9rVz+W6sHGN8KwNatr0TDP362bIFzz4U77/ROkl06MXD8NPz9afjH2SRCOHU8BxhfAQjh9eN6vXSOSoA/lYDWafj70/BPgnHN4Ja3AEJv7yxyuQqQG08A6TD9IPWn7YDm6O+sPw3/pAiYzbVyudzKi1tfAYii09Hwjz+tBPjTSkDjNPz9afgniRHC61p9cesFwKzlN5UuUwnwpxIwNg1/fxr+SXRaqy9sqQCEOXMOBp7T6puKA5UAfyoBI9Pw96fhn1SHhtmzn9XKC1tbARgY+KeWXie+VAL8qQTsTsPfn4Z/suVyr27lZa0VALPXtPQ68acS4E8l4Cka/v40/JMvhNe28rKmC8DgUsOhrbyZxIRKgD+VAA3/ONDwT4uDQ2/vs5t9UfMrAC0uNUjMqAT4y3IJ0PD3p+GfLi3M5uYLQAivbPo1Ek8qAf6yWAI0/P1p+KfRq5p9QVM3AgqzZx9IFC1r9k0k5vQD2V9Wbhakv2v+NPzTK4qeaX19DzT85U0e/JSmA0n8aSXAXxZWAjT8/Wn4p1ut9vJmvry5AmD2iqa+XpJDJcBfmkuAhr8/Df8saGpGN7wFEGbN2od8/i9AvulIkhz6Qe0vbdsB+jvlT8M/K2qYzbJy+S+NfHHjKwA9PSej4Z9+Wgnwl6aVAA1/fxr+WRIRwssa/+JGNXFQSTiVAH9pKAEa/v40/LPopEa/sKECEOqf/F/SchxJHpUAf0kuARr+/jT8s+rFYd68CY18YWMrALNnHwXsPZ5EkkAqAf6SWAI0/P1p+GfZNDZuPLqRL2ysAJidMK44klwqAf6SVAI0/P1p+Eut9n8b+bJGC8BLxxVGkk0lwF8SSoCGvz8Nf4GGP7SPeRlgKJX2I4TVjXytpJx+wPuL6yWC+rvhT8NfnhKo1XptxYrVo33R2CsAtdpL0PAX0EpAHMRxJUDD35+Gv+zMMBvzxP2xC4DZi9oSR9JBJcBfnEqAhr8/DX8Z3vFjfUEj5wCMeRDJGJUAf3EoARr+/jT8ZWQvHusLRi0AoVCYC5TalUZSRCXAn2cJ0PD3p+EvozGbHXp7DxrtS0ZfATDTp38ZmUqAP48SoOHvT8NfGhFFo27hj7UFoAIgo1MJ8NfNEqDh70/DXxo1xof40QtACC9oaxhJJ5UAf90oARr+/jT8pTkvHO0PRywAYfbsAzCb3f48kkoqAf46WQI0/P1p+Evz9g9z5xZG+sORVwCi6KiOxJH0Ugnw14kSoOHvT8NfWtXff+RIfzTaFsARHYgiaacS4K+dJUDD35+Gv4yH2YizfOQCEIIKgLRGJcBfO0qAhr8/DX8Zv+YKQIA8ZvM7l0dSTyXA33hKgIa/Pw1/aY/5Yd68CcP9wfArAMXic4AY3GdUEk0lwF8rJUDD35+Gv7TPJNavf+5wfzDSFsCIJw2INEUlwF8zJUDD35+Gv7Sb2bAzffgCMMpJAyJNUwnw10gJ0PD3p+EvnTDCTB++AISgFQBpL5UAf6OVAA1/fxr+0jnDznTb9TdCb+90crk1w/2ZyLhp0PhbvBjOOgs2bqz/Wv9N/Gn4S6dF0X7W1/fITr+12xflckei4S+dopUAfzuuBGj4+9Pwl24YGFiw628NtwVwWBeiSJapBPhbsAC+9KV6EdDw96PhL93zvF1/Y7gC8KwuBJGsUwnwd/jhcJTu+O1Gw1+6KYrm7fZbu32R2W5fJNIRKgGSVRr+0m0hjF4AAuQJ4RndSySZpxIgWaPhLz6evusdAXdeASgWnw5M7GYiEZUAyQwNf/HTw/r1O33A37kADLNEINIVKgGSdhr+4i2X22nG73oOgAqA+FEJkLTS8Jc42OVD/s4FYJizBEW6SiVA0kbDX+JjlAKgLQCJA5UASQsNf4mX4QtAmD+/B3h61+OIDEclQJJOw1/i56DQ2zt56BdPrQA8+ujBQI9HIpFhqQRIUmn4Szzl6Ol58kqApwrALmcHisSCSoAkjYa/xFmt9uSsj3b4zYNdwoiMRSVAkkLDX+LvmUP/8lQBMCs5BBFpjEqAxJ2GvySBWXHoX3e8CqDgEEWkcSoBElca/pIUITw563csAMVhvlQkXlQCJG40/CVZdl4BCGBAr1sckWaoBEhcaPhL8vQGyMHQCkCxuB8wyTORSFNUAsSbhr8kUw+zZu0PQwXATPv/kjwqAeJFw1+SLJ8vwFABqNW0/y/JpBIg3abhL0k3eCVAtOMvRBJJJUC6RcNf0mGHAqBLACXpVAKk0zT8JS0GLwXUCoCkh0qAdIqGv6TLDisAIagASDqoBEi7afhL+uy0BaB7AEh6qARIu2j4SzrNBrAAOYrFbex8V0CR5Js0CRYuhGOP9U4i3MrOvwAAIABJREFUSaThL2k2derEiAMOeBoa/pJGWgmQVmn4S9pt2vS0iIkT9/HOIdIxKgHSLA1/yYKBgX0iarXp3jlEOkolQBql4S/ZMT0CVAAk/VQCZCwa/pIlIUyPCEFbAJINKgEyEg1/yZpcbp+IKNIKgGSHSoDsSsNfsmhwBUAFQLJFJUCGaPhLdukcAMkolQDR8JcsC0EFQDJMJSC7NPwl66JIJwFKxqkEZI+GvwiEsE9EFD3NO4eIK5WA7NDwFxkyPSKEyd4pRNypBKSfhr/IjqZEwATvFCKxoBKQXhr+IjsLYXIETPTOIRIbKgHpo+EvsjuzPbQCILIrlYD00PAXGcnkCOjxTiESOyoByafhLzKayVoBEBmJSkByafiLjMV0DoDIaFQCkkfDX6Qh2gIQGYtKQHJo+Is0LBr8R0RGoxIQfxr+Ik3R8BdplEpAfGn4izRNBUCkGSoB8aPhL9ISFQCRZg2VgF/+0juJLFmi4S/SIhUAEUmuEMDMO4VIIqkAiDRr0iRYuBCOPto7iTz/+XDttTBlincSkcRRARBpxtDwP/ZY7yQyZMEClQCRFqgAiDRKwz++VAJEmhYBNe8QIrGn4R9/KgEiTYmA7d4hRGJNwz85VAJEGhYBW71DiMSWhn/yqASINCQCtnmHEIklDf/kUgkQGUvQFoDIcDT8k08lQGQ0m7UCILIrDf/0UAkQGclmnQMgsiMN//RRCRDZXQibtAIgMkTDP71UAkR2ZrY5wmyzdw4Rdxr+6acSILKjjRG12jrvFCKuNPyzQyVAZMjaCDMVAMkuDf/sUQkQAbN1EbDWO4eICw3/7FIJkKwLQSsAklEa/qISINm2TucASPZo+MsQlQDJrnURoAIg2aHhL7tSCZAsMlunLQDJDg1/GYlKgGTNwMC6CDOdBCjpp+EvY1mwAK68sv53RSTtzNZGRJFWACTdNPylUcccA9ddp5UAST+zdRFbtqgASHpp+EuztB0gWRBF6yxAjmJxGxB55xFpKw1/GY/Fi+Gss2DjRu8kIu03derEyGAA+Jt3FpG20vCX8dJKgKTXelu6dNvQp/6VrlFE2knDX9pFJUDSaQUMLfubVVyjiLSLhr+0m0qApE8FhgpACCoAknwa/tIpKgGSLjsUAKg6BhEZPw1/6TSVAEkLsypoBUDSQMNfukUlQNJhhxWAKNIKgCSThr90m0qAJF2tphUASTgNf/GiEiBJNjBQATCAAEaxuAnQTbAlGTT8JQ50syBJnu1UKpMNBiIAg4DuBSBJoeEvcaGVAEmelYM3ANzp9r86D0DiT8Nf4kYlQJLlyVm/YwHQeQASbxr+ElcqAZIUO9z476kCoBMBJc40/CXuVAIkCUIYZgUgih5wCSMyFg1/SQqVAIm/+4f+5akCMDDwJ5coIqPR8JekUQmQOIuiJ2f9UwXg7/7uAWC7Rx6RYWn4S1KpBEg8DbB9+5+HfvFkAbAlS7YDy1wiiexKw1+STiVA4me5rVy5eegX0S5/uLTLYUR2p+EvaaESIPGy04zfuQCYqQCILw1/SRuVAImPnc7127kA1Go6EVD8aPhLWqkESBzs8iFfKwASDxr+knYqAeJtYGCUAlCpPAhs7WYeEQ1/yQyVAPHTz8SJD+74GzsVAIN+YKcvEOkoDX/JGpUA8fGgLVu20wf8Xa8CgF1OEhDpGA1/ySqVAOk2s91m+3AFQOcBSOdp+Pv7zW/grru8U2SXSoB01727/sZwBeC3XQgiWabh72/xYjjjDDjrLLjzTu802aUSIN1Sqy3Z9bd2LwADA78CQjfySAZp+PtbvBjOPBM2bYItW+Dcc1UCPKkESDfkcot3/a3dCoCtXLkOnQgonaDh72/H4T9EJcCfSoB01nLr63tk198cbgsAzH7V8TiSLRr+/oYb/kNUAvypBEjnDDvThy8AIdzd0SiSLRr+/kYb/kNUAvypBEgnjDDThy8AI7QFkaZp+PtrZPgPUQnwpxIg7RZCEysAlcofgI2dzCMZoOHvr5nhP0QlwJ9KgLTPFvbc857h/mDYAmDQTwi7XTIg0jANf3+tDP8hKgH+VAKkPZbY0qXbhvuDkbYAIIq0DSCt0fD3N57hP0QlwJ9KgIzfiLN85AKgEwGlFRr+/tox/IeoBPhTCZDxGGWWj1wAQPcIleZo+Ptr5/AfohLgTyVAWtXTM+IKgI32ulAsVoBC2wNJ+mj4++vE8N+R/hv7W7y4fvvmjTpHWxqy2iqVWSP94WgrAAA/b3MYSSMNBn+dHv6glYA40EqANOeO0f5w9AIQwo/bGkXSR8PfXzeG/xCVAH8qAdIos1Fn+OgFIIr+H3owkIxEw99fN4f/EJUAfyoB0ohc7vbR/njUAmDl8l8Y5hnCIhr+MeAx/IeoBPhTCZDR3W/Ll68Y7QvGOgdA2wCyOw1/f57Df4hKgD+VABnZmLN77AIwxh6CZIyGv784DP8hKgH+VAJkOA18eB+7AGzf/jNgaxviSNJp+PuL0/AfohLgTyVAdtbPhAmjXgEADRQAW716E7opkEyaBFdfreHvadEiOOOMeA3/ISoB/lQCZIjZXbZs2fqxvmzsFYA6bQNk2dAn/2OO8U6SXYsXw3nn1QdtXKkE+FMJEGj43L3GCkCtpgKQVVr29xfHZf+RqAT4UwmQBs/dG/VWwEMC5CgWHwWmjyuUJIuGv78kDf8d6e+OP902OKv+RqUy06B/rC9saAXAYACzn4w/lySGfoD7S+rwB60ExIFWArLqp40Mf2j8HACAW1sMI0mj4e8vycN/iEqAP5WALLql0S9svABs3/59GmwVkmAa/v7SMPyHqAT4UwnIkhpm7S8AtmrVWsx0OWCaafj7S9PwH6IS4E8lICvuGryFf0Oa2QKAEL7bdBxJBg1/f2kc/kNUAvypBGRBUzO6uQJQq93c1NdLMmj4+0vz8B+iEuBPJSDdcrnOFQBbsWI5sLSpQBJvGv7+sjD8h6gE+FMJSKv77KGH/tzMC5pbAQAw+3bTr5F40vD3l6XhP0QlwJ9KQBrd2OwLmi8A8I0WXiNxo+HvL4vDf4hKgD+VgHQZGPhWsy9pugBYuXw/2gZINg1/f1ke/kNUAvypBKTFA7Zy5R+bfVErKwAQQtNNQ2JCw9+fhv9TVAL8qQQkn9n1rbystQKQy7X0ZuJMw9+fhv/uVAL8qQQkW63W0ofylgqA9fU9gFnTyw3iSMPfn4b/yFQC/KkEJNV9Vq22tC3f2gpA3dfH8VrpJg1/fxr+Y1MJ8KcSkERfbfWFrReA/v6vAAMtv166Q8Pfn4Z/41QC/KkEJElgHFfmtVwAbOXKVcDPW329dIGGvz8N/+apBPhTCUiKn1ul0tfqi8ezBQBmXxnX66VzNPz9afi3TiXAn0pAEoxrBo+vAOTz3wb00y1uNPz9afiPn0qAP5WAONsy3jvzjqsA2LJl62ny6UPSYT09cNVVGv6eFi2CM87Q8G+HoRKwaJF3kuxasAAuv7z+s0XiI4TvWrn8t/EcYnwrAPUQ14z7GNIeZvCJT8Bxx3knya7Fi+G88+qDS9pjyxY45xytBHg67jj49KchGv/IkLa5erwHGP9/zWr1J8CycR9Hxu8DH4BTT/VOkV365N85Wgnwd9JJ8L73eaeQuvLg7B2XcRcAq1+G8KXxHkfG6dWvru85iw998u88rQT4O/tsfciIh2sMauM9iLUjSSiV9iOEFUC+HceTJpVKcMstOlHHi0746y6d5Opr0yY4+WRYvtw7SVbVyOXm2EMPVcd7oLZs6Fi5/BfMbmvHsaRJPT1w2WUa/l607N992g7wtccecOmlkNfnPSc/bMfwhzYVAABqtavadixp3DnnwCGHeKfIJi37+9F2gK9587Tl6MWsbbO2LVsAAAEiisVlwJx2HVPGMHMm/PSnMHWqd5Ls0bJ/PGg7wM/GjXD88fDoo95JsqRKpTLX2nQb/ratABjUCOHydh1PGnDhhRr+HrTsHx/aDvAzZQq8853eKbLF7PJ2DX9o4woAQCgUnobZSmCPdh5XhjF7dv3Tv/bhukuf/ONJKwE++vvhhS+EVau8k2TBVvL5gi1f3rYll7be1cGq1b8Swg3tPKaM4NxzNfy7TcM/vnTbYB/5fP1cDOm8EK5v5/CHNhcAAMwubfsxZWd77VW/7l+6R8v+8aftAB+vfS3suad3ivQL4QvtPmTbC4BVKr8Dftnu48oOXvay+qU40h062z85dHVA902ZAiec4J0i7X5lK1b8ut0H7dSNnS/p0HEF4BWv8E6QHVr2Tx5tB3TfySd7J0i3ED7VicO29STAIQFyFIsPAAd24viZtu++cNddeihHNyxaVP80qU/+yTRpElx9NRxzjHeS9BsYqD81cO1a7yRpVKZSebpBf7sP3JEpYjBACJ/txLEz79hjNfy7Qcv+yaftgO7J5eDoo71TpFMIn+7E8IfObQFAf//VgOpgux1+uHeC9NOyf3poO6B7jjjCO0EarWfChC916uAdKwC2evUmQriyU8fPrAULvBOkm872Tx9dHdAdKgDtZ3a5LVu2vlOH7+xaci73WWBzR98jSyZPhjm603LHaNk/vbQd0HkHHlg/70LaZSsDAx3dSu9oAbC+vkeAazr5HplSLIJ15LxN0bJ/+mk7oLOiqH6HUmmXa2zFitWdfIPOn02Wz38C2Nbx98kCffrvDA3/7FAJ6KxSyTtBWmwHPtnpN+l4AbDly1cQwtc7/T6ZsP/+3gnSR3v+2aNzAjpn1izvBOkQwtetUunr9Nt053qyWu2jtPEJRpmlJ/+1l/b8s0vnBHSG7lDaDjW68OkfulQAbOXKZYRwYzfeK9UmT/ZOkB5a9hdtB7TflCneCZLP7EarVpd24626eUeZD1FvNtKqiRO9E6SDlv1liLYD2ksfUsarRn//R7r1Zl0rAFat3gtc3633S6WtW70TJJ+W/WVX2g5on8266nucrreVK//YrTfr7j1lBwYuokO3NMwEfWIdHy37y0i0HdAeGzd6J0iyAcw+3M037GoBsJUrHySEr3XzPVNF31yt07K/jEXbAeOnn1GtM/ualcv3d/Mtu/9UmSi6CN0XoDWrO3pPiPTSsr80StsB46OfUa0awOxj3X7TrhcAK5fLhKC7A7aiXPZOkDxa9pdmaTugdX0dv3Q9ra6xvr4Huv2mPs+V7en5APCEy3snWbkMNV1I0TANf2mVSkDzajVYscI7RRJtpr//Qx5v7FIAbPnyR4HPeLx3om3ZAg895J0iGTT8ZbxUAprz5z/rSqXWfMpWrVrp8cY+KwAAmzZdDDzi9v5JtXixd4L40/CXdlEJaNzdd3snSKI19PR05a5/w3ErAPbYYxsI4aNe759YKgCj0/CXdlMJaIx+NjUvhA/bsmXrvd7ebwUAYNq0K4DlrhmS5s47YUCPVRiWLvWTTtElgqPr74e77vJOkTQPMW3a5Z4BXAuALV26DXiXZ4bEWbNG32jD0aV+0mm6RHBkd94J69Z5p0iadw7OQDe+KwCAVSrfwezH3jkS5Xvf804QL1r2l27RdsDwvv997wRJ8zOrVL7jHcK9AABQq70d3SK4cbfdpjtuDdGyv3SbtgN2tmED/OhH3imSpEYI7/QOATEpAFatLiWEq71zJMYTT8A3vuGdwp+W/cWLtgOe8rWv1UuANMZsoVWrS7xjAJh3gCGht3c6udyDwHTvLImw//7w859DT493Eh9a9pc4mDQJFi6EY4/1TuKjvx+OOw4eftg7SVI8gdkzrFz+i3cQiMkKAICtXLmOEFzuhpRIDz8MN97oncKHlv0lLrK+HXD99Rr+zbkoLsMfYrQCABAgR7H4G+DvvbMkwj77wE9/Cnvu6Z2ke/TJX+IoiysBjz8Oxx+vs/8b9ydmzHieLVmy3TvIkNisAAAYDBBF5wO64X0j1q6Fz2Tojsoa/hJXWbw64JJLNPwbFzB7a5yGP8SsAABYX99i4EveORLjuuvgnnu8U3Selv0l7rK0HfD739dP/pNGXWvl8h3eIXYVqy2AIWHWrH3I5+8HZnhnSYRCAW65BaZN807SGfrkL0mS9u2AJ56AE0/Uk/8a91d6eg62Zcse8w6yq9itAADYqlVrCeG93jkSo1qFCy/0TtEZGv6SNGnfDvjP/9Twb0YIF8Zx+ENMCwAA1epC4CfeMRLjllvgssu8U7SXhr8kVVpLwOc/rzuRNiOEn1OtXuUdYySxLQAGgYGBNwObvbMkxsUXww03eKdoDw1/Sbq0lYCbb4ZPfco7RZJsxexNBsE7yEhiWwAAbOXKBzH7sHeOxAgB3vteuP127yTj84tf6IQ/SYehEvCLX3gnGZ/bb4d3vrP+M0Ya9WGrVO7zDjGaWBcAAMrlTwK/9Y6RGP39cP759Rt0JNFtt9V/YOr2vpIWW7bA2Wcnd+n829+GN72p/rNFGmP2R2bMuNg7xlhy3gHG8kGoXbTXXkswO5skFJY4CAF+8hOYOBEOP9w7TeMWLqyfzKgfNJI2tVr9gTnTpsFhh3mnadwXvwgXXVTPL40aIIpeYffeG/szJWNfAAA++PjjD1+0996TgOO8syTKokVw//31e3VPmuSdZmQbN8J73gNXXumdRKRzQoA77oAHH4QXvKBe0ONqw4b6kv8113gnSR6zT1q5/GXvGI2I5X0AhhPmzZvAhg2/Bp7jnSVxZs2CSy+F+fO9k+zuT3+Ct74VymXvJCLd09sLn/tcPFcD7rkH/vVfoVLxTpJE92H2PCuXE7GHmZgCABDmzHkutdpiYIJ3lsTJ5+E1r6m3+ukxeODixo1w1VXwhS/A9ljdHVOkO/L5+smub397PG7itX59/dbi112nbbjW9FOrHW0rVvzaO0ijElUAAEKx+F+AnhrYqunT6yXg1a/2eZRwf3/9KYb/8z+wZk33318kbmbOhHe9C049tV4Kum379vrlw5/6lO7tPx4hfMCq1UTNpuQVAMhTKCzCbIF3lkSbMQNOP71+dnI3nia4cWP9h8xVV8Hq1Z1/P5GkmTkTTjsNzjmnOysCQ9+TV16pR/qO3++YMeOIuD3sZyyJKwAAoVg8BPgNsId3lsSbOhVe+lJ4+cvh6KPb+wlkYAB++cv65U8/+lF9iVFERrfnnk99Tx51FOTaeK52f3/95OCh78kNG9p37OzaTAjPt2r1Xu8gzUpkAQAIpdKbCCFl9751Nn16vQQsWABHHgkHHQRRE1de1mqwbFn9Ln53310f/mvXdi6vSNrtsw8ccwwccUT9+/LAA5v/nnzwwfr34+LF9e9JLfO3l9m/WLmcyFmU2AIAEEqlGwjh1d45UmvCBCgWoVSCAw6APfaofzrp6anvG65fD5s315f0y+X6P9u2OYcWSbGJE3f+npw8effvyU2b6t+TfX31B4Xpe7KTbqNSeVmcb/c7mmQXgELhacA9mM32ziIiIpnyKFH0HOvre8Q7SKsSfWc9q1b/ShS9HtBtqkREpFsCcFaShz8kvAAAWLl8B2af9M4hIiKZcYlVKrd6hxivRG8BDAmQp1j8KXCsdxYREUmxEBYzbdpxtnRp4k+uSPwKAIBBP/39/wzozjIiItIpfyWKXpuG4Q8pKQAAtmrVSuAMdD6AiIi0X8DsLCun58ElqSkAAFap3EYIn/DOISIiKRPCJ6xc/q53jHZKxTkAOxo8H+B24IXeWUREJAVC+DnV6osNUvWUpFStAMDg+QD5/GuAld5ZREQk8R4mhH9O2/CHFBYAAFu+/FHg5cBm7ywiIpJY2wnhNbZiRSqfYJbKAgBglcrvCOF87xwiIpJQIbzFqtU7vWN0SmoLAIBVq18hhMu9c4iISMKYXWfV6lXeMTop1QUAgGnTLgB+6R1DREQS427y+Td6h+i01F0FMJxwwAEz6Om5G5jrnUVERGJtNQMDC2zlylXeQTot/SsAgK1evYYQTgYe984iIiKxtZla7ZQsDH/ISAEAsGr1XuCfgQHvLCIiEjs1zF5nK1b82jtIt2SmAMCTdwp8r3cOERGJmRDea+Xyzd4xuikT5wDsKhSL1wBneecQEZEYCOHLVq2e6R2j2zK1AvCkGTPOJ4QfeccQERF3P2PChEzeMyaTKwAA4eCDp7Flyx3AYd5ZRETExVLMjrVy+W/eQTxktgAAhGJxf+AuoOidRUREumo1+fyRtnz5Cu8gXrK5BTDIKpWHCeFE4K/eWUREpGvWE0UnZnn4Q8YLAAxeHmh2KrDFO4uIiHTcVuAfra/vHu8g3jJfAACsXP4ZtdprSeHjHkVE5EkDhPB6q1T+1ztIHKgADLIVK75HCGcBNe8sIiLSdoEQ3mzV6re8g8SFCsAOrFr9KnCBdw4REWmzEC5M+9P9mqUCsAurVD4PfNQ7h4iItEkIH7dq9WLvGHGT6csARxOKxc8Db/HOISIi4xDCFVSrbzYI3lHiRgVgBAGMQuGLmL3JO4uIiLQghC9TrZ5tOrdrWCoAowhgFItXAOd5ZxERkSaYfYty+XWmq7tGpAIwhgA5isUvAad7ZxERkYbcRKXyWg3/0ekkwDEYDFCpnAlc751FRETGdBs9Pfrk3wAVgAYYDDBjxhnAjd5ZRERkBCF8l6lTT7Fly7Z6R0kCbQE0IUCOUukaQjjDO4uIiOzA7Fvss89ptmTJdu8oSaEC0KTBcwKuAs7yziIiIgBcT6Xyei37N0dbAE0aPCfgHOAL3llERISva/i3RgWgBQaBSuVtqASIiPgJ4QoN/9apALTIIFil8lZCuNA7i4hI5phdOniHP93kp0U6B6ANQqHwNsw+gwqViEinBUL4D6tWP+EdJOlUANokFAqnY3YtkPfOIiKSUgODj/TVU/3aQAWgjUKhcDJm3wQme2cREUmZbYTweqtWb/AOkhYqAG0WSqV/IITvAHt7ZxERSYnHCeGVVq3+xDtImqgAdEAoFA7F7Fag6J1FRCThVmP2MiuXf+8dJG100loHWLV6L3AU8FvvLCIiCfYn8vkjNfw7QysAHRRmzpzKHnvcAJzgnUVEJGH+l1zuVHvooce9g6SVVgA6yB57bAMzZrwCuNY7i4hIYoTwZaZOPUHDv7O0AtAloVC4ALNLUOkSERlJwOxDVi5f5B0kC1QAuigUiycA1wN7emcREYmZjcDrrVL5jneQrFAB6LLQ2/tscrnvASXvLCIiMbGaEF5u1eoS7yBZouXoLrOVK/9IFB0J3OWdRUQkBu4Gnq/h331aAXASIE+p9BFCeI93FhERJ19hYOB8W7lys3eQLFIBcBYKhddjdgW6fbCIZMdWQniPVauf9Q6SZSoAMRCKxecBN6E7B4pI+q0GXmWVirZBnekcgBiwSuW3RNERwB3eWUREOiaEn2M2X8M/HlQAYsL6+h6hUnkxZh8Eat55RETaKGB2KTNnvsTK5b94h5E6bQHEUCgUXozZ14B9vbOIiIzTWuANVqnc4h1EdqYCEFNh1qxe8vnrgWO8s4iItOg3wGusUunzDiK70xZATNmqVSuZMeN44H+A4J1HRKQJAfgUM2YcreEfX1oBSIDBLYEvA7O8s4iIjOFR4CyrVG71DiKjUwFIiHDAATPI5xdi9grvLCIiwwrhR0TRmTrRLxlUABImFApnYPZFYIp3FhGRQVsI4UKq1UtNW5aJoQKQQKFYPAS4Dni+dxYRybwlhHCGVav3egeR5ugkwASySuU+KpWjCOFCYJt3HhHJpH7MPsHUqUdr+CeTVgASbvDxwl8GDvPOIiKZcS+12htsxYrfeAeR1mkFIOFs5co/0tNzFCF8HBjwziMiqTaA2cX09DxPwz/5tAKQIqFU+ntCuAqdGyAi7Wb2R+A8K5fv9o4i7aECkDIB8hQKb8Hso+hKAREZv+2YXcKUKe+3pUt1zlGKqACkVJg9+0Ci6Argxd5ZRCSxFgHnWaVyn3cQaT8VgBQLYBQK52L2cWC6dx4RSYx1hPAfVKtX6br+9NJJgClmEKxavYqBgadjdil6zLCIjC4AXyGfP8Sq1Ss1/NNNKwAZEmbPfj653BcJ4XDvLCISO38ghLdYtXqndxDpDhWAjAmQp1R6KyFcBOzlnUdE3K3H7CLK5c8Z9HuHke5RAcioMGvWPvT0vJ8Q3gLkvPOISNfVgK8RRe+yvr5HvMNI96kAZNzgcwUuAV7qnUVEuuZnmL3dyuXfewcRPyoAAkAoFk8FLgYO9M4iIh3zEPBuq1S+7R1E/OkqAAHAKpWbmDHjEEI4H9ByoEi6rCWECzGbp+EvQ7QCILsJ++47hYkT34rZfwLTvPOISMs2YfY5oui/7aGHHvcOI/GiAiAjCsXi/oTwAczOBnq884hIw/qBa6nVLrIVK1Z7h5F4UgGQMYU5c4qE8F5COBvIe+cRkRHVMPs2UfQ+e+ihP3uHkXhTAZCGhWJxDmYXEsI56NJBkTipD354v5XL93uHkWRQAZCmhULhUKLoA4TwKnQiqYinGmY3Uqt9yKrVpd5hJFlUAKRloVCYSxRdMHjlwETvPCIZUv/EH8IH9KQ+aZUKgIzb4DkC7yCE84DJ3nlEUmwb8E0GBj5sK1c+6B1Gkk0FQNomlEr7Af82uCKwt3cekRT5G2ZXEsJnrFJ52DuMpIMKgLRdmDlzKpMnvw6zdwAHe+cRSbAyIVxOFF1h5fLfvMNIuqgASMcEyFEo/CNm/w4c6Z1HJEHuJoRPUa3eZDDgHUbSSQVAuiIUCvOJojcSwunAHt55RGJoG2bfpVa70qrV273DSPqpAEhXhVJpb2q1N2D2b0DJO49IDDyM2ZXk81+wZcse8w4j2aECIC4C5CiVThq8cuCl6MZCki0DwI+AhVQq39Myv3hQARB3YfbsAzB7PWbnoccRS7qtwuyrwOVWLpe9w0i2qQBIbASIKBRePPjwoVegewpIOmwGvksI11Ct/sSg5h1IBFQAJKbCQQftybZtp2D2auAEtEUgybOEEL7CwMBXbdWqtd5hRHalAiCxF+ab7dOyAAACnUlEQVTOLTAwcDpwGnCodx6RUdwHfI0o+qr19VW8w4iMRgVAEiUUCvOIolcTwmuAQ7zziAB9mH2fWu1bVq3e6R1GpFEqAJJYobf32eRyrwFeicqAdNd9wLeJom9ZX98fvMOItEIFQFIhFItzCOHlmJ0E/AOQd44k6VIDfofZD6jVbrBq9V7vQCLjpQIgqRMOPPDv6O8/GTgJeDEwzTmSJNPjwP8Ct5LPf8+WL3/UO5BIO6kASKoNPo/g74mikwnhJOB56O+9DG8A+D1mt1Or3c60aT+3pUu3eYcS6RT9IJRMGbzp0EuAFwEvwmy2dyZxdT/wY0L4MZMn/8weeOAJ70Ai3aICIJkWensPIoqGysBxwAHemaSjVgN3YPZjcrnbbfnyFd6BRLyoAIjsYHCFYD5RNJ8QjgGOQXckTKrtwB8wW0SttgRYYtXqUu9QInGhAiAyigB5CoWDgWMwOxaYT/2SQ33vxM/D1O++dyewiCj6jZXLW7xDicSVfoiJNCkcdNBMtm07EngeUTSPEOYBTwd6nKNlRT/wILAUs6XUakvo6blbZ+mLNEcFQKQNwvz5PTz22GxgHnAoZvOorxYcjJ5jMB71T/X1QX8vsJRa7V5buXKzdzCRpFMBEOmgcNBBE9m+/VDq2wbPxKxICEWgAPSiVYPtwCpCqGJWAcrAA8C9mN2nJXyRzlEBEHESIMesWfuTyxUxK2JWoFar/y8UgdnAns4xx2s9sAKoEEKVKKoSQoUQKgwMVFi16mGrX38vIl2mAiASY2H+/B7Wrt2HWm06MJ0QppPL1f8X9iGE6UTRdELYB3gasDf1LYc9gQnAlHFG2Ahsoz7IB4C/AX/DbC212lrM1gHrMFvLwMC6J38dReuYMmWdbqQjEl//H0d2QrwLXZo/AAAAAElFTkSuQmCC;" vertex="1" parent="1">
          <mxGeometry x="81" y="850" width="20" height="20" as="geometry" />
        </mxCell>
        <mxCell id="mUVZ_eBPIsCB5TYUY8Db-23" value="&lt;font style=&quot;font-size: 14px;&quot;&gt;条件　を満たしていません&lt;/font&gt;" style="text;html=1;strokeColor=none;fillColor=none;align=left;verticalAlign=middle;whiteSpace=wrap;rounded=0;" vertex="1" parent="1">
          <mxGeometry x="110" y="845" width="220" height="30" as="geometry" />
        </mxCell>
        <mxCell id="mUVZ_eBPIsCB5TYUY8Db-24" value="&lt;span style=&quot;font-size: 18px;&quot;&gt;パスワード&lt;/span&gt;" style="text;html=1;strokeColor=none;fillColor=none;align=center;verticalAlign=middle;whiteSpace=wrap;rounded=0;" vertex="1" parent="1">
          <mxGeometry x="80" y="920" width="100" height="30" as="geometry" />
        </mxCell>
        <mxCell id="mUVZ_eBPIsCB5TYUY8Db-25" value="" style="rounded=1;whiteSpace=wrap;html=1;" vertex="1" parent="1">
          <mxGeometry x="80" y="950" width="600" height="30" as="geometry" />
        </mxCell>
        <mxCell id="mUVZ_eBPIsCB5TYUY8Db-26" value="&lt;font style=&quot;font-size: 14px;&quot;&gt;条件　を満たしています&lt;/font&gt;" style="text;html=1;strokeColor=none;fillColor=none;align=left;verticalAlign=middle;whiteSpace=wrap;rounded=0;" vertex="1" parent="1">
          <mxGeometry x="110" y="1010" width="220" height="30" as="geometry" />
        </mxCell>
        <mxCell id="mUVZ_eBPIsCB5TYUY8Db-27" value="" style="shape=image;verticalLabelPosition=bottom;labelBackgroundColor=default;verticalAlign=top;aspect=fixed;imageAspect=0;image=data:image/png,iVBORw0KGgoAAAANSUhEUgAAAgAAAAIACAYAAAD0eNT6AAAABHNCSVQICAgIfAhkiAAAAAlwSFlzAAAOxAAADsQBlSsOGwAAABl0RVh0U29mdHdhcmUAd3d3Lmlua3NjYXBlLm9yZ5vuPBoAACAASURBVHic7N13fJX1/f//x3UyCDtsGSJuBGQFXGXICBsBi4gDR+us1tmW9tv+PtraodW6ah21rYKjigukjCRIZDhDwhQQFwjKTghkkHHO9fsjoKKMjHPO67rOed5vt97aG8m5rkdReL9yXedcbwcR8bZlJJFPK6A10BqHVEKk4tAMl1QcUoGmQENcGgANcUg+8GuJB/77uxoBSd/7tQqg6Hu/tgcIAoW4lAPFOJQAxbjswWEPsOfA/y7AZQ8uOwiwkyR2MIjKcP42iEh4OdYBInFtLq1IogMux+PQEZcOOHTApT1VC36rA//xo53AjgP/vQX4CocthNiEw2aS2MIgdtkmisQvDQAikTSDBJrSETgFh5O/+W+XU4CTgfq2geZKgU9x+IwQn+LwKQE+o4JP+YAvuZuQdaBIrNIAIBIumbQjQBdCdMWhCy5dgZ5AQ+s0nyoHPgU+wmUtDh8RYi17Wc8kgtZxIn6nAUCkppaRxC5OI4E0XNKANKAX0MC4LF5UAJ8AuUAuDrnsJ4+xlBh3ifiKBgCRo5lBAs3ogsvZwDnAWcAZVL25Tryj8sBVgg9xeR/4gPdYq1sIIkemAUDku+bShET6AT/C4VygDy6NrbOkVvYCOQcGgnfYz1LGsc86SsQrNABIfJtFYxpyNiGGAv2o+gn/+x+Rk9gQBD7GYSkuC0giW59CkHimAUDiy7vUZx/9CJCOSzrQA/05iFchYCWQRYAsEljKIPZbR4lEi/7ik9g3nx4EGI5LOg79gBTrJPGkUmAJDllABumstg4SiSQNABJ7skkhSD9CjAXGAx2tk8SXNuGQQYj/kUyWrg5IrNEAILFhAS0IMg64AIeh6LP3El7FQCbwJiHeZAT51kEidaUBQPwrm5ZUMgq4CJfh6M17Eh1B4H3gFULMYARbrYNEakMDgPjLAtrgMgmXScB5QMA6SeJaEHgHmEElMxjFTusgkerSACDe9y71KWIMDlfoJ33xsKorAy7T2c9/9cwB8ToNAOJN2SRSzggcpgBj0aY54i8lwJs4PE8B87V3gXiRBgDxlnmcToBLcLgavXtfYsNW4BUC/JuhrLKOETlIA4DYm0VjGjCZEFcfePyuSKx6B5dnSOZlBlFkHSPxTQOA2MmgMw5XAdcBzYxrRKLHYR/wX4I8zghWWudIfNIAINE1g2RSGYfLdQc+ry8S73Jx+SeNeY7zKLWOkfihAUCiI5N2uPwMh+uAVtY5Ih60A4d/HrgqoGcLSMRpAJDImk9vErgelyvQM/hFqqMcmEWAhxjKe9YxErs0AEj43U2Ac7kQh9upeliPiNTOUhwe4h1mcjch6xiJLRoAJHxmkEwzJuPyG6CzdY5IDPkceJQkntKmRBIuGgCk7mbRmPr8BPgl0N46RySGbcflSZJ5mEHssY4Rf9MAILU3n+YkcDsuPweaWueIxJE9wKOU8zBjKLCOEX/SACA1V7X17s9xuBVItc4RiWNFwD8I8VdtUSw1pQFAqi+blpRzMw63oZ/4RbykCPgPAf7MULZbx4g/aACQY8umERXcBPwGLfwiXlZ1RcDhL6RTaB0j3qYBQI5sBsk05Soc/gC0sc4RkWrbDdxPEo/oUwNyJBoA5IeySaSSq3H5P6CDdY6I1NqXuPyeQqZpS2L5Pg0AcqgFDCXEg8CZ1ikiEjbrcbmD4cyzDhHv0AAgVRbQhRD3A6OsU0QkQhz+R4DbGMJn1iliTwNAvHuL9gT5I3AFELDOEZGIKwMeoZI/MYq91jFiRwNAvFpGEvn8DId7cGlsnSMiUbcbuIc9PKb3B8QnDQDxKJMhwKNAF+sUETG3HJfbGM5i6xCJLg0A8eQtTibIX4CLrFNExGMc/keIWxjOF9YpEh0aAOJB1eX+XwL/H5BinSMinlUK3E0SDzKISusYiSwNALEuk57Av4A06xQR8QmXVSRwDUPJsU6RyNEAEKvepT5F3AX8AkiwzhER36kEHsfl/zGcYusYCT8NALEogwE4PA2cZp0iIr73OQGuZygLrEMkvDQAxJJsUqnkPlyuRf9sRSS8XiHAjQxlt3WIhIcWiViRwVgcngDaW6eISMzajsOvSGe6dYjUnQYAv3uL9oR4Epcx1ikiEidcZuFyIyPYap0itacBwM8ymQA8DbSwThGRuLMHlxsZzkvWIVI7GgD8qOod/vcCt1iniEjce44kfsYgiqxDpGY0APhNJn2AF9A7/EXEO74gwGUM5T3rEKk+DQB+4eKQxS3AX4Fk6xwRke+pxOVPFHKPNhfyBw0AfpBFR1ymAwOtU0REjsrlPeAy7Sngfdr/3esymIjLcrT4i4gfOJyLw3IyuMw6RY5OVwC8ai5NSOQxYIp1iohILT1LEj/XGwS9SQOAF83jdBJ4HehinSIiUkcbCHEhI/jIOkQOpVsAXpPJBSTwAVr8RSQ2nEYC75HBROsQOZSuAHjFDBJI5U/Ar9A/FxGJPS7wd5K4k0FUWseIFhpvyKYlFbwIpFuniIhE2CICXMxQtluHxDsNANbm05sArwGdrFNERKJkCy4TGc4H1iHxTO8BsJTFFQRYihZ/EYkvHXBYRBbXWofEM10BsDCXeiTwdxz9yy8ice85GnE951FqHRJvNABEWybtgJlAX+sUERGP+IAkxjOIbdYh8UQDQDRl0A2HOUBH6xQREY/5ChjDMFZYh8QLvQcgWhYwFIelaPEXETmc9jgsJoOR1iHxQgNANGRxNSHmAk2tU0REPMulMQ5vksn11inxQANAJLk4ZHA3Lv8BkqxzRER8IBF4kkwewdVt6kjSb26kzKUeSfwbVztiiYjU0iskcQWD2G8dEos0AETCfJoT4HW0ha+ISF29SxLjGMQu65BYowEg3BZwEiHmAJ2tU0REYsSnwCiG8Yl1SCzRewDCaT5nEeJ9tPiLiITTKcASMkizDoklGgDCJYvzCZAFtLJOERGJQW1weJv5DLIOiRUaAMIhg7G4zAOaWKeIiMSwRgT4H5kMsw6JBRoA6iqTy3F4HUixThERiQMNgNlkMsE6xO80ANRFBrcD06n63KqIiERHMvAyGVxsHeJnGgBqK4Nf4vAg+iSFiIiFJBxeIIOfWof4lQaA2shkKg5/tc4QEYlzCTg8TRa3WYf4kQaAmsrgbuBe6wwREQHAweUhsrjLOsRvdPm6JrK4B5ffWWeIiMhh3ccwfm0d4RcJ1gG+kcmfgN9aZ4iIyBH1YwoJPEe2dYgf6ApAdegnfxER/3D4Dem6VXssGgCOJZP/A35vnSEiIjVyJ8N40DrCyzQAHE0mdwIPWGeIiEiNuThcTzpPW4d4lQaAI8niNlwess4QEZFaC+JyGcN52TrEizQAHE4mU4Bp6PdHRMTvKnD5McOZbR3iNVrgvi+Lcbi8ih7vKyISK8pxGc9w5lmHeIkGgO/KYDAOc9DGPiIisaYEl5EMZ7F1iFdoADhoPmcR4C2gkXWKiIhERCEuQxhOrnWIF2gAAMjgRBzeB1pbp4iISETtIsS5jOBT6xBr2gtgPs0JMA8t/iIi8aAlAWbzP5pZh1iL7wFgBskEeAWX061TREQkajqTzEzmUs86xFL8DgAuDqn8CxhsnSIiIlE3gESexY3fW+HxuxnQj/gTcLN1hoiImOnGZ8DzvG0dYiE+J58MfoLDv60zRETEnIvL1QxnmnVItMXfAJDF+bhkAMnWKSIi4gkVBBjFUBZYh0RTfA0AC+hCiHeAVOsUERHxlL049COd1dYh0RI/A8B82hLgfaCjdYqIiHjSRpI4l0Fssw6Jhvj4FEA2KQSYhRZ/ERE5sk5U8Ea8fDwwPgaACh4D+lpniIiI551DIo9YR0RD7A8AGVwH/NQ6Q0REfON6MmJ/3Yjt9wBUbfCzGOLjco6IiITNfqA/w1hmHRIpsTsALKAFIZYBnaxTRETEl74kiTQGscs6JBJi8xbADBII8SJa/EVEpPY6UsFLzIjNp+bG5gDQlHuBYdYZIiLie0NI5Q/WEZEQe7cAMhiPw+vE4v83ERGx4OIyieG8ah0STrG1SM7jdBL4EGhinSIiIjHEYR8O5zCUtdYp4RI7twDm0oREZqHFX0REws2lMSFeIZtG1inhEjsDQCKP4XK6dYaIiMSsLlTwsHVEuMTGLYAMJuLwinWGiIjEAZfJDOdl64y68v8AMJcOJLISaG6dIiIicWEPDj1I50vrkLrw9y2AuwmQxHS0+IuISPSk4vKc358P4O8B4Ef8BpdB1hkiIhJ3BpDKndYRdeHfWwAZpOHwLpBsnSIiInGpghD9GMGH1iG14c8BIIOGBMjVu/5FRMTYpyTRi0EUWYfUlD9vATg8osVfREQ84BQquN86ojb8dwUgkwnA69YZIiIi33AYTzqzrDNqwl8DwFu0J8hKoIV1ioiIyHfsIkR3RrDVOqS6/HULoJJ/oMVfRES8pyUBnraOqAn/DAAZTMZhnHWGiIjIEYwmi0utI6rLH7cA5tOcAGuBNtYpIiIiR7GbAF0ZynbrkGPxxxWAAA+ixV9ERLyvBUGeso6oDu9fAZjPIAK8hR9aRUREAFwuYjivWmccjbcX1dk0IJlVOJxsnSIiIlID2ynnDMZQYB1yJN6+BVCPe7T4i4iID7UhmT9bRxyNd68ALKAvId4Df++2JCIicSuES3+G8651yOF48wpANomEeAot/iIi4l8BHJ5iGUnWIYfjzQGggl8BvawzRERE6qgb+dxhHXE43rsF8BYnE2QNkGKdIiIiEgYlJNCFIWyyDvku710BCPIQWvxFRCR2NCDIA9YR3+etKwCZDAMyrDNERETCzmEE6d5Z47wzAMwgmWaswuV06xQREZEIWEdzetCHCusQ8NItgKbcqcVfRERi2Bnk83PriIO8cQXgLdoTZD3QyDpFREQkgvYS4DQvbBbkjSsAQf6EFn8REYl9TXD5g3UEeOEKwHx6ECAPrwwjIiIikRXEoRfprLaMsF90HR7wRIeIiEh0JODysHWE7cKbwRgchpo2iIiIRN9gshhuGWB3CyCbRCpYBZxh1iAiImJnDXvoySSCFie3uwJQzk/Q4i8iIvGrG6lMsTq5zRWAbFKoYANwvMn5RUREvGETlZzOKMqifWKbKwCV3IwWfxERkRNI4HqLE0f/CsAsGlOfT4HWUT+3iIiI9+yklJMZx75onjT6VwAa8Cu0+IuIiBzUihRujfZJo3sFIJuWVPI5Lo2jel4RERFvK6ScExlDQbROGN0rABX8Qou/iIjIDzQlmduiecLoXQFYQAtcvtAAICIiclh7KadTtK4CJEbjJACEuBO0+IuI+EmjhEZ0qt+J41OOp129drRMavnN11xcdlXsYlf5LnaU72Bt8Vr2Vu41rPW9JiRxK3B3NE4WnSsA82lOAhv107+IiLd1TOnI6JajOSf1HPo06UPnBp0JONW/W7yxdCOrilaxqGARGbsz+KjoowjWxqSovRcgOgNABn/E4bdROZeIiNRI+3rtubr91UxoNYHeTXqH9dib929mxvYZ/Oer/7C2eG1Yjx2zHO4mnd9H/jSRNpcmJLIJSI34uUREpNoGNBvAzcffzITWE0h0In9H+L3C93h408O8uuNVQm4o4ufzsQKS6MggiiJ5ksh/CiCJn6HFX0TEM3o36U1WWhaL+iziojYXRWXxBzi36bm83P1lVp6zkoltJuIY7kfncc2o5OpInySyv/tzqUciXwBtI3oeERE5ppZJLXnw9Ae57LjLanRfP1KWFCzhunXXsb54vXWKF31BEqcxiMpInSCy/wYkchVa/EVEzF3Q6gLWnLeGKW2neGLxB+jfrD8rzlnB/530f1G7CuEjJ1LBhEieIHJXAGaQQCrrgFMjdg4RETmq5EAyj3V+jGvbX2udclRvF7zNxasuZkf5DusUL8lhGGdF6uCRGwObMgEt/iIiZloktSCzd6bnF3+A85udT+7ZuZzVNGLrnR/1JYt+kTp4JK8D3RHBY4uIyFGc2uBU3j/rfQY2G2idUm0dUjqwMG0hQ5oPsU7xkjsjdeDI3ALIIA2HZRE5toiIHFXXRl3J7J1Ju3rtrFNqpSxUxsWrLmbWzlnWKV7g4tCVdNaF+8CRugKgn/5FRAycl3oeS/su9e3iD1AvUI8Z3WfoSkAVB5dbInPgcMukHfAFkBz2Y4uIyBENbj6YmT1m0jgxNp66vrdyL+flnKfHCcN+AnRiKNvDedBIXAG4CS3+IiJRNbHNROb1mhcziz9Ak8QmzOwxkxZJLaxTrKXgckO4DxreKwBVD/7ZDLQK63FFROSIprSdwn+6/idmP0v/5s43GbdinHWGtR1U0pFRlIXrgOG9ApDIRWjxFxGJmp8f/3OmdZsWs4s/VD3E6Mp2V1pnWGtNIheG84DhvgVwY5iPJyIiR/DHU/7Io50fjYtn6j9y+iN0SOlgnWEtrLcBwjcALKA7cF7YjiciIofl4PDQ6Q/x2xPjZ5f1polN+fMpf7bOsDaADLqF62DhGwBC+ulfRCTSEpwE/t3139zW8TbrlKi77LjL6N2kt3WGLYewPdYxPNeNsmlEBV8BTcJyPBER+YGUQAozus9gbKux1ilm5u+ez8i8kdYZlgpxac9wiut6oPBcAajkErT4i4hETMOEhrzZ8824XvwBRrQYQfdG3a0zLDXF4aJwHCg8A4DLT8JyHBER+YFmSc1YkLaA9Bbp1imecOPxcX/H+epwHKTutwDmcToJrAvLsURE5BDt67UnMy2TLg27WKd4RlGwiA6LO1BYWWidYsUlxGmM4NO6HKTuVwAS+Sla/EVEwu7E+ifydp+3tfh/T6OERoxpNcY6w5KDw1V1PUjdBoBsEnG5vK4RIiJyqC4Nu7Ck7xJOaXCKdYonjWsV508GdLiKGSTU5RB1GwDKGQm0rdMxRETkEOc0PYclfZfQvl576xTPGtFiBPUC9awzLLWnGUPrcoC6DQAOU+r0ehEROcT5zc4ns3cmzZOaW6d4WuPExqQ1SbPOsFanNbj2A8AsGgNxfRNGRCScxrYay7zesbWjXySd1eQs6wRbLuPJplFtX177ASCFC4H6tX69iIh84/K2l/N6j9dJCaRYp/hG36Z9rROsNaSCWj8YovYDgMOltX6tiIh849aOtzK92/SY3tEvEro1Cttj8f3sktq+sHYDQAatgcG1PamIiFSZ2mkqD5/+cFzs6Bdux9c73jrBC0awgBa1eWFtrwBMBjSqiojUkoPD3077G/eeeq91im81S2pGw4SG1hnWkgjV7tHAtRsAHCbV6nUiIkKik8gzXZ/hjhPusE7xveOSj7NO8IIoDQDZHAecW5uTiYjEu+RAMv89879c2e5K65SYkBxItk7wgoEHbs3XSM0HgHIurNXrRETiXMOEhszuOZuJbSZap8QMvXESgAQcLqjpi2q+kDv8uMavERGJc82TmvNW2lsMazHMOiWmJDh1ehpu7HBrvjbXbACoeqfhgJqeREQknh2XfBwL0xZydtOzrVNizp7KPdYJ3uAwhP/RrCYvqdkA4HIBeve/iEi1darficV9F9OjcQ/rlJi0s3yndYJXJJFcs6fz1nQAGF+j7xcRiWNnNDyDJX2WcGqDU61TYlJJsITiYLF1hpfU6H0A1R8A5lIPPfxHRKRa0pqksbjvYjqkdLBOiVlflH5hneA1Iw6s1dVS/QEgkSFQ+00HRETixcBmA1mYtpCWSS2tU2LaqqJV1gle04hk+lf3m6s/ALja+U9E5FjGtBrDvN7zaJLYxDol5q0uWm2d4D1BRlf3W6s/ADiMqlWMiEicuLzt5bzR4w3qB7RRajQs27vMOsF7avA8gOoNAAvoDpxQ2x4RkVh3Y4cbmdZ1mh5MEyWloVKWFiy1zvCik8igc3W+sXoDQIgRdcoREYlhUztN5fEzHifg6CGp0ZKdn01pqNQ6w5sC1Vuzq/dvq0t6nWJERGKQdvSzM2fXHOsE76rmmn3sDaizSaGCfEA3tUREDkhwEnjyjCe5pv011ilxpyxURofFHdhVscs6xauKqaQFoyg72jcd+wpABQPQ4i8i8o2DO/pp8bfx+o7XtfgfXUOSjr1r77EHAF3+FxH5xsEd/S5qU6st2CUMnv7qaesE76vG2n3sAcDRACAiApCamEpG7wzt6Gfo3T3vkp2fbZ3hB8dcu4/+HoD5NCfATmqzbbCISAxpk9yG+b3n07NxT+uUuDYkdwgL8xdaZ/hBiCRaMIgjbpd49IXdYcAxv0dEJMadkHICS/ou0eJv7K38t7T4V1+ASn509G84+lcHhDVHRMRnOjfszJK+2tHPWlmojJ+v/7l1hr+4R1/Dj/XIqoFhTBER8ZXeTXozv9d8WiW3sk6Je/d8fg/ritdZZ/jNUdfwI78HYC5NSCQfSAh3kYiI1w1oNoDZPWdrUx8PWLZ3GT/K+RHloXLrFL+ppJTmjGPf4b545FsAifRDi7+IxKHRLUczv/d8Lf4ekF+Rz6RVk7T4104iKZxzpC8e7T0A/SIQIyLiaZOPm8wbPbWjnxeE3BCXrr6UL0q/sE7xL4f+R/rSkQcA58hTg4hILLqhww280O0Fkpwk65S45+Jy4/obydidYZ3id2cf6QuHHwDuJoBLWsRyREQ8Rjv6ecsvN/ySf275p3VGLDibuw+/1h/+3/R+dAN080tEYp6Dw32n3se9p96LU4390SSyXFzu3HAnf9v0N+uUWNGUfnQ+3BcO/zFA98iXDEREYkVKIIWnuzzN5W0vt04RIOgG+dn6n+kn/3ALcg6w9vu/fPgrABoARCTGtavXjsV9F2vx94jyUDmXrblMi38kBA6/ph/pQUBnRTBFRMRUWpM0ZvecTdt6ba1TBCgJljBx1UTm7ZpnnRKbjvBD/Q9veGWTQgX7OPZTAkVEfEcP+PGWwspCxiwfw9I9S61TYlkFSTRhEPu/+4s/vAVQRne0+ItIDNIDfrwlvyKfYXnDtPhHXhJldPn+L/5wAAjQKyo5IiJRdMlxl+gBPx6ytWwrA5cN5MPCD61T4oPzw7X9cG8C1AAgIjHlhg438Hy35/WAH4/4vPRz+uX0Y03RGuuU+FHNAaB3FFJERKJiaqepPHHGE3rAj0esKVpD/5z+fF76uXVKvDnGADCDBKBbtGpERCLluw/4EW/4sPBDBi4byNdlX1unxKPu338i4KEDQHNOBnSDTER8LcFJ4KkuT/GrTr+yTpEDFuYvZEjuEPIr8q1T4lUjzuWE7/7CoQNAiK5RzRERCbPkQDIvnvki17a/1jpFDpi5Yyajlo+iKFhknRLvDlnjDx0AnB9+TEBExC8aJDRgZo+ZTGozyTpFDpi+dToXrbqIslCZdYp8b43//hUADQAi4ktNE5uS0TuDkS1HWqfIAY9++ShXrbmKSrfSOkWqHGUA0BUAEfGh1smtye6TTb/UftYpcsB9G+/j1o9vxcW1TpFvHbLGf/vEv6p3B54e7RoRkbromNKRzN6ZnN5Qf315gYvLHR/fwcNfPmydIj90Bi4OTtVU9u0AUPXuQH0CQER84/SGp5PZO5OOKR2tU4Sq7XyvWXsNz379rHWKHF4j5tEe2AKH3gI4xaZHRKTmejXuxeI+i7X4e0RZqIyLVl2kxd/rkr5d678dAAIaAETEH85uejYL0hbQOrm1dYoARcEixiwfwxs73rBOkWNxv13rE7/ziyebxIiI1MCQ5kOY2XMmjRIaWacIVTv6jV4+mvcL37dOker4zlr/3QHgFByTHBGRahnfejwvnfkS9QL1rFOEqh39hucNZ3XRausUqS7ncLcAHN0CEBHvuqLtFbzS/RUt/h7xRekX9M/pr8Xff753C8DFIYsTzXLkGw0TGtKrcS86N+xMh5QOdKjXgdSkVJomNgXAdV12Veyq+k/5Lj4u+ZjV+1azoWSDHrYhMetXnX7Fvafei6PLlJ6wqmgVw3OHs618m3WK1JTz7S2Aqj9Nc2lFIjvMguJYciCZQc0GMb71ePql9uOMhmeQ4CTU+DjloXI+KPyAjN0ZZOzOIG9fHiE3FIFikej68yl/5jcn/sY6Qw54r/A9Ri8fTUFFgXWK1FY5zRlDQdUAMJ/eBMg1Toor56Wex40dbuSCVhfQJLFJ2I+/ef9mnvn6GZ75+hk2lm4M+/FFIi3gBPhH539wQ4cbrFPkgKzdWUxYOYHiYLF1itRFgB4MZVXVAJDFOFxmGifFvAQngcvbXs6tHW+lV+NeUTlnyA0xb/c8fv/Z78nZmxOVc4rUVZKTxLRu07jkuEusU+SA13a8xmWrL9OmPrHAYQzpzDn4JsDjTWPiwJhWY1h5zkqe7fps1BZ/qPopanTL0Xx49ofM7jmb7o26R+3cIrVRP1CfN3q+ocXfQ575+hkuXnWxFv/Y0REOfgrA1QAQKQefUz6752y6Nup67BdE0JhWY8g9J5d7T72X+gE99Vm8p0liE+b1nsfolqOtU+SAhzY9xE8/+ilBN2idIuFyYM0/OAB0MI2JUVe1u4pV564ivUW6dco3Ep1EpnaayurzVnNe6nnWOSLfaJXcioVpCxnYbKB1ihzwf5/9H3dsuEM7+sWe7wwADu1MU2JMSiCFF898kWe6PvPNx/e85uT6J5Odls1Nx99knSJCh5QOLOqziLQmadYpQtWOfresv4V7Pr/HOkUioy18+yCgNoYhMaV1cmsW9lnoi/uXyYFkHuv8GNO6TSM5kGydI3Hq1AansrTvUs5oeIZ1igCVbiVXrrmSv2/+u3WKRE4b+PZRwBoAwuCk+ifxVtpbdKrfyTqlRq5oewXNE5szcdVEvclHoqpH4x5k9M6gTbL+CvKC/aH9TF41mVk7Z1mnSGS1BnBYRhL5lIEesVUXx6ccz6I+izixvn8fqPh2wduMXT6WomCRdYrEgb5N+jKv9zxaJLWwThGgOFjMhJUTyNqdZZ0ikRciiXoBCmmNFv86aV+vPdl9sn29+AOc3+x8Xuvxmm4HSMQNazGMd+S4fAAAIABJREFU7D7ZWvw9YnfFbgbnDtbiHz8CBGkRIIQ21K6DlEAKb/R8g5Prx8ZuysNaDOPlM18m0Uk89jeL1MK4VuOY1XMWDRMaWqcIsK18G4OXDebDwg+tUyS62gRwaWVd4WePdX6Mvk36WmeE1fjW4/l3139r4xUJuyltp/Bqj1dJCaRYpwiwsXQj/XP6s6polXWKRFuIVgFcmll3+NVP2/+Un7b/qXVGRFzR9goeOO0B6wyJIXeccAfTuk3T1SWPWFO0hvNyzuPTkk+tU8SCQ2oCV9APGGPd4jdt67VlVs9ZMf2TzLmp5xIkyOKCxdYp4nNTO03l/tPu11Ulj1i2dxnpuensKNcmsHEsK4CjKwC18Xjnx0lNTLXOiLh7Tr6HO064wzpDfMrB4cHTHuTeU++1TpED3i54myG5Q9hVscs6RSw5pAYI4c1H1XnY2FZjGd96vHVG1Nx/6v1c3vZy6wzxmUQnkendpnP7Cbdbp8gBM3fMZETeCPZW7rVOEXtNAzjE/o+xYeTg8IeT/2CdEVUBJ8CzXZ9lYpuJ1iniE/UC9Xi5+8saHD3kha0vMGnVJD3sS6q4NAuArgDUxITWE+jZuKd1RtQlOAm80O0FhrcYbp0iHtcwoSGze87mwtYXWqfIAY9vfpwrPrqCCrfCOkW8wiE1ADSy7vCT3574W+sEM8mBZF7p/gpnNT3LOkU8qkVSC7L7ZHtqB8x494fP/8BN628i5IasU8RbGgaABtYVfpHWJI3eTXpbZ5hqnNiYjN4ZcXkVRI7uuOTjWNhnYcw9F8OvXFx+seEX3PXZXdYp4kUuDQJAfesOv4jVz/zXVGpiKnN6zeGk+idZp4hHdKrfiSV9l9C9UXfrFAGCbpBr117L3zb9zTpFvMqhvq4AVFNyINkXW/xGS7t67chMy6RtvbbWKWKsW6NuvNv3XU5pcIp1igBloTImrZrEv7/6t3WKeNmBKwAaAKrhR6k/iovP/dfEyfVPJrN3pjZ0iWN9mvQhu0+2BkGPKA4WM27FOF7f8bp1inifbgFUl979fnjdGnVjbq+5NE5sbJ0iUXZ+s/NZmLaQlkktrVME2FO5h2F5w8jYnWGdIv5QPwDE7rNswyi9ud7VfCRnNT2LN3q8Qb1APesUiZLxrcczv/d8DX4esa18GwNzBvLunnetU8Q/6gcA7cxxDPUC9Tiz8ZnWGZ42pPkQZnSfoY1e4sBlbS/jle6vaODziE37NzEgZ4B29JOaSgzgaAA4ljMankGSk2Sd4XkXtLqAZ7o+Q8AJWKdIhNx0/E1M7zpdg55HrC9eT7+cfnxS8ol1ivhPQgCXBOsKr+vWqJt1gm9c3vZyHjrtIesMiYC7TrqLxzo/pgHPI5btXUb/nP5s2b/FOkX8KTEAGgCOpVP9TtYJvnJLx1u4++S7rTMkTBwcHjjtAf0z9ZDFBYu1o5/UVYIGgGrQu5xr7q6T7uLOE+60zpA6SnASeLrL0/pn6SFzds3Rjn4SDroCUB2tkltZJ/jS/afdzzXtr7HOkFpKDiTz0pkv6QmYHvLfbf9lwooJlIZKrVPE/xJ0M68aGiVov6TacHB48ownmdB6gnWK1FCjhEbM6TVHW0B7yOObH+fyNZdrRz8JmwAQtI7wuqCr36LaSnASeOnMlxjRYoR1ilRTamIqGb0zGNp8qHWKHHDfxvu0o5+EW1ADQDVoAKib5EAyr/V4jX6p/axT5BjaJLfh7T5vc17qedYpQtWOfr/65Ff8+pNfW6dI7KnUAFANZaEy6wTfa5DQgFk9Z3FmIz1QyatOrH8i75z1Dj0a97BOEap+8Lhu7XXcv/F+6xSJTcEAjgaAY/m67GvrhJjQPKk5C9IWcHrD061T5HvOaHgGi/ss5uT6J1unCFAeKufS1Zfyr6/+ZZ0isasygEuldYXXfVX2lXVCzGid3Jqs3ll0TOlonSIHpDVJY1GfRXRI6WCdIkBJsIRxK8YxY/sM6xSJbcEAaAA4ls37N1snxJTjU45nXu95er6CB5zf7Hyy07L1UVePOLij3/zd861TJPZVBoD91hVep002wq9Lwy5kpWWRmphqnRK3xrQaw9ze2srZK3aU72DQskG8s+cd6xSJD6UBQE+UOIbPSj5jd8Vu64yY07NxT97o+QYpAe1IHW2XHncpr/d4nfqB+tYpAny5/0v65/Rnxb4V1ikSP0oDQIl1hde5uOTtzbPOiEnnNztf2whH2U3H38Rz3Z7TDpce8XHxx/TL6ceGkg3WKRJfSjQAVNNb+W9ZJ8Sssa3G8mzXZ7XLXBRM7TRVO/p5SN7ePAYsG6D3GUn0OVUDgG4BVMPrO163Tohpl7W9jMc6P2adEbMcHP566l+599R7rVPkgCUFSxicO5gd5TusUyQeuboFUG2flHzCuuJ11hkx7cYON/LHU/5onRFzEpwEnuryFL/s9EvrFDlg7q65jFg+gsLKQusUiVcOJQlMYSygx7NVQ7OkZgxuPtg6I6YNaDaAomAR7xW+Z50SE5IDybx45otMaTvFOkUOeHnby1y86mI9YVRsOeQGcNlj3eEXT215Sn9oo+D+0+7n2vbXWmf43sHHL1/U5iLrFDlg2tfTtKOfeEOI/ACOBoDq2lm+k1e3v2qdEfMcHJ444wkuPu5i6xTfSk1MJbN3pnZh9JBHv3yUqz+6mkpXz14TD3DYEwANADXxwKYHtCVnFCQ4CUzvOp3hLYZbp/hOm+Q2ZPfJ5kepP7JOEao+RvybT37DrR/fiotrnSNyUKFuAdTQin0r+O+2/1pnxIXkQDJv9HyD/s36W6f4RseUjizuu5iejXtapwhVi//tH9/OvRv16QvxGJeCAAENADX1u89+p/cCREn9QH1m95xN7ya9rVM8r3PDziztu5TTGpxmnSJApVvJ1R9dzSNfPmKdIvJDAfYECFFg3eE3G0s3aqKPoqaJTZnbay6nNjjVOsWzejfpzeI+izk+5XjrFAFKQ6WMXzGeaV9Ps04ROTyXwgAOO607/OiPn/+RnL051hlxo01yGxamLeSElBOsUzynf7P+LExbqB39PKIoWMTY5WOZs2uOdYrIkblsDxBiu3WHH1W6lVy55kpKQ3qQYrR0SOlAVloWbZLbWKd4xqiWo8jonUHTxKbWKQLkV+QzNHeoHh0ufrAjQD12Anpbey2sK17HDWtvsM6IK6c2OJXMtEyaJTWzTjE3+bjJzOw5Uzv6ecTWsq0MXDaQDwo/sE4ROZYghewOMIhKIN+6xq+mb53OX774i3VGXOneqDtzes2hYUJD6xQz13e4nhe6vaAd/Tzii9Iv6J/TnzVFa6xTRKpjF5MIHtwSTLtR1MHvPvudHhAUZec2PZcZ3WfE5QI4tdNUnjjjCe3o5xEr963k3A/P5bPSz6xTRKrHrbr1X/U3iKP3AdRFyA1x2ZrLmL97vnVKXBnVchQvdX+JBCfBOiVq7j75bu499V4cHOsUAT4s/JAhuUPYXq6/QsVXdsDBASDEVtOUGFAeKufHK3/M0j1LrVPiyoWtL+RfXf4V8wuig8Mjpz/CXSfdZZ0iByzMX8jQvKHsrthtnSJSM07Vmn/wCsBm05gYURIsYczyMSzft9w6Ja5c1e4qHjz9QeuMiEl0Enmm6zPc0vEW6xQ5YNbOWYxePpp9lfusU0RqzuVLODgAoAEgXAorCxmRN4KPiz+2Tokrt3W8jamdplpnhF29QD1e6f4KV7a70jpFDnhu63NMXDmR/aH91ikitXPgh34NABGwo3wH6XnpfLn/S+uUuPKXU//C9R2ut84Im0YJjZjTaw7jW4+3TpED/r7571y55krt6Cd+950BQLcAwm7z/s2k56brzUFR5ODweOfHmXzcZOuUOmue1JwFaQsY0nyIdYoccN/G+7hl/S3a0U/875BbAA76UTUCNpRsYETeCPZUar+laAk4AaZ3m87olqOtU2qtbb22LOqziLObnm2dIny7o9+vP/m1dYpIeASqfuj/9q3TmRQDDax6Ytl5qeeR1TuLBgn67Y2W0lApI/NGsqhgkXVKjZxU/ySy0rI4qf5J1ikCBN0g1669lme+fsY6RSRc9jKMpvDtewAAPjeKiXnv7nmXyasnU+FWWKfEjfqB+rzZ803SmqRZp1Rb10ZdWdJ3iRZ/jygLlTFp1SQt/hJrvnli1bcDgMOnJilxYvbO2Vy15ipCrrZdiJYmiU2Y33s+ZzQ8wzrlmM5qehaL+iyiXb121ikCFAeLGbtiLK/veN06RSTcvlnrvx0AQhoAIu3FbS9y8/qbrTPiSsuklmSlZdGpfifrlCMa3Hwwb6W9RYukFtYpAhRUFDA0dyhZu7OsU0Qi4TADgIMeZB0FT2x5gt99+jvrjLjSvl57snpncVzycdYpPzCu1Tjm9JpDo4RG1ikCbCvfxsBlA3m/8H3rFJHIcA93C8DVABAtf/riT9y/8X7rjLhySoNTPLeN8BVtr+DVHq+SEkixThG+3dFvddFq6xSRyAkcbgBAtwCiaeonU3n6q6etM+LKmY3OZG6vuZ74afvnx/+cZ7s9S6KTaJ0iwNritfTP6c+nJfprUGJcxeFuAbzHJqDUoiceubjcuO5GXt72snVKXDmn6Tm80fMN6gXqmTVM7TSVRzs/GvMbGPlFzt4cBuYM5Kuyr6xTRCKtiJF88y/6twPA3YSA9RZF8SroBpmyZgpzd821TokrQ5sP5aUzX4r6T98ODg+d/hD3nnpvVM8rR/Z2wdsMyR3Cropd1iki0bAW59tHWQYO+ZLD2qjnxLkKt4KJKyeypGCJdUpcGd96fFS3EU5wEvhP1/9wW8fbonI+ObbZO2czMm+kdvSTeHLIGn/oAOBqALBQGipl7Iqx5O3Ns06JK1e2u5KHT3844uepF6jHjO4zuKrdVRE/l1TP81uf58KVF2pHP4kvrgYATyqsLGTE8hGsL9ZdmGi6peMt/PbE30bs+I0SGvG/Xv/jwtYXRuwcUjP/2PwPrvxIO/pJHAocbQBI0ABgaWf5TtLz0tm0f5N1Slz54yl/5PYTbg/7cZslNSMrLYuhzYeG/dhSO/dtvI+b19+sJ3JKfAodbQDI5zOgJJo9cqgt+7doG2EDfzvtb1zd7uqwHe/gjn7nND0nbMeU2nNxuXPDndrRT+JZ0YFP+33j0AFgEkFAT8Ew9knJJwzLHUZBRYF1StxwcHi6y9P8uPWP63ysE+ufyJK+Sziz0ZlhKJO6CrpBrll7DQ9uetA6RcTSigOf9vtG4DDftDxKMXIUq4pWMXr5aIqDxdYpcSPBSeDFM19kWIthtT5Gl4ZdWNJ3CSfXPzmMZVJb5aFyJq+ezH+++o91iogt94dr+w8HgMN8k9h4r/A9JqycQFmozDolbiQHknm1+6v0adKnxq/t26Qvi/supn299hEok5o6uKPfq9tftU4R8YIV3/+FHw4ADvosmodk7c7i0tWXEnSD1ilxo3FiY+b1nkeXhl2q/ZpBzQdpRz8PKagoYFjeMDJ3Z1qniHhDoDpXACpZDVREo0eq5/Udr3PN2mtwv32Ak0TYwW2ET6x/4jG/94JWFzC311waJzaOQpkcy7bybQzKHcS7e961ThHxinIqfvgpvx8OAKMow2VdVJKk2p79+llu/zj8H1WTI2tXrx1ZaVm0rdf2iN9zedvLea3Ha9rRzyM2lm5kQM4AVu5baZ0i4iVrGcUP7iUf7k2AAB9EOEZq4ZEvH+G+jfdZZ8SVk+ufTGbvTJonNf/B1246/iamdZ2mHf08Yl3xOvov688nJZ9Yp4h4zfuH+0UNAD7zm09+w1NbnrLOiCvdGnX7wTbCUztN5bHOjxFwjvRHSKIpd28uA3IGsGX/FusUES867JquAcBnXFx+tv5nvLTtJeuUuHJ207OZ1XMW9QP1+dtpf9OOfh6yqGARg3MHa0c/kSNxD38F4PBbod1NgPPIB5pGsklqL8lJYmbPmYxqOco6Ja5s2b+FDikdrDPkgDd3vsnFqy7Wpj4iR7aHd2nx/YcAwZEGAIBMFgBDIlkldVM/UJ95vecxsNlA6xSRqHtx24tcteYqKlx9aEnkiFzmM5yRh/vSkW9gHuGSgXhHaaiUC1ZcQO7eXOsUkah6YssTTFkzRYu/yLEd8Zb+0d7B9E4EQiTM9lbuZUTeCNYV65ObEh/u23gfP1v3M+3oJ1IdCSw90peOPADsZymgDbN9YFfFLtJz09lYutE6RSRiXFx+ueGX2tFPpPoqCPLekb545AFgHPs4zLODxZu+KvuK9Lx0tpVvs04RCbugG+S6tdfxwKYHrFNE/MNlGcM54o5yx/oQ8+Iw50gEfVryqbYRlphTHirnktWX8K+v/mWdIuIvztHX8KMPAMd4sXjP6qLVjFo+iqJgkXWKSJ2VBEsYt2Icr2x/xTpFxI/qMAAEWQI//OygeNv7he8zYYW2ERZ/21O5h2F5w5i/e751iogfBUniqDtiHX0AGEE+oF01fGhB/gImr55Mpav3cYr/bC/fzqBlg3hnjz6MJFJLuQxiz9G+oToPMs8KU4xE2cwdM7WNsPjOpv2bGJAzgBX79B5kkVpzj712H3sACGgA8LNpX0/jto9vs84QqZb1xevpn9OfDSUbrFNE/M0JxwBQ9RCB0nD0iI1Hv3yUP3/xZ+sMkaPK25vHgGUD2Lx/s3WKiN8VU3nsp/keewAYxH448pOExB9+++lveWjTQ9YZIoe1uGAxg3MHs7N8p3WKiP85ZDOKY74LvHqbmVfjXoJ4350b7uSZr5+xzhA5xJxdcxiRN4LCykLrFJHYEKreml29AQDm1SFFPMLF5dq11/LajtesU0QAeGnbS0xYMYHSkO4yioRNiIzqfNuRtwP+vkw+B06sbY94R3Igmdk9ZzOsxTDrFIljT255kpvW36RNfUTCyeUzhnNKdb61ulcAAObUMkc8pjxUzsRVE1m2d5l1isQp7egnEiEOs6r7rdUfAAIaAGLJvsp9jMwbydritdYpEkdcXKZ+MpVff/JrPZ9CJBLc6q/V1R8AysnGYV+tgsSTDm4j/EXpF9YpEgeCbpAb1t3AXzf+1TpFJFbtpbD6n9qr/gAwijJcFtQqSTzr67KvSc9NZ2vZVusUiWHloXIuW3MZ/9zyT+sUkVg2n0mUV/eba/IeAIA3a/j94gOflX7GsLxh5FfkW6dIDCoJljB+5Xhe3vaydYpIrJtdk2+u2QCQxEyo/nQh/rGmaI22EZawKwoWMXbFWObt0ieJRSKsnPKavVevZgNA1c5Ci2r0GvGNDwo/YNyKcewP7bdOkRiQX5HPkNwhLMxfaJ0iEg+yGENBTV5Q01sAAHqKTAxbmL+Qyau0jbDUzdayrQxcNpAPCz+0ThGJD07N1+aaDwABZgLBGr9OfGPWzln85KOf6DPaUiufl35Ov5x+rClaY50iEi8qSazZ/X+ozQAwlO3AOzV+nfjKc1uf49aPb7XOEJ9ZU7SG/jn9+bz0c+sUkXiSzSB21fRFtbkFAA6v1Op14iuPbX6MP3z+B+sM8YkPCz9k4LKBfF32tXWKSHxxebU2L6vdAFDBy4BuEseBuz67iwc3PWidIR63MH8hQ3KH6KOkItFXTkLt3ptXuwFgFDv1UKD48YsNv+DfX/3bOkM8auaOmfoIqYgVl3kMZXdtXlq7AQDA4cVav1Z8xcXl+nXX88p23fmRQ03fOp2LVl1EWajMOkUkXv23ti+s/QDg8jpQXOvXi68E3SCXr7mcjN3V2mZa4sCjXz7KVWuu0kdGRewUA/+r7YtrPwAMpxin9icW/ykPlXPhygt5Z48+BBLv7tt4H7d+fKt29BOx9TrDa/+DeO0HgCrP1fH14jMlwRLGLB/Din0rrFPEgIvL7R/fzq8/+bV1ioi4dVuD6zYAFDAf2FKnY4jv7Kncw/C84Wwo2WCdIlEUdIP85KOf8PCXD1uniAhsoZA6PWe7bgPAJILAC3U6hvjSjvIdpOem8+X+L61TJArKQmVctOoinv36WesUEanyzIE1uNbqegsAAvwHdCMwHn25/0tGLR/F7opafQJFfKIoWMSY5WN4Y8cb1ikiUsUlgWl1PUjdB4ChbADeq/NxxJc+KvqIkXkj2Ve5zzpFIiC/Ip/03HQW5OuxHyIesoghfFbXg9R9AABw+U9YjiO+lLM3h3ErtY1wrNlatpXzl53P+4XvW6eIyHc5PBOOw4RnAEjmZWBvWI4lvpSdn83Fqy7WZ8JjxBelX9A/pz+ri1Zbp4jIofawv3bP/v++8AwAgyjC4fmwHEt8682db3L1R1drG2GfW1u8ln45/fistM5XGEUk/KYxlpJwHCg8AwCAwz/QmwHj3vNbn+fnH//cOkNqKWdvDgNyBmhHPxGvCvF0uA6VEK4DMZ2dTGEo0DFsxxRfytmbQ4gQg5oPsk6RGsjOz2bk8pHsqdxjnSIih/c2w7k/XAcL3xUAAJcnw3o88a17Pr+HhzY9ZJ0h1VDhVvDc1ucYuVyf5hDxtDCvsU44D8Zc6pHIZqBVWI8rvuTg8M8u/+Sa9tdYp8gRlIXKmLx6MjN3zLROEZGj284eOjKJ8nAdMLxXAEZRBroKIFVcXG5YdwMzts+wTpHDKAoWMXr5aC3+In7g8EQ4F38I9wAAEOIJCG+k+FfQDTJlzRTm7ZpnnSLfkV+Rz9DcobyV/5Z1iogcWxmJPBXug4Z/ABjBVkA/8sk3ykPlTFw1kSUFS6xThKoH/AxcNpAPCj+wThGR6nmRQWwL90HDPwAAhNC7v+QQJcESxq4Yy/J9y61T4trBB/ysKVpjnSIi1fdoJA4amQFgBHnA0ogcW3yrsLKQ4XnD+bj4Y+uUuPRR0Ud6wI+I/yxkGCsiceDIDAAAjq4CyA/tLN9Jel46m/Zvsk6JKx8WfsjAZQP1gB8Rv3F5OFKHjtwA8A4zgbURO7741ub9m0nPTWd7+XbrlLiwMH8hQ/OGattmEf9Zx3vMidTBIzcA3E0IlwcjdnzxtU9KPmF43nA9dS7CZu2cxejlo/WAHxE/criXu4nY5iqRGwAAWjAd2BzRc4hvrdy3ktHLR1McLLZOiUnPbX2OiSsnaptmEX/aQgEvRfIEkR0A+lCBE5l3L0pseHfPu1y48kLKQ3p0RDj9ffPfuXLNldqeWcS/Hgj3g3++L7IDAEAJTwEFET+P+Fbm7kxtIxxG9228j1vW34KrzTlF/CqfJP4d6ZOEbzfAI3mJcqbQABgY8XOJb60uWs3O8p2MbjXaOsW3XFzu+PgO/vjFH61TRKRu/sJQFkT6JJEfAACuYDlwA5ASlfOJLy3bu4wKt4IhzYdYp/hO0A1yzdpreHKLtuIQ8blCkriUaUT8zTvRGQCeo4wraAQMiMr5xLeW7FlCg4QG/Cj1R9YpvnFwR7//bvuvdYqI1N1fGEpGNE4U3u2AjyabVCr4AkiN2jnFlxwcnjzjSa7rcJ11iucVB4uZsHICWbuzrFNEpO4KSaITg4jK56Mj/ybAg6r+Dz0etfOJb7m43Lj+Rl7aFtFPwPheQUUBQ3OHavEXiRUOD0Vr8a86XTQtoAUhPgeaRPW84ktJThIze85kVMtR1imes618G8Nyh7G6aLV1ioiERwFJnBTNASB6VwAAhrIbR08HlOqpcCuYuHIiiwsWW6d4ysEd/bT4i8QQl/ujufhDtAcAgET+Bugh8FItpaFSxq4YS97ePOsUT1hbvJb+Of35tORT6xQRCZ8d7OexaJ80+gPAIIpwuDfq5xXf2lu5lxHLR7CueJ11iqmcvTkMzBnIV2VfWaeISHj9gXFEfcOO6A8AAAU8Dnxhcm7xpZ3lOxmWN4yNpRutU0y8XfA2Q3KHsKtil3WKiITXRir5l8WJbQaASZTjoseVSY1s2b+F9Lx0tpVvs06Jqtk7ZzMyb6R29BOJRQ53MYoyi1PbDAAAhUzDZZXZ+cWXPi35lOG5wymoiI/tJZ7f+jwXrrxQO/qJxKYVFPCC1cntBoBJBHG5zez84lurilbFxTbC/9j8D678SDv6icSw25hE0OrkdgMAwAiycZhp2iC+9F7he1y06qKY3Ub47s/u5ub1N2uHRJHYNYNhLLIMsB0AABzuBJv7H+Jv83bN4+LVF8fUT8guLnduuJPff/576xQRiZz9BJlqHWE/AAzlc+AR6wzxp5k7ZvLTj36Ki2udUmcHd/R7cJOelSUS0xweYCQbrTOisxvgsUzkA5K4CmhsnSL+s7JoJfkV+YxsOdI6pdbKQ+VcuuZSXthq9n4gEYmOr0jiEqZhfv/SGwPAS5RzOXtwuMA6Rfzpw70fkhRIYkAz/+04XRwsZvzK8czeOds6RUQi7yaGssw6ArwyAACcwkqOZxTQ3jpF/Glh/kKaJjbl3NRzrVOqraCigJHLR/J2wdvWKSISeR+Qzq145C0+3hkA3sblcj7C4SdEe5dCiRmZuzM5PuV4ejXpZZ1yTNvKt5Gel86yvZ74YUBEIsvF4RJO5kvrkIPs3wT4XcN5F3jFOkP8y8XlunXX8dqO16xTjmpj6UYG5Axg5b6V1ikiEh3Pk85S64jv8tYAAJDAr4BS6wzxr6Ab5NLVl5K5O9M65bDWFa+j/7L+fFLyiXWKiERHEQn8xjri+7w3AAxhE3jlDon4VXmonAtXXsi7e961TjlE7t5cBuQMYMv+LdYpIhItDv8fQ/DcNp7eGwAAkvgbkGudIf5WHCzmghUXsLZ4rXUKAIsKFjE4d7B29BOJLzkU8HfriMPx7pvt5tODADlAknWK+Fu7eu1Y2ncpJ9Y/0azhfzv/x6RVkygN6e6WSBypxOEs0lluHXI43rwCADCClcBD1hnif1+XfU16bjpby7aanP/FbS9y4coLtfiLxBuHe726+IOXBwCARtwNfGqdIf73WelnDMsbRn5FflTP+8SWJ5iyZgoVbkVUzysi5jaQyJ+sI47G2wPAeZTicC3EwIPexdyaojWMXD6SomBRVM45AvSWAAAOa0lEQVR338b7+Nm6n2lHP5H44+JyI4PYbx1yNN4eAADSeRuHZ6wzJDZ8WPgh41aMY38ocn8uXVx+ueGX/PqTX0fsHCLiaU8xnIXWEcfi/QGgyh3gvY9QiD8tzF/I5FWTI7KNcNANct3a63hg0wNhP7aI+MJWkrz3mf/D8ccAkE4hcLt1hsSOWTtncfVHV4f18nx5qJxLVl/Cv776V9iOKSK+cxOD2GMdUR3e2QvgWJ5jLVfQE+hsnSKxYVXRKnZX7GZUy1F1PlZJsIQJKyfw5s43w1AmIj71KsP4g3VEdflnAAC4jMU4XAk0sE6R2JCzNwfHcTi/2fm1Psaeyj2MXD6S7ILs8IWJiN/sIMBYplNsHVJd/hoAnqeIK9gATLZOkdjxdsHbNE5szHmp59X4tdvLt5Oem07O3pwIlImIT7i4XMow8qxDasJfAwDAc3zMFbQD0qxTJHZk7c6iQ0oHejfpXe3XbNq/icHLBvNR8UcRLBMRH3ic4TxsHVFT/ngT4Pft53ZgvXWGxA4Xl+vXXc8r26u3G/X64vX0z+nPhpINES4TEY9bRxm/so6oDe/uBXAs8+lNgPeAZOsUiR3JgWRm9ZzFiBYjjvg9eXvzGLF8BDvLd0axTEQ8qAw4h2GssA6pDX9eAQAYQR4Od1lnSGwpD5Xz45U/ZumepYf9+uKCxQzOHazFX0QA/p9fF3/w8wAA8A5/Be8/bUn8pSRYwpjlY1ix79A/13N2zWFE3ggKKwuNykTEQ7J413/3/b/Lv7cADnqL9gRZBTS3TpHY0jq5NYv7LOb0hqfz0raXuGLNFdrUR0QACnDpwXA2W4fUhf8+BfB909nHFXwKXGydIrGlOFjMnF1zKA4Wc/PHNxN0g9ZJIuINVzKc96wj/v/27j3G8rK+4/jrd2aXcg0LlEIsRClUEbCKQGBhW7Myc2YXVqAINJFyFcUrl5oG2jQK2lRJNApFKtQIdU2l3CwXCzO7dMXislRWTBRQu0opxSyC7IBclr2cX/+Y3bhQLnuZmeec3/m8kslks/+8s5nM893n9/yes6V6fwdgvVFX4/TSGRER0WCVqww5u3TGROjtMwAbmu7jeLB0RkRENNaPdPxF6YiJ0pwdAFjozTr+EzuWTomIiEYZ03GIOZaVDpkozdkBgEE/w6moS6dERERj1DizSYs/TRsAoO0WfK50RkRENMZntH2rdMREa94AAIv9jdodpTMiIqLnLTDWOx/xuymadQZgQ3fYWct92Kt0SkRE9KRHTHew2Z4sHTIZmrkDAHM8hePxQumUiIjoOSvV3tvUxZ8mDwBYd0dzI97XjIiIKVT5iGFLS2dMpmYPANA2H1eWzoiIiJ5xuSFXl46YbM0fAGCNc3Fv6YyIiOh6i435ROmIqdDcQ4Avt8juVluCN5ZOiYiIrvSwlpkGPV46ZCr0xw4AzLZcZS5WlE6JiIiu87TaMf2y+NNPAwAMeQh/ihdLp0RERNdYjfca9uPSIVOpvwYAaLsLZ8h1wRERQa1ylrY7S4dMtf4bAKDtm/hM6YyIiCjuU4Z8vXRECf1zCPDlapVR16icWjolIiKK+KYhJ6v6c0e4P3cAoFLbxVn037ZPRES4yxpn9OviTz/vAKy3wI5qd+OA0ikRETElHrTKLPP6+62wDABwuzcZsAS7lU6JiIhJVFtumsMc6ZHSKaX17yOADc3132pH4+nSKRERMWnGVOZm8R+XAWC9YUu1zMWzpVMiImLCPa/jmHUfEhcyALzUoHtwHFaWTomIiAnzgo555viP0iHdJAPAy7XdqXKc3BYYEdEEq9VOMsei0iHdJgPAKxkyovI+rCmdEhERm22t2qmG3VY6pBtlAHg1Q25SOwud0ikREbHJanzIsGtLh3SrDACvZdg/4ZzSGRERsUlqtY9p+2rpkG6WAeD1tH1Z5fzSGRERsdH+yrArSkd0uwwAG2PIl1T+tnRGRES8jtrF2i4pndELchPgphh1AT5XOiMiIl7RJdouLB3RK7IDsCnGp8oLSmdERMT/88ks/psmOwCbY9SH8GUZoCIiSqtxvrZLS4f0mgwAm2vEySrXYFrplIiIPrVW5QOGXF06pBdlANgSC5yk9g1ML50SEdFnVqmdbNgNpUN6VQaALbXA0WrXY5vSKRERfeJFlT8z5ObSIb0sA8BEGPUulVvVdiidEhHRcM9pOc6ghaVDel0GgImy0CE67sDOpVMiIhpqTO1owxaXDmmCnGKfKIO+r9bG46VTIiIap7Zc5d1Z/CdOdgAm2oi9VL6Nt5ZOiYhoiAcMONqRHikd0iTZAZhowx62yhGqfPZ0RMQE+HfTzcriP/EyAEyGeVZYYY7a10unRET0sGuMmWu2sdIhTZRHAJOpVhn1KZVPyr91RMTGqtU+re1ilbp0TFNlUZoKI05TuQpblU6JiOhyq3CWtvmlQ5ouA8BUGfFulRsxo3RKRESXWqFyvCHfKR3SDzIATKWF9tPxbbypdEpERJd5WOVoQx4qHdIvcghwKg160HQzsaR0SkREF1msdlgW/6mVAWCqzbbcdH+MS0qnREQUV7nKmNmG/ap0Sr/JI4CSRv05rsS2pVMiIqbYSrWPGva10iH9KgNAaaPegZuwV+mUiIgp8j9aTjDo+6VD+lkeAZTW9kMth2CkdEpExBS4XceBWfzLywDQDQb92pC5uBCd0jkREZOgxiUWm2eOp0rHRB4BdJ8R81Tmy30BEdEcz+B0bd8qHRK/lQGgG436Q+PnAg4onRIRsYV+su5yn7zi12XyCKAbtf2X6Waqcjo2InpY7R/VDs7i352yA9DtFjhe7SrsUjolImIjjal92LBrS4fEq8sA0AsW2d0qV6vMKZ0SEfE67jTgNEd6rHRIvLY8AugFsy3XdhTOw4ulcyIiXsFqtYst1s7i3xuyA9BrRhyg8s94W+mUiIh1HlI52ZD7S4fExssOQK8Z9mPbOxSXGX+vNiKipPlqh2Tx7z3ZAehlCwzruEZl99IpEdF3nlB7v2G3lg6JzZMdgF42ZETtnbildEpE9JHajVrelsW/t2UHoClGnYgr8LulUyKioWrL8XHDbiidElsuOwBN0Xa92v6YXzolIhqnNv6sf/8s/s2RHYAmGnEC/j5nAyJii1V+quODhn23dEpMrOwANNGwG7Tsa/xNgbWlcyKiJ63BJaZ5Rxb/ZsoOQNPd4Z1arsJBpVMiomfcr/YBw5aWDonJkx2AppvjB3Y2Exfi+dI5EdHVnlM535hDsvg3X3YA+smdft9an8UppVMioqvUuMGAv3SkR0rHxNTIANCP7jBby2U4oHRKRBR3H87T9r3SITG18gigH82xyHQHGv9woadL50REEb9UO9tih2bx70/ZAeh3C+2m9mm192OgdE5ETLqVal/AZw17rnRMlJMBIMaN2Ffl0zixdEpETJLKbTrOMezh0ilRXgaAeKmFBnV8Hm8vnRIRE+Z+tfPyPn9sKGcA4qUGLTTmIJUzyWngiB73sMppFjs4i3+8XHYA4tVdZys7Oh0X51rhiJ7yJD5vukvNtrJ0THSnDADx+kZsp/Ix45cJzSidExGvovIbtSus8XeO8kzpnOhuGQBi491sB9v4iAwCEd1l/cK/yiXmWVE6J3pDBoDYdL8dBC7ATqVzIvpWFv7YAhkAYvMtMsMa56qdg51L50T0kV/jUpXLDOUyr9g8GQBiyy2ytTVOwl+rvaV0TkRj1ZbjSi1fzMIfWyoDQEyci7TMdLTKhTi8dE5EgyzD5db4iqO8WDommiEDQEyOBWbhE2rHyH0TEZunskjHF7XdplKXzolmyQAQk2uhP9BxLs7CtqVzInrAKtys9gXD7i0dE82VASCmxr/Z1TQfxkfxe6VzIrrQ42pfMeAfDHq8dEw0XwaAmFrX2coMx6p9UOVI+RmMWKp2lR3Md7gXSsdE/8gv3yjndm8x4Azjjwd2KZ0TMYWeVvkXXG7Ij0rHRH/KABDljV81fKLKmWqz5OcymqnGd1W+ZqUbvMfzpYOiv+UXbXSXEXuqvA9nY6/SORET4DF8Q8dXzbGsdEzEehkAojtdpOUIQzhF7ThsVzopYqONX9H7r2rz3eNOF+mUTop4uQwA0f0W2doqQyqn4FhsVTop4hWsVVukZb5pbjLbs6WDIl5LBoDoLQvtouMEnIR3YaBwUfS3NWrf0XKdtW40x1OlgyI2VgaA6F132NmAeThRrS07AzE11mIJrtdybd7Zj16VASCaYZEZVnuP2rFa2mo7lE6KRnkGI7hF5dZ8EE80QQaAaJ7rDNjJTLV5OAZvLZ0UPekXKgt13OZpI06yqnRQxETKABDNN2JfLXPUhoyfG8gbBfFKnsVdWKDldoN+VjooYjJlAIj+cp2t7OTwdWcGhnCgHCTsV2vxA7VRlQXG3JP/5Uc/yQAQ/W2R7a11mLVm4QiVP5HDhE21Fj/E93C3jjtzaj/6WQaAiA0tsr3VDscsHLrua8eyUbGZxnCv2hID7rbWPYY9VzoqoltkAIh4LRdpmWVftUNx2Lrv+2F64bJ4qdV4APdiicq9Bv1EpS7cFdG1MgBEbKr7TPekNxtwkNpBOAhvx/aFy/rFs/gpHsRSlaW2szQfpRuxaTIAREyUUW/Qsp+O/VX2U9tf5Y9yJ8FmexE/xwNqD6o8oONBSzyUu/UjtlwGgIjJVKuM2kNtHy17Yx+1fVT2Vtk7w4Fn8AssU1um8nOVZVZbZq7HsoUfMXkyAESUdJud/I49dLxRy55qe2BPvAG7Ydd1X62SmZuhgyfWfT2OX+JRPKr2v1oeMc2jZhsrGRnRzzIARHS76wzY1a7W2FXHrthZZYbKDJ113ysz1LZV20Fla2xj/MKjrYy/xbDhALH+7zf0AlZu8OcOnsYqPKfyvI4XVX6j8rzamNqYljEdKzb4/oRpnnCXX2WbPqK7/R/ekZWlyzUTdQAAAABJRU5ErkJggg==;" vertex="1" parent="1">
          <mxGeometry x="80" y="1014" width="22" height="22" as="geometry" />
        </mxCell>
        <mxCell id="mUVZ_eBPIsCB5TYUY8Db-28" value="" style="shape=image;verticalLabelPosition=bottom;labelBackgroundColor=default;verticalAlign=top;aspect=fixed;imageAspect=0;image=data:image/png,iVBORw0KGgoAAAANSUhEUgAAAgAAAAIACAYAAAD0eNT6AAAABHNCSVQICAgIfAhkiAAAAAlwSFlzAAAOxAAADsQBlSsOGwAAABl0RVh0U29mdHdhcmUAd3d3Lmlua3NjYXBlLm9yZ5vuPBoAACAASURBVHic7d15lJx1mfbx7/1UdRaSAIZkWNKpqgQUIS6DkbDroL7nFQRlcJsRRFbRUYfRcWEcR3EdxREVF7YAihsiIi6AvuIoSkSiUVHDIgldVVkQSKKE7Omu3/tHdUOWXqqqq+p+lutzDkeSdD11HUn3fdXv9yyGiMRWgIgDDpjOpEnTqdWmE8J0QtgHmE4U1X8N9d+r/3oCMG3w5ZOAyYP/PgWY0ODbbgM2Dv77ZmDL4L8/gdk2arV1mK0F1mG2jlpt3ZP/braWKFrHli3rWL16nUFtvP8fiEhnmHcAkSwLxeL+mBWp1QqYFYACZiVCKACzgBm+CcdtDbAaswohlIEqIVSJoiohVKhU/mIQnDOKZJIKgEgHhfnze3j00YPJ5eZRqx2MWQkoEMLQwJ/om9DdVkKoYlalXg4qRNH9DAwsZc89/2xLl27zDiiSVioAIm0QIE+hUADmAYdiVv/f+q8nuYZLrn6gCtyL2VJqtXuBpUTRUiuXt4zxWhEZgwqASJNCb+90crkjgOcBz6I+6J9J43vsMj7bgPuBe4E/Ab9jYOBXtnLlOt9YIsmiAiAyigA5CoVnAvOJomMI4Vjqwz5yjia7exizO6nVFgFLmDDh17Zs2VbvUCJxpQIgsoNQLO5PCM8niuYTwnzgWGBv71zSkk3A7zBbQq22BLNfWKXS5x1KJC5UACTTQrE4B3gRcDxwHFDwTSQdVgXuIIQfY3a7VSoPewcS8aICIJkSSqX9qNVegtnQ0C85RxJffwJ+DPyYLVt+bo88snGsF4ikhQqApNrgHv7fAy/B7GTgKLR/L8PrB+7B7HZqtduZOfMOW7Jku3cokU5RAZDUCQccMIMJE15GCCcB/wfYyzuTJNI6zH4C3Mq2bT+w1avXeAcSaScVAEmFUCzOIYSXY3YS8EKgxzuTpEqN+gmFPyCEb1qlcp93IJHxUgGQxAqFwjyi6DWE8ErqN9wR6ZalmH2bWu0Gq1aXeocRaYUKgCTKDp/0Xw0c451HhPqdCr+llQFJGhUAib0wa1YvudzrMDsNeI53HpERmf2RWu1r9PR83ZYvX+EdR2Q0KgASS6G3dzJRdBJmZwAvBfLemUSaUAPuIoTrmDDhelu2bL13IJFdqQBIbAQwisXjgXOAU4A9nCOJtMNm4DuEcA3V6v/q8ccSFyoA4m7w5jxvwOw84EDvPCIdtBKzr2F2mfX1VbzDSLapAIiLABHF4gmYvZEQTkRL/JIt/ZjdRq12JdXqrVbfMhDpKhUA6aowd+5e9Pefidm/AnO984jEwCrMFrJt2+d1syHpJhUA6YpQLD4Ps/MJ4XS0ty8ynK2YfY9a7bNWrS7yDiPppwIgHTO4zH8K8A50zb5IM34JXEKlcrPBgHcYSScVAGm7UCpNolZ7DWb/ATzTO49IgvURwhXk85fbQw897h1G0kUFQNomzJmzL7XavwJvAqZ75xFJkb8SwhXkcp+xvr5HvMNIOqgAyLiFuXML1Gr/Tgjnov19kU7aBnyTgYEP2cqVy7zDSLKpAEjLQqEwlyi6gBDOByZ65xHJkO3A9cB/6/kD0ioVAGlaKBYPIYQPDD6QJ/LOI5JhNUL4FvAhq1bv9Q4jyaICIA0LpVIJ+A9COAfIOccRkafUMPs2Zv9lfX0PeIeRZFABkDGFOXOKhPBeQjgb3bFPJM7qRaC//z9t5coHvcNIvKkAyIhCqbQfIbwfOBfo8c4jIg3bTghXY/Yhq1Qe9g4j8aQCILsJ++47hYkT34rZe4E9vfOISMs2YfY5oui/dR8B2ZUKgDwpzJ/fw2OPnYXZB4H9vPOISNusJYRPMmHCZ2zZsq3eYSQeVAAEgFAs/iNwMXCQdxYR6ZjlwLusUvmOdxDxpwKQcaFUeiYhXAKc4J1FRLrmZ0TRv1lf3z3eQcSPCkBGhd7e6eTzHyCEf0Fn9otkUQ34GlH0Lt1eOJtUADImQI5C4S2D+/x7e+cREXd/I4SLqFa/YNDvHUa6RwUgQ0KhMB/4ImYLvLOISOzcA/yLVSq/9A4i3aECkAGhUHgaUXQRIbwV3bpXREYWgK+Sz7/Tli9/1DuMdJYKQIoFMIrFc4CPA/t45xGRxFhHCBdSrS60eimQFFIBSKlQKMzF7ArgJd5ZRCSxFmF2rpXL93sHkfZTAUiZAPnBk/w+CkzxziMiibcFs08wZcrHbOnSbd5hpH1UAFIkzJnzHEJYSAiHe2cRkdT5A1F0nvX1LfYOIu2hApACYd68CWzY8F/AheiafhHpnH7gYqZO/aBWA5JPBSDhwuzZzyKKvgw8zzuLiGTGUkJ4g1WrS7yDSOt0SVhCBciHQuE9RNFv0PAXke6ah9mvQqn08TBv3gTvMNIarQAkUCiVnkmt9mXd0EdE3Jn9mhDeYJXKfd5RpDlaAUiYUCicQQi/0fAXkVion3T821AoXBD0oTJR9B8rIUKptDchXAb8k3cWEZFhhfBd+vvPtdWr13hHkbGpACRAKBaPB74CzPLOIiIyhkeAs6xSuc07iIxOWwAxNnii338Dt6PhLyLJsC/wg1AqfTzosuRY0wpATIXe3lnk898ghOO8s4iItCSExUTRa61cLntHkd2pAMRQKBZfBHwN2M87i4jIOK0B3mCVyq3eQWRn2gKIkQC5UCpdBPwYDX8RSYcZ1LcEPhvmz+/xDiNP0QpATIQDD/w7+vuvB473ziIi0iF3EEWvtb6+R7yDiApALIRi8TDgJqDkHEVEpNNWYfYqK5d/5R0k67QF4CwUCqcDi9DwF5FsmEUIPwuFwnneQbJOKwBOAuQplT5CCO/xziIi4sLsSqZMeZueLOhDBcBBOOigmWzffhNwrHcWERFnvySKTtV5Ad2nAtBlg4/v/R4wxzuLiEhMrAJebpXKb72DZInOAeiiUCq9lCi6Ew1/EZEdzQLuCKXSKd5BskQFoEtCoXABIfwA2Ms7i4hIDE0lhJsG74UiXaAtgA4L8+f3sGbNZcA53llERBLiWmbMON+WLNnuHSTNVAA6KMycOZU99vgmcKJ3FhGRhPkJudwr7aGHHvcOklYqAB0SSqX9Bpf853tnERFJqD+Rz59oy5ev8A6SRioAHRCKxUOA24CidxYRkYRbjdnLrFz+vXeQtNFJgG0WZs8+jvqd/TT8RUTG7wBC+Gkolf7BO0jaqAC0USgUTiKKfgQ8zTuLiEiK7E0IPwyFwqu8g6SJCkCbhGLxdZjdBEz2ziIikkITMbs+FIu6oqpNVADaIBSLbwG+AuhZ1yIinZMDrgrF4ju9g6SBCsA4hULhPcDn0f+XIiLdYMAnQ6n0ce8gSaerAFoUwCiVPk0IF3hnERHJqC9QqbzNIHgHSSIVgBYEMIrFzwJv884iIpJxV1OpvNGg5h0kaVQAmjQ4/D8P/It3FhERAeAbVCpnGPR7B0kSFYAmBMhRKCzE7EzvLCIisgOzGyiXT1MJaJwKQIMC5CkWvwy8zjuLiIgM60ZmzHidHiLUGJ253oAAOYrFa9HwFxGJs1exZs31AfLeQZJABWAMg3v+lwGne2cREZExnUqx+A2VgLGpAIwigFEofBE4zzuLiIg07FUUCguDZtyodA7ACHS2v4hI4l1LpXKuLhEcntrRSEqlT6PhLyKSZGdRLF7qHSKuVACGEUqlD+oOfyIiqfCWUCx+xDtEHGkLYBeDD/b5vHcOERFpq3dZpfI/3iHiRAVgB6FYPA24Dq2MiIikTQDOs0rlau8gcaECMCgUCidjdhO6dEREJK0GCOGfrVr9lneQOFABAMLs2ccRRT8CJntnERGRjtqC2QlWLv/MO4i3zBeAUCweAtwJTPfOIiIiXbGeKDrO+vr+4B3EU6YLQCgW9wfuAoreWUREpKtWkc8fZcuXr/AO4iWzJ7uFgw+eBtyChr+ISBbNor//1lAq7e0dxEsmC0CYP7+HzZu/BRzmnUVERNw8ixBuCvPmTfAO4iGTBYA1ay7D7P96xxAREXfHs2HD5d4hPGSuAIRi8Z3AOd45REQkNs4KxeK7vEN0W6ZOAgyl0ksJ4QdAzjuLiIjESg2zU61c/q53kG7JTAEIhcKhmP0S2Ms7i4iIxNIGouhY6+u7xztIN2SiAIRZs/Yhn78bONA7i4iIxFqFKDrC+voe8Q7Saak/ByDMn99DPn8zGv4iIjK2IrXad7JwZUDqCwBr1nwGONY7hoiIJMZRPPHEpd4hOi3VWwChUHg9Ztd55xARkQQK4Y1WrV7lHaNTUlsAQrF4GLAIPeBHRERas50QjrdqdZF3kE5IZQEYPOnvN0DJO4uIiCTaw9Rqz7cVK1Z7B2m31J0DECBHPv8tNPxFRGT89ieKvh4g7x2k3VJXACgWPwgc7x1DRERS44UUCh/yDtFuqdoCCMXii4D/h+70JyIi7RWo1U6xFSu+5x2kXVJTAEKptB8h/A7YzzuLiIik0jrM5lu5XPYO0g6p2AIY3Ju5AQ1/ERHpnOmEcH1abhKUigJAofBhQjjOO4aIiKTeEWzY8FHvEO2Q+C2AUCq9kBB+gvb9RUSkOwJwklUqt3oHGY9EF4BQKDwNs98DBe8sIiKSKY8QRc9N8kODkn1dYxRdTgga/p0yaRKUSvV/DjgAJk+GqVNh4kTYuhU2bIAtW2D1aujrg3K5/msR6YzJk6FYhDlz6t+Tkybt/j25eTOsWgWVSv37cutW79RptS+12rUBXmb1FYHESewKQCiVzieEy71zpMrMmXDssXD44bBgARx4IFiTf0WWL4fFi+HXv4Y774RHH+1MVpEs2HdfOOaY+vfjggUwd25zrw8Bli2rfz8uXlz/nlyzpjNZs8rszVYuJ3IWJbIAhFLpmYSwBNjDO0vi7bknvPSl8IpXwJFHQq6Np1LUanD33fDd78Jtt8Hjj7fv2CJptddecOKJ9e/JBQsgauO52gMDcNdd9e/JH/4QnniifcfOrk3A861Suc87SLMSVwAC5CkUFmG2wDtLos2cCaedBuecA9Omdf79tm2DH/wALr20vlUgIjvr7a1/P772tbBHFz7bbNwIN9wAV11V38aT8fgdM2YcYUuWbPcO0ozkFYBi8X3Ah71zJNaMGfDud8Opp0Le4RSQ/n64+Wa4+GJtD4hAfZn/3e+uf+L3+p688Ub45Cdh7druv39ahPABq1YTdbvgRBWAMGfOc6nVFgOpuAlDV+XzcMYZ8Pa3d+cT/1g2bYIrr4QvfrG+OiCSNUPfk+94R/1EPm/r18Nll8HChbA9UR9k46KfWu0oW7HiN95BGpWYAhDmz+9hzZq7gPneWRKntxc+9zk47DDvJLv785/hbW+DBx7wTiLSPXPnwuc/D4ce6p1kd3/8Y/17Ult1rbh38FbBibgcKjl3Alyz5gNo+DfvxBPh1lvjOfwBnvGM+glJZ5/tnUSkO175Svj+9+M5/AGe/Wy45RY45RTvJEl0KLXa+71DNCoRKwChWDwMWEzS71vQTWZw4YVw/vneSRp3zTXwkY/Urx4QSZsogve/H8480ztJ4y67rH6+TkjkZe5eBqjVjkzCVkDsC0CAPMXir9Cn/8blcvCxj9XPJk6aH/4QLrhANy+RdOnpgUsugZNP9k7SvJtuqp+k2N/vnSRJ/sCMGc+P+1UB8d8CKBT+HQ3/xuXzcMUVyRz+UL8nwcKF9TuciaTBpEn11a0kDn+oXzF0+eU+Vygk13NYu/ad3iHGEusVgNDb+3RyuXuAyd5ZEsGsvlz36ld7Jxm/xYvhrLPq1yqLJNWkSfVCe+yx3knG7+ab61cRaTugUVuBw+J8g6DYrgAEMHK5y9Dwb9yFF6Zj+EP9DmhXXqmVAEmuSZPg6qvTMfyhflLgu9/tnSJJJhLC5SHGH7RjWwAoFs8BXuwdIzFOOilZJ/w14phj4LrrYMoU7yQizRn65H/MMd5J2uvNb67fsEgaY/YCCoVzvWOMJJbNJPT2TieXewCY4Z0lEYrF+mU7cbiZSCdoO0CSJE3L/sPZuLH+gaOvzztJUqyjp+eZtmzZY95BdhXPFYBc7mI0/BuTz9dvKJLW4Q/aDpDkSNuy/3CmTIHPfEYnBTZuOtu3/7d3iOHErgCE2bMPB87yzpEYZ55Zv3FH2mk7QOIurcv+w3nuc+H0071TJMnZoVR6oXeIXcVqCyBAjmLx10BMb1sXMzNmwE9/Go97+3eLtgMkjtK+7D+cDRvg+OPhsditbMfVn5gx43lxujdAvFYACoW3oOHfuHe/O1vDH7QdIPGThWX/4UydWr8sUBr1LNaufYt3iB3FZgVg8MS/B4Hp3lkSYf/94Re/yO4+nFYCJA6y+Ml/R/398IIXwOrV3kmS4gnMnmHl8l+8g0CcVgCi6GNo+DfuvPOyO/yhvhJw7bU6J0D8ZH34Q/1n0Fk6ZasJ04APeocYEosVgFAozMPs9+hhP43Zc0+46y4NP4BFi+Ccc2BLIp6+KWkxtOyfhRP+xrJxIxxxRP2cAGlEjRAWWLW6xDtIPFYAoujTaPg37sQTNfyH6OoA6bYsne3fiClT6s/wkEZFmP2PdwiIQQEIxeI/EsL/8c6RKC9/uXeCeNF2gHSLlv2Hp59JzfqHUCye6h3CdQsgzJs3gQ0blgIHeeZIlJkz4Ve/qj/yV3am7QDpJC37j6y/v17E163zTpIky5k69VBbunSbVwDfFYAnnngTGv7NOfZYDf+RaDtAOkXL/qPL5+Hoo71TJM2BgzPQjVsBCDNnTsXsvV7vn1iHH+6dIN60HSDtpmX/xixY4J0gecz+Kxx00J5eb++3ArDHHu8G9nV7/6Q64gjvBPGnEiDtouHfOP1sasUMtm9/l9ebu5wDEA488O/o719G/ZpIadSkSXDvvRC5n7uZDLpZkIyHhn9zajU45BDYutU7SdJspr//GbZq1cpuv7HPJOnvvwgN/+aVShr+zdBKgLRKw795UQSzZ3unSKLJ5HLv83jjrk+TMGdOETin2++bCqWSd4LkUQmQZmn4t27OHO8EyWR2bpg79xndftvuf5wcGLgImND1902DAw7wTpBMeoCQNCqrD/ZpF/2MalWO/v6unxTf1QIQensPwkwPkW7V1KneCZJLlwjKWHSp3/jp+6t1ZqeHUumZ3XzL7q4A5HIXoVv+tm7yZO8EyabtABmJlv3bQ99b45EjhP/q5ht2rQAM7m/8U7feL5UmTvROkHzaDpBdadm/ffQhZbz+KfT2Prtbb9a9FYD+/g8BuoXdeOjymvbQdoAM0bJ/e23e7J0g6SLy+a5dEdCVAjC49/+qbrxXqumbq320HSBa9m8/3XNj/EJ4VSgUDu3GW3VnBSCXey/69D9+et52e2k7ILu07N8ZmzZ5J0iDCOjK3QE7XgDCgQfOBk7r9PtkwsMPeydIH20HZI+W/Ttn1SrvBOlgdloodf7GL51fAejvfze67r89+vq8E6STtgOyQ8v+nVUueydIix5C6PgqQEefBTB4z/8yoFND22Hy5PqzAMzlEQ7pp2cHpJuGf2fpWQDttpVaba6tWLG6U2/Q2RWA/v4L0PBvn82btQrQSTonIL205995y5Zp+LfXRHK5f+3kG3SsAIQDDtgDOL9Tx8+su+/2TpBuOicgfbTn3x362dR+IZwfZs7s2C1gO7cC0NNzNrBPx46fVb/+tXeC9NM5AemhZf/uUQHohL2ZPPnsTh28IwUg1C/5u6ATx868O++s77VJZ2k7IPm07N89/f1w113eKdLJ7O2hQ7fQ78wKQLF4CnBQR46ddY8+qqbdLdoOSC4t+3fXXXfB2rXeKdKqRKFwSicO3KktgLd36LgC8L3veSfIDm0HJI+W/btPP5M6y+wdHTlsuw8YisXDgN+2+7iyg732qjfuPfbwTpIdixbBOefAli3eSWQ0Q8v++uTfPRs3wlFHwfr13knSrVZbYCtWtPUksPavAITQ0csWBHj8cfjmN71TZIu2A+JPy/4+vvENDf9uMHtL2w/ZzoOFQuFpmK0E9NG00/bfH37xC8h35NwQGYluFhRPWvb30d8PL3gBrO7YvWrkKVvJ5wu2fPmj7Tpgu1cAzkPDvzsefhhuvtk7Rfbo6oD40dn+fm68UcO/eyYyMNDWSwLbtgIQIKJYXAbMadcxZQwzZsBPfwrTpnknyR6tBMSDPvn72bABXvSi+pVJ0i1VKpW5BgPtOFj7VgCKxRPQ8O+uNWvgc5/zTpFNujrAn4a/r0su0fDvvgKl0kntOlj7CoDZG9t2LGnctdfC0qXeKbJJ2wF+tOzv649/rJ8UK90XwrntOlRbtgBCqbQfIVSBnnYcT5pUKsEtt+jTqBdtB3SXPvn72rgRTj4ZHnrIO0lWDZDPz7Hly1eM90DtWQEI4Ww0/P2Uy/D+93unyC5tB3SPhr+/971Pw99Xjv7+N7TjQOMuAKG+inBWG7LIeHz723DNNd4pskvbAZ2nZX9/CxfCd77jnULg7NCG+T3+FYBC4UXovv/x8OEP14uA+NDNgjpHN/nx9/3vw8c+5p1C6uYMzt5xGX8BMOvYowqlSSHAhRfWbxAkPrQS0H765O/vF7+Ad7xDTyKNE7Nzxn2I8bw4HHzwNLZs+Qu6+U+8aJ/Un04MbA/9Xfa3eDGceSZs2uSdRHa2BbP9rVz+W6sHGN8KwNatr0TDP362bIFzz4U77/ROkl06MXD8NPz9afjH2SRCOHU8BxhfAQjh9eN6vXSOSoA/lYDWafj70/BPgnHN4Ja3AEJv7yxyuQqQG08A6TD9IPWn7YDm6O+sPw3/pAiYzbVyudzKi1tfAYii09Hwjz+tBPjTSkDjNPz9afgniRHC61p9cesFwKzlN5UuUwnwpxIwNg1/fxr+SXRaqy9sqQCEOXMOBp7T6puKA5UAfyoBI9Pw96fhn1SHhtmzn9XKC1tbARgY+KeWXie+VAL8qQTsTsPfn4Z/suVyr27lZa0VALPXtPQ68acS4E8l4Cka/v40/JMvhNe28rKmC8DgUsOhrbyZxIRKgD+VAA3/ONDwT4uDQ2/vs5t9UfMrAC0uNUjMqAT4y3IJ0PD3p+GfLi3M5uYLQAivbPo1Ek8qAf6yWAI0/P1p+KfRq5p9QVM3AgqzZx9IFC1r9k0k5vQD2V9Wbhakv2v+NPzTK4qeaX19DzT85U0e/JSmA0n8aSXAXxZWAjT8/Wn4p1ut9vJmvry5AmD2iqa+XpJDJcBfmkuAhr8/Df8saGpGN7wFEGbN2od8/i9AvulIkhz6Qe0vbdsB+jvlT8M/K2qYzbJy+S+NfHHjKwA9PSej4Z9+Wgnwl6aVAA1/fxr+WRIRwssa/+JGNXFQSTiVAH9pKAEa/v40/LPopEa/sKECEOqf/F/SchxJHpUAf0kuARr+/jT8s+rFYd68CY18YWMrALNnHwXsPZ5EkkAqAf6SWAI0/P1p+GfZNDZuPLqRL2ysAJidMK44klwqAf6SVAI0/P1p+Eut9n8b+bJGC8BLxxVGkk0lwF8SSoCGvz8Nf4GGP7SPeRlgKJX2I4TVjXytpJx+wPuL6yWC+rvhT8NfnhKo1XptxYrVo33R2CsAtdpL0PAX0EpAHMRxJUDD35+Gv+zMMBvzxP2xC4DZi9oSR9JBJcBfnEqAhr8/DX8Z3vFjfUEj5wCMeRDJGJUAf3EoARr+/jT8ZWQvHusLRi0AoVCYC5TalUZSRCXAn2cJ0PD3p+EvozGbHXp7DxrtS0ZfATDTp38ZmUqAP48SoOHvT8NfGhFFo27hj7UFoAIgo1MJ8NfNEqDh70/DXxo1xof40QtACC9oaxhJJ5UAf90oARr+/jT8pTkvHO0PRywAYfbsAzCb3f48kkoqAf46WQI0/P1p+Evz9g9z5xZG+sORVwCi6KiOxJH0Ugnw14kSoOHvT8NfWtXff+RIfzTaFsARHYgiaacS4K+dJUDD35+Gv4yH2YizfOQCEIIKgLRGJcBfO0qAhr8/DX8Zv+YKQIA8ZvM7l0dSTyXA33hKgIa/Pw1/aY/5Yd68CcP9wfArAMXic4AY3GdUEk0lwF8rJUDD35+Gv7TPJNavf+5wfzDSFsCIJw2INEUlwF8zJUDD35+Gv7Sb2bAzffgCMMpJAyJNUwnw10gJ0PD3p+EvnTDCTB++AISgFQBpL5UAf6OVAA1/fxr+0jnDznTb9TdCb+90crk1w/2ZyLhp0PhbvBjOOgs2bqz/Wv9N/Gn4S6dF0X7W1/fITr+12xflckei4S+dopUAfzuuBGj4+9Pwl24YGFiw628NtwVwWBeiSJapBPhbsAC+9KV6EdDw96PhL93zvF1/Y7gC8KwuBJGsUwnwd/jhcJTu+O1Gw1+6KYrm7fZbu32R2W5fJNIRKgGSVRr+0m0hjF4AAuQJ4RndSySZpxIgWaPhLz6evusdAXdeASgWnw5M7GYiEZUAyQwNf/HTw/r1O33A37kADLNEINIVKgGSdhr+4i2X22nG73oOgAqA+FEJkLTS8Jc42OVD/s4FYJizBEW6SiVA0kbDX+JjlAKgLQCJA5UASQsNf4mX4QtAmD+/B3h61+OIDEclQJJOw1/i56DQ2zt56BdPrQA8+ujBQI9HIpFhqQRIUmn4Szzl6Ol58kqApwrALmcHisSCSoAkjYa/xFmt9uSsj3b4zYNdwoiMRSVAkkLDX+LvmUP/8lQBMCs5BBFpjEqAxJ2GvySBWXHoX3e8CqDgEEWkcSoBElca/pIUITw563csAMVhvlQkXlQCJG40/CVZdl4BCGBAr1sckWaoBEhcaPhL8vQGyMHQCkCxuB8wyTORSFNUAsSbhr8kUw+zZu0PQwXATPv/kjwqAeJFw1+SLJ8vwFABqNW0/y/JpBIg3abhL0k3eCVAtOMvRBJJJUC6RcNf0mGHAqBLACXpVAKk0zT8JS0GLwXUCoCkh0qAdIqGv6TLDisAIagASDqoBEi7afhL+uy0BaB7AEh6qARIu2j4SzrNBrAAOYrFbex8V0CR5Js0CRYuhGOP9U4i3MrOvwAAIABJREFUSaThL2k2derEiAMOeBoa/pJGWgmQVmn4S9pt2vS0iIkT9/HOIdIxKgHSLA1/yYKBgX0iarXp3jlEOkolQBql4S/ZMT0CVAAk/VQCZCwa/pIlIUyPCEFbAJINKgEyEg1/yZpcbp+IKNIKgGSHSoDsSsNfsmhwBUAFQLJFJUCGaPhLdukcAMkolQDR8JcsC0EFQDJMJSC7NPwl66JIJwFKxqkEZI+GvwiEsE9EFD3NO4eIK5WA7NDwFxkyPSKEyd4pRNypBKSfhr/IjqZEwATvFCKxoBKQXhr+IjsLYXIETPTOIRIbKgHpo+EvsjuzPbQCILIrlYD00PAXGcnkCOjxTiESOyoByafhLzKayVoBEBmJSkByafiLjMV0DoDIaFQCkkfDX6Qh2gIQGYtKQHJo+Is0LBr8R0RGoxIQfxr+Ik3R8BdplEpAfGn4izRNBUCkGSoB8aPhL9ISFQCRZg2VgF/+0juJLFmi4S/SIhUAEUmuEMDMO4VIIqkAiDRr0iRYuBCOPto7iTz/+XDttTBlincSkcRRARBpxtDwP/ZY7yQyZMEClQCRFqgAiDRKwz++VAJEmhYBNe8QIrGn4R9/KgEiTYmA7d4hRGJNwz85VAJEGhYBW71DiMSWhn/yqASINCQCtnmHEIklDf/kUgkQGUvQFoDIcDT8k08lQGQ0m7UCILIrDf/0UAkQGclmnQMgsiMN//RRCRDZXQibtAIgMkTDP71UAkR2ZrY5wmyzdw4Rdxr+6acSILKjjRG12jrvFCKuNPyzQyVAZMjaCDMVAMkuDf/sUQkQAbN1EbDWO4eICw3/7FIJkKwLQSsAklEa/qISINm2TucASPZo+MsQlQDJrnURoAIg2aHhL7tSCZAsMlunLQDJDg1/GYlKgGTNwMC6CDOdBCjpp+EvY1mwAK68sv53RSTtzNZGRJFWACTdNPylUcccA9ddp5UAST+zdRFbtqgASHpp+EuztB0gWRBF6yxAjmJxGxB55xFpKw1/GY/Fi+Gss2DjRu8kIu03derEyGAA+Jt3FpG20vCX8dJKgKTXelu6dNvQp/6VrlFE2knDX9pFJUDSaQUMLfubVVyjiLSLhr+0m0qApE8FhgpACCoAknwa/tIpKgGSLjsUAKg6BhEZPw1/6TSVAEkLsypoBUDSQMNfukUlQNJhhxWAKNIKgCSThr90m0qAJF2tphUASTgNf/GiEiBJNjBQATCAAEaxuAnQTbAlGTT8JQ50syBJnu1UKpMNBiIAg4DuBSBJoeEvcaGVAEmelYM3ANzp9r86D0DiT8Nf4kYlQJLlyVm/YwHQeQASbxr+ElcqAZIUO9z476kCoBMBJc40/CXuVAIkCUIYZgUgih5wCSMyFg1/SQqVAIm/+4f+5akCMDDwJ5coIqPR8JekUQmQOIuiJ2f9UwXg7/7uAWC7Rx6RYWn4S1KpBEg8DbB9+5+HfvFkAbAlS7YDy1wiiexKw1+STiVA4me5rVy5eegX0S5/uLTLYUR2p+EvaaESIPGy04zfuQCYqQCILw1/SRuVAImPnc7127kA1Go6EVD8aPhLWqkESBzs8iFfKwASDxr+knYqAeJtYGCUAlCpPAhs7WYeEQ1/yQyVAPHTz8SJD+74GzsVAIN+YKcvEOkoDX/JGpUA8fGgLVu20wf8Xa8CgF1OEhDpGA1/ySqVAOk2s91m+3AFQOcBSOdp+Pv7zW/grru8U2SXSoB01727/sZwBeC3XQgiWabh72/xYjjjDDjrLLjzTu802aUSIN1Sqy3Z9bd2LwADA78CQjfySAZp+PtbvBjOPBM2bYItW+Dcc1UCPKkESDfkcot3/a3dCoCtXLkOnQgonaDh72/H4T9EJcCfSoB01nLr63tk198cbgsAzH7V8TiSLRr+/oYb/kNUAvypBEjnDDvThy8AIdzd0SiSLRr+/kYb/kNUAvypBEgnjDDThy8AI7QFkaZp+PtrZPgPUQnwpxIg7RZCEysAlcofgI2dzCMZoOHvr5nhP0QlwJ9KgLTPFvbc857h/mDYAmDQTwi7XTIg0jANf3+tDP8hKgH+VAKkPZbY0qXbhvuDkbYAIIq0DSCt0fD3N57hP0QlwJ9KgIzfiLN85AKgEwGlFRr+/tox/IeoBPhTCZDxGGWWj1wAQPcIleZo+Ptr5/AfohLgTyVAWtXTM+IKgI32ulAsVoBC2wNJ+mj4++vE8N+R/hv7W7y4fvvmjTpHWxqy2iqVWSP94WgrAAA/b3MYSSMNBn+dHv6glYA40EqANOeO0f5w9AIQwo/bGkXSR8PfXzeG/xCVAH8qAdIos1Fn+OgFIIr+H3owkIxEw99fN4f/EJUAfyoB0ohc7vbR/njUAmDl8l8Y5hnCIhr+MeAx/IeoBPhTCZDR3W/Ll68Y7QvGOgdA2wCyOw1/f57Df4hKgD+VABnZmLN77AIwxh6CZIyGv784DP8hKgH+VAJkOA18eB+7AGzf/jNgaxviSNJp+PuL0/AfohLgTyVAdtbPhAmjXgEADRQAW716E7opkEyaBFdfreHvadEiOOOMeA3/ISoB/lQCZIjZXbZs2fqxvmzsFYA6bQNk2dAn/2OO8U6SXYsXw3nn1QdtXKkE+FMJEGj43L3GCkCtpgKQVVr29xfHZf+RqAT4UwmQBs/dG/VWwEMC5CgWHwWmjyuUJIuGv78kDf8d6e+OP902OKv+RqUy06B/rC9saAXAYACzn4w/lySGfoD7S+rwB60ExIFWArLqp40Mf2j8HACAW1sMI0mj4e8vycN/iEqAP5WALLql0S9svABs3/59GmwVkmAa/v7SMPyHqAT4UwnIkhpm7S8AtmrVWsx0OWCaafj7S9PwH6IS4E8lICvuGryFf0Oa2QKAEL7bdBxJBg1/f2kc/kNUAvypBGRBUzO6uQJQq93c1NdLMmj4+0vz8B+iEuBPJSDdcrnOFQBbsWI5sLSpQBJvGv7+sjD8h6gE+FMJSKv77KGH/tzMC5pbAQAw+3bTr5F40vD3l6XhP0QlwJ9KQBrd2OwLmi8A8I0WXiNxo+HvL4vDf4hKgD+VgHQZGPhWsy9pugBYuXw/2gZINg1/f1ke/kNUAvypBKTFA7Zy5R+bfVErKwAQQtNNQ2JCw9+fhv9TVAL8qQQkn9n1rbystQKQy7X0ZuJMw9+fhv/uVAL8qQQkW63W0ofylgqA9fU9gFnTyw3iSMPfn4b/yFQC/KkEJNV9Vq22tC3f2gpA3dfH8VrpJg1/fxr+Y1MJ8KcSkERfbfWFrReA/v6vAAMtv166Q8Pfn4Z/41QC/KkEJElgHFfmtVwAbOXKVcDPW329dIGGvz8N/+apBPhTCUiKn1ul0tfqi8ezBQBmXxnX66VzNPz9afi3TiXAn0pAEoxrBo+vAOTz3wb00y1uNPz9afiPn0qAP5WAONsy3jvzjqsA2LJl62ny6UPSYT09cNVVGv6eFi2CM87Q8G+HoRKwaJF3kuxasAAuv7z+s0XiI4TvWrn8t/EcYnwrAPUQ14z7GNIeZvCJT8Bxx3knya7Fi+G88+qDS9pjyxY45xytBHg67jj49KchGv/IkLa5erwHGP9/zWr1J8CycR9Hxu8DH4BTT/VOkV365N85Wgnwd9JJ8L73eaeQuvLg7B2XcRcAq1+G8KXxHkfG6dWvru85iw998u88rQT4O/tsfciIh2sMauM9iLUjSSiV9iOEFUC+HceTJpVKcMstOlHHi0746y6d5Opr0yY4+WRYvtw7SVbVyOXm2EMPVcd7oLZs6Fi5/BfMbmvHsaRJPT1w2WUa/l607N992g7wtccecOmlkNfnPSc/bMfwhzYVAABqtavadixp3DnnwCGHeKfIJi37+9F2gK9587Tl6MWsbbO2LVsAAAEiisVlwJx2HVPGMHMm/PSnMHWqd5Ls0bJ/PGg7wM/GjXD88fDoo95JsqRKpTLX2nQb/ratABjUCOHydh1PGnDhhRr+HrTsHx/aDvAzZQq8853eKbLF7PJ2DX9o4woAQCgUnobZSmCPdh5XhjF7dv3Tv/bhukuf/ONJKwE++vvhhS+EVau8k2TBVvL5gi1f3rYll7be1cGq1b8Swg3tPKaM4NxzNfy7TcM/vnTbYB/5fP1cDOm8EK5v5/CHNhcAAMwubfsxZWd77VW/7l+6R8v+8aftAB+vfS3suad3ivQL4QvtPmTbC4BVKr8Dftnu48oOXvay+qU40h062z85dHVA902ZAiec4J0i7X5lK1b8ut0H7dSNnS/p0HEF4BWv8E6QHVr2Tx5tB3TfySd7J0i3ED7VicO29STAIQFyFIsPAAd24viZtu++cNddeihHNyxaVP80qU/+yTRpElx9NRxzjHeS9BsYqD81cO1a7yRpVKZSebpBf7sP3JEpYjBACJ/txLEz79hjNfy7Qcv+yaftgO7J5eDoo71TpFMIn+7E8IfObQFAf//VgOpgux1+uHeC9NOyf3poO6B7jjjCO0EarWfChC916uAdKwC2evUmQriyU8fPrAULvBOkm872Tx9dHdAdKgDtZ3a5LVu2vlOH7+xaci73WWBzR98jSyZPhjm603LHaNk/vbQd0HkHHlg/70LaZSsDAx3dSu9oAbC+vkeAazr5HplSLIJ15LxN0bJ/+mk7oLOiqH6HUmmXa2zFitWdfIPOn02Wz38C2Nbx98kCffrvDA3/7FAJ6KxSyTtBWmwHPtnpN+l4AbDly1cQwtc7/T6ZsP/+3gnSR3v+2aNzAjpn1izvBOkQwtetUunr9Nt053qyWu2jtPEJRpmlJ/+1l/b8s0vnBHSG7lDaDjW68OkfulQAbOXKZYRwYzfeK9UmT/ZOkB5a9hdtB7TflCneCZLP7EarVpd24626eUeZD1FvNtKqiRO9E6SDlv1liLYD2ksfUsarRn//R7r1Zl0rAFat3gtc3633S6WtW70TJJ+W/WVX2g5on8266nucrreVK//YrTfr7j1lBwYuokO3NMwEfWIdHy37y0i0HdAeGzd6J0iyAcw+3M037GoBsJUrHySEr3XzPVNF31yt07K/jEXbAeOnn1GtM/ualcv3d/Mtu/9UmSi6CN0XoDWrO3pPiPTSsr80StsB46OfUa0awOxj3X7TrhcAK5fLhKC7A7aiXPZOkDxa9pdmaTugdX0dv3Q9ra6xvr4Huv2mPs+V7en5APCEy3snWbkMNV1I0TANf2mVSkDzajVYscI7RRJtpr//Qx5v7FIAbPnyR4HPeLx3om3ZAg895J0iGTT8ZbxUAprz5z/rSqXWfMpWrVrp8cY+KwAAmzZdDDzi9v5JtXixd4L40/CXdlEJaNzdd3snSKI19PR05a5/w3ErAPbYYxsI4aNe759YKgCj0/CXdlMJaIx+NjUvhA/bsmXrvd7ebwUAYNq0K4DlrhmS5s47YUCPVRiWLvWTTtElgqPr74e77vJOkTQPMW3a5Z4BXAuALV26DXiXZ4bEWbNG32jD0aV+0mm6RHBkd94J69Z5p0iadw7OQDe+KwCAVSrfwezH3jkS5Xvf804QL1r2l27RdsDwvv997wRJ8zOrVL7jHcK9AABQq70d3SK4cbfdpjtuDdGyv3SbtgN2tmED/OhH3imSpEYI7/QOATEpAFatLiWEq71zJMYTT8A3vuGdwp+W/cWLtgOe8rWv1UuANMZsoVWrS7xjAJh3gCGht3c6udyDwHTvLImw//7w859DT493Eh9a9pc4mDQJFi6EY4/1TuKjvx+OOw4eftg7SVI8gdkzrFz+i3cQiMkKAICtXLmOEFzuhpRIDz8MN97oncKHlv0lLrK+HXD99Rr+zbkoLsMfYrQCABAgR7H4G+DvvbMkwj77wE9/Cnvu6Z2ke/TJX+IoiysBjz8Oxx+vs/8b9ydmzHieLVmy3TvIkNisAAAYDBBF5wO64X0j1q6Fz2Tojsoa/hJXWbw64JJLNPwbFzB7a5yGP8SsAABYX99i4EveORLjuuvgnnu8U3Selv0l7rK0HfD739dP/pNGXWvl8h3eIXYVqy2AIWHWrH3I5+8HZnhnSYRCAW65BaZN807SGfrkL0mS9u2AJ56AE0/Uk/8a91d6eg62Zcse8w6yq9itAADYqlVrCeG93jkSo1qFCy/0TtEZGv6SNGnfDvjP/9Twb0YIF8Zx+ENMCwAA1epC4CfeMRLjllvgssu8U7SXhr8kVVpLwOc/rzuRNiOEn1OtXuUdYySxLQAGgYGBNwObvbMkxsUXww03eKdoDw1/Sbq0lYCbb4ZPfco7RZJsxexNBsE7yEhiWwAAbOXKBzH7sHeOxAgB3vteuP127yTj84tf6IQ/SYehEvCLX3gnGZ/bb4d3vrP+M0Ya9WGrVO7zDjGaWBcAAMrlTwK/9Y6RGP39cP759Rt0JNFtt9V/YOr2vpIWW7bA2Wcnd+n829+GN72p/rNFGmP2R2bMuNg7xlhy3gHG8kGoXbTXXkswO5skFJY4CAF+8hOYOBEOP9w7TeMWLqyfzKgfNJI2tVr9gTnTpsFhh3mnadwXvwgXXVTPL40aIIpeYffeG/szJWNfAAA++PjjD1+0996TgOO8syTKokVw//31e3VPmuSdZmQbN8J73gNXXumdRKRzQoA77oAHH4QXvKBe0ONqw4b6kv8113gnSR6zT1q5/GXvGI2I5X0AhhPmzZvAhg2/Bp7jnSVxZs2CSy+F+fO9k+zuT3+Ct74VymXvJCLd09sLn/tcPFcD7rkH/vVfoVLxTpJE92H2PCuXE7GHmZgCABDmzHkutdpiYIJ3lsTJ5+E1r6m3+ukxeODixo1w1VXwhS/A9ljdHVOkO/L5+smub397PG7itX59/dbi112nbbjW9FOrHW0rVvzaO0ijElUAAEKx+F+AnhrYqunT6yXg1a/2eZRwf3/9KYb/8z+wZk33318kbmbOhHe9C049tV4Kum379vrlw5/6lO7tPx4hfMCq1UTNpuQVAMhTKCzCbIF3lkSbMQNOP71+dnI3nia4cWP9h8xVV8Hq1Z1/P5GkmTkTTjsNzjmnOysCQ9+TV16pR/qO3++YMeOIuD3sZyyJKwAAoVg8BPgNsId3lsSbOhVe+lJ4+cvh6KPb+wlkYAB++cv65U8/+lF9iVFERrfnnk99Tx51FOTaeK52f3/95OCh78kNG9p37OzaTAjPt2r1Xu8gzUpkAQAIpdKbCCFl9751Nn16vQQsWABHHgkHHQRRE1de1mqwbFn9Ln53310f/mvXdi6vSNrtsw8ccwwccUT9+/LAA5v/nnzwwfr34+LF9e9JLfO3l9m/WLmcyFmU2AIAEEqlGwjh1d45UmvCBCgWoVSCAw6APfaofzrp6anvG65fD5s315f0y+X6P9u2OYcWSbGJE3f+npw8effvyU2b6t+TfX31B4Xpe7KTbqNSeVmcb/c7mmQXgELhacA9mM32ziIiIpnyKFH0HOvre8Q7SKsSfWc9q1b/ShS9HtBtqkREpFsCcFaShz8kvAAAWLl8B2af9M4hIiKZcYlVKrd6hxivRG8BDAmQp1j8KXCsdxYREUmxEBYzbdpxtnRp4k+uSPwKAIBBP/39/wzozjIiItIpfyWKXpuG4Q8pKQAAtmrVSuAMdD6AiIi0X8DsLCun58ElqSkAAFap3EYIn/DOISIiKRPCJ6xc/q53jHZKxTkAOxo8H+B24IXeWUREJAVC+DnV6osNUvWUpFStAMDg+QD5/GuAld5ZREQk8R4mhH9O2/CHFBYAAFu+/FHg5cBm7ywiIpJY2wnhNbZiRSqfYJbKAgBglcrvCOF87xwiIpJQIbzFqtU7vWN0SmoLAIBVq18hhMu9c4iISMKYXWfV6lXeMTop1QUAgGnTLgB+6R1DREQS427y+Td6h+i01F0FMJxwwAEz6Om5G5jrnUVERGJtNQMDC2zlylXeQTot/SsAgK1evYYQTgYe984iIiKxtZla7ZQsDH/ISAEAsGr1XuCfgQHvLCIiEjs1zF5nK1b82jtIt2SmAMCTdwp8r3cOERGJmRDea+Xyzd4xuikT5wDsKhSL1wBneecQEZEYCOHLVq2e6R2j2zK1AvCkGTPOJ4QfeccQERF3P2PChEzeMyaTKwAA4eCDp7Flyx3AYd5ZRETExVLMjrVy+W/eQTxktgAAhGJxf+AuoOidRUREumo1+fyRtnz5Cu8gXrK5BTDIKpWHCeFE4K/eWUREpGvWE0UnZnn4Q8YLAAxeHmh2KrDFO4uIiHTcVuAfra/vHu8g3jJfAACsXP4ZtdprSeHjHkVE5EkDhPB6q1T+1ztIHKgADLIVK75HCGcBNe8sIiLSdoEQ3mzV6re8g8SFCsAOrFr9KnCBdw4REWmzEC5M+9P9mqUCsAurVD4PfNQ7h4iItEkIH7dq9WLvGHGT6csARxOKxc8Db/HOISIi4xDCFVSrbzYI3lHiRgVgBAGMQuGLmL3JO4uIiLQghC9TrZ5tOrdrWCoAowhgFItXAOd5ZxERkSaYfYty+XWmq7tGpAIwhgA5isUvAad7ZxERkYbcRKXyWg3/0ekkwDEYDFCpnAlc751FRETGdBs9Pfrk3wAVgAYYDDBjxhnAjd5ZRERkBCF8l6lTT7Fly7Z6R0kCbQE0IUCOUukaQjjDO4uIiOzA7Fvss89ptmTJdu8oSaEC0KTBcwKuAs7yziIiIgBcT6Xyei37N0dbAE0aPCfgHOAL3llERISva/i3RgWgBQaBSuVtqASIiPgJ4QoN/9apALTIIFil8lZCuNA7i4hI5phdOniHP93kp0U6B6ANQqHwNsw+gwqViEinBUL4D6tWP+EdJOlUANokFAqnY3YtkPfOIiKSUgODj/TVU/3aQAWgjUKhcDJm3wQme2cREUmZbYTweqtWb/AOkhYqAG0WSqV/IITvAHt7ZxERSYnHCeGVVq3+xDtImqgAdEAoFA7F7Fag6J1FRCThVmP2MiuXf+8dJG100loHWLV6L3AU8FvvLCIiCfYn8vkjNfw7QysAHRRmzpzKHnvcAJzgnUVEJGH+l1zuVHvooce9g6SVVgA6yB57bAMzZrwCuNY7i4hIYoTwZaZOPUHDv7O0AtAloVC4ALNLUOkSERlJwOxDVi5f5B0kC1QAuigUiycA1wN7emcREYmZjcDrrVL5jneQrFAB6LLQ2/tscrnvASXvLCIiMbGaEF5u1eoS7yBZouXoLrOVK/9IFB0J3OWdRUQkBu4Gnq/h331aAXASIE+p9BFCeI93FhERJ19hYOB8W7lys3eQLFIBcBYKhddjdgW6fbCIZMdWQniPVauf9Q6SZSoAMRCKxecBN6E7B4pI+q0GXmWVirZBnekcgBiwSuW3RNERwB3eWUREOiaEn2M2X8M/HlQAYsL6+h6hUnkxZh8Eat55RETaKGB2KTNnvsTK5b94h5E6bQHEUCgUXozZ14B9vbOIiIzTWuANVqnc4h1EdqYCEFNh1qxe8vnrgWO8s4iItOg3wGusUunzDiK70xZATNmqVSuZMeN44H+A4J1HRKQJAfgUM2YcreEfX1oBSIDBLYEvA7O8s4iIjOFR4CyrVG71DiKjUwFIiHDAATPI5xdi9grvLCIiwwrhR0TRmTrRLxlUABImFApnYPZFYIp3FhGRQVsI4UKq1UtNW5aJoQKQQKFYPAS4Dni+dxYRybwlhHCGVav3egeR5ugkwASySuU+KpWjCOFCYJt3HhHJpH7MPsHUqUdr+CeTVgASbvDxwl8GDvPOIiKZcS+12htsxYrfeAeR1mkFIOFs5co/0tNzFCF8HBjwziMiqTaA2cX09DxPwz/5tAKQIqFU+ntCuAqdGyAi7Wb2R+A8K5fv9o4i7aECkDIB8hQKb8Hso+hKAREZv+2YXcKUKe+3pUt1zlGKqACkVJg9+0Ci6Argxd5ZRCSxFgHnWaVyn3cQaT8VgBQLYBQK52L2cWC6dx4RSYx1hPAfVKtX6br+9NJJgClmEKxavYqBgadjdil6zLCIjC4AXyGfP8Sq1Ss1/NNNKwAZEmbPfj653BcJ4XDvLCISO38ghLdYtXqndxDpDhWAjAmQp1R6KyFcBOzlnUdE3K3H7CLK5c8Z9HuHke5RAcioMGvWPvT0vJ8Q3gLkvPOISNfVgK8RRe+yvr5HvMNI96kAZNzgcwUuAV7qnUVEuuZnmL3dyuXfewcRPyoAAkAoFk8FLgYO9M4iIh3zEPBuq1S+7R1E/OkqAAHAKpWbmDHjEEI4H9ByoEi6rCWECzGbp+EvQ7QCILsJ++47hYkT34rZfwLTvPOISMs2YfY5oui/7aGHHvcOI/GiAiAjCsXi/oTwAczOBnq884hIw/qBa6nVLrIVK1Z7h5F4UgGQMYU5c4qE8F5COBvIe+cRkRHVMPs2UfQ+e+ihP3uHkXhTAZCGhWJxDmYXEsI56NJBkTipD354v5XL93uHkWRQAZCmhULhUKLoA4TwKnQiqYinGmY3Uqt9yKrVpd5hJFlUAKRloVCYSxRdMHjlwETvPCIZUv/EH8IH9KQ+aZUKgIzb4DkC7yCE84DJ3nlEUmwb8E0GBj5sK1c+6B1Gkk0FQNomlEr7Af82uCKwt3cekRT5G2ZXEsJnrFJ52DuMpIMKgLRdmDlzKpMnvw6zdwAHe+cRSbAyIVxOFF1h5fLfvMNIuqgASMcEyFEo/CNm/w4c6Z1HJEHuJoRPUa3eZDDgHUbSSQVAuiIUCvOJojcSwunAHt55RGJoG2bfpVa70qrV273DSPqpAEhXhVJpb2q1N2D2b0DJO49IDDyM2ZXk81+wZcse8w4j2aECIC4C5CiVThq8cuCl6MZCki0DwI+AhVQq39Myv3hQARB3YfbsAzB7PWbnoccRS7qtwuyrwOVWLpe9w0i2qQBIbASIKBRePPjwoVegewpIOmwGvksI11Ct/sSg5h1IBFQAJKbCQQftybZtp2D2auAEtEUgybOEEL7CwMBXbdWqtd5hRHalAiCxF+ab7dOyAAACnUlEQVTOLTAwcDpwGnCodx6RUdwHfI0o+qr19VW8w4iMRgVAEiUUCvOIolcTwmuAQ7zziAB9mH2fWu1bVq3e6R1GpFEqAJJYobf32eRyrwFeicqAdNd9wLeJom9ZX98fvMOItEIFQFIhFItzCOHlmJ0E/AOQd44k6VIDfofZD6jVbrBq9V7vQCLjpQIgqRMOPPDv6O8/GTgJeDEwzTmSJNPjwP8Ct5LPf8+WL3/UO5BIO6kASKoNPo/g74mikwnhJOB56O+9DG8A+D1mt1Or3c60aT+3pUu3eYcS6RT9IJRMGbzp0EuAFwEvwmy2dyZxdT/wY0L4MZMn/8weeOAJ70Ai3aICIJkWensPIoqGysBxwAHemaSjVgN3YPZjcrnbbfnyFd6BRLyoAIjsYHCFYD5RNJ8QjgGOQXckTKrtwB8wW0SttgRYYtXqUu9QInGhAiAyigB5CoWDgWMwOxaYT/2SQ33vxM/D1O++dyewiCj6jZXLW7xDicSVfoiJNCkcdNBMtm07EngeUTSPEOYBTwd6nKNlRT/wILAUs6XUakvo6blbZ+mLNEcFQKQNwvz5PTz22GxgHnAoZvOorxYcjJ5jMB71T/X1QX8vsJRa7V5buXKzdzCRpFMBEOmgcNBBE9m+/VDq2wbPxKxICEWgAPSiVYPtwCpCqGJWAcrAA8C9mN2nJXyRzlEBEHESIMesWfuTyxUxK2JWoFar/y8UgdnAns4xx2s9sAKoEEKVKKoSQoUQKgwMVFi16mGrX38vIl2mAiASY2H+/B7Wrt2HWm06MJ0QppPL1f8X9iGE6UTRdELYB3gasDf1LYc9gQnAlHFG2Ahsoz7IB4C/AX/DbC212lrM1gHrMFvLwMC6J38dReuYMmWdbqQjEl//H0d2QrwLXZo/AAAAAElFTkSuQmCC;" vertex="1" parent="1">
          <mxGeometry x="81" y="1060" width="20" height="20" as="geometry" />
        </mxCell>
        <mxCell id="mUVZ_eBPIsCB5TYUY8Db-29" value="&lt;font style=&quot;font-size: 14px;&quot;&gt;条件　を満たしていません&lt;/font&gt;" style="text;html=1;strokeColor=none;fillColor=none;align=left;verticalAlign=middle;whiteSpace=wrap;rounded=0;" vertex="1" parent="1">
          <mxGeometry x="110" y="1055" width="220" height="30" as="geometry" />
        </mxCell>
        <mxCell id="mUVZ_eBPIsCB5TYUY8Db-30" value="&lt;span style=&quot;font-size: 18px;&quot;&gt;パスワード（確認）&lt;/span&gt;" style="text;html=1;strokeColor=none;fillColor=none;align=center;verticalAlign=middle;whiteSpace=wrap;rounded=0;" vertex="1" parent="1">
          <mxGeometry x="80" y="1120" width="180" height="30" as="geometry" />
        </mxCell>
        <mxCell id="mUVZ_eBPIsCB5TYUY8Db-31" value="" style="rounded=1;whiteSpace=wrap;html=1;" vertex="1" parent="1">
          <mxGeometry x="80" y="1150" width="600" height="30" as="geometry" />
        </mxCell>
        <mxCell id="mUVZ_eBPIsCB5TYUY8Db-32" value="&lt;font style=&quot;font-size: 14px;&quot;&gt;条件　を満たしています&lt;/font&gt;" style="text;html=1;strokeColor=none;fillColor=none;align=left;verticalAlign=middle;whiteSpace=wrap;rounded=0;" vertex="1" parent="1">
          <mxGeometry x="110" y="1210" width="220" height="30" as="geometry" />
        </mxCell>
        <mxCell id="mUVZ_eBPIsCB5TYUY8Db-33" value="" style="shape=image;verticalLabelPosition=bottom;labelBackgroundColor=default;verticalAlign=top;aspect=fixed;imageAspect=0;image=data:image/png,iVBORw0KGgoAAAANSUhEUgAAAgAAAAIACAYAAAD0eNT6AAAABHNCSVQICAgIfAhkiAAAAAlwSFlzAAAOxAAADsQBlSsOGwAAABl0RVh0U29mdHdhcmUAd3d3Lmlua3NjYXBlLm9yZ5vuPBoAACAASURBVHic7N13fJX1/f//x3UyCDtsGSJuBGQFXGXICBsBi4gDR+us1tmW9tv+PtraodW6ah21rYKjigukjCRIZDhDwhQQFwjKTghkkHHO9fsjoKKMjHPO67rOed5vt97aG8m5rkdReL9yXedcbwcR8bZlJJFPK6A10BqHVEKk4tAMl1QcUoGmQENcGgANcUg+8GuJB/77uxoBSd/7tQqg6Hu/tgcIAoW4lAPFOJQAxbjswWEPsOfA/y7AZQ8uOwiwkyR2MIjKcP42iEh4OdYBInFtLq1IogMux+PQEZcOOHTApT1VC36rA//xo53AjgP/vQX4CocthNiEw2aS2MIgdtkmisQvDQAikTSDBJrSETgFh5O/+W+XU4CTgfq2geZKgU9x+IwQn+LwKQE+o4JP+YAvuZuQdaBIrNIAIBIumbQjQBdCdMWhCy5dgZ5AQ+s0nyoHPgU+wmUtDh8RYi17Wc8kgtZxIn6nAUCkppaRxC5OI4E0XNKANKAX0MC4LF5UAJ8AuUAuDrnsJ4+xlBh3ifiKBgCRo5lBAs3ogsvZwDnAWcAZVL25Tryj8sBVgg9xeR/4gPdYq1sIIkemAUDku+bShET6AT/C4VygDy6NrbOkVvYCOQcGgnfYz1LGsc86SsQrNABIfJtFYxpyNiGGAv2o+gn/+x+Rk9gQBD7GYSkuC0giW59CkHimAUDiy7vUZx/9CJCOSzrQA/05iFchYCWQRYAsEljKIPZbR4lEi/7ik9g3nx4EGI5LOg79gBTrJPGkUmAJDllABumstg4SiSQNABJ7skkhSD9CjAXGAx2tk8SXNuGQQYj/kUyWrg5IrNEAILFhAS0IMg64AIeh6LP3El7FQCbwJiHeZAT51kEidaUBQPwrm5ZUMgq4CJfh6M17Eh1B4H3gFULMYARbrYNEakMDgPjLAtrgMgmXScB5QMA6SeJaEHgHmEElMxjFTusgkerSACDe9y71KWIMDlfoJ33xsKorAy7T2c9/9cwB8ToNAOJN2SRSzggcpgBj0aY54i8lwJs4PE8B87V3gXiRBgDxlnmcToBLcLgavXtfYsNW4BUC/JuhrLKOETlIA4DYm0VjGjCZEFcfePyuSKx6B5dnSOZlBlFkHSPxTQOA2MmgMw5XAdcBzYxrRKLHYR/wX4I8zghWWudIfNIAINE1g2RSGYfLdQc+ry8S73Jx+SeNeY7zKLWOkfihAUCiI5N2uPwMh+uAVtY5Ih60A4d/HrgqoGcLSMRpAJDImk9vErgelyvQM/hFqqMcmEWAhxjKe9YxErs0AEj43U2Ac7kQh9upeliPiNTOUhwe4h1mcjch6xiJLRoAJHxmkEwzJuPyG6CzdY5IDPkceJQkntKmRBIuGgCk7mbRmPr8BPgl0N46RySGbcflSZJ5mEHssY4Rf9MAILU3n+YkcDsuPweaWueIxJE9wKOU8zBjKLCOEX/SACA1V7X17s9xuBVItc4RiWNFwD8I8VdtUSw1pQFAqi+blpRzMw63oZ/4RbykCPgPAf7MULZbx4g/aACQY8umERXcBPwGLfwiXlZ1RcDhL6RTaB0j3qYBQI5sBsk05Soc/gC0sc4RkWrbDdxPEo/oUwNyJBoA5IeySaSSq3H5P6CDdY6I1NqXuPyeQqZpS2L5Pg0AcqgFDCXEg8CZ1ikiEjbrcbmD4cyzDhHv0AAgVRbQhRD3A6OsU0QkQhz+R4DbGMJn1iliTwNAvHuL9gT5I3AFELDOEZGIKwMeoZI/MYq91jFiRwNAvFpGEvn8DId7cGlsnSMiUbcbuIc9PKb3B8QnDQDxKJMhwKNAF+sUETG3HJfbGM5i6xCJLg0A8eQtTibIX4CLrFNExGMc/keIWxjOF9YpEh0aAOJB1eX+XwL/H5BinSMinlUK3E0SDzKISusYiSwNALEuk57Av4A06xQR8QmXVSRwDUPJsU6RyNEAEKvepT5F3AX8AkiwzhER36kEHsfl/zGcYusYCT8NALEogwE4PA2cZp0iIr73OQGuZygLrEMkvDQAxJJsUqnkPlyuRf9sRSS8XiHAjQxlt3WIhIcWiViRwVgcngDaW6eISMzajsOvSGe6dYjUnQYAv3uL9oR4Epcx1ikiEidcZuFyIyPYap0itacBwM8ymQA8DbSwThGRuLMHlxsZzkvWIVI7GgD8qOod/vcCt1iniEjce44kfsYgiqxDpGY0APhNJn2AF9A7/EXEO74gwGUM5T3rEKk+DQB+4eKQxS3AX4Fk6xwRke+pxOVPFHKPNhfyBw0AfpBFR1ymAwOtU0REjsrlPeAy7Sngfdr/3esymIjLcrT4i4gfOJyLw3IyuMw6RY5OVwC8ai5NSOQxYIp1iohILT1LEj/XGwS9SQOAF83jdBJ4HehinSIiUkcbCHEhI/jIOkQOpVsAXpPJBSTwAVr8RSQ2nEYC75HBROsQOZSuAHjFDBJI5U/Ar9A/FxGJPS7wd5K4k0FUWseIFhpvyKYlFbwIpFuniIhE2CICXMxQtluHxDsNANbm05sArwGdrFNERKJkCy4TGc4H1iHxTO8BsJTFFQRYihZ/EYkvHXBYRBbXWofEM10BsDCXeiTwdxz9yy8ice85GnE951FqHRJvNABEWybtgJlAX+sUERGP+IAkxjOIbdYh8UQDQDRl0A2HOUBH6xQREY/5ChjDMFZYh8QLvQcgWhYwFIelaPEXETmc9jgsJoOR1iHxQgNANGRxNSHmAk2tU0REPMulMQ5vksn11inxQANAJLk4ZHA3Lv8BkqxzRER8IBF4kkwewdVt6kjSb26kzKUeSfwbVztiiYjU0iskcQWD2G8dEos0AETCfJoT4HW0ha+ISF29SxLjGMQu65BYowEg3BZwEiHmAJ2tU0REYsSnwCiG8Yl1SCzRewDCaT5nEeJ9tPiLiITTKcASMkizDoklGgDCJYvzCZAFtLJOERGJQW1weJv5DLIOiRUaAMIhg7G4zAOaWKeIiMSwRgT4H5kMsw6JBRoA6iqTy3F4HUixThERiQMNgNlkMsE6xO80ANRFBrcD06n63KqIiERHMvAyGVxsHeJnGgBqK4Nf4vAg+iSFiIiFJBxeIIOfWof4lQaA2shkKg5/tc4QEYlzCTg8TRa3WYf4kQaAmsrgbuBe6wwREQHAweUhsrjLOsRvdPm6JrK4B5ffWWeIiMhh3ccwfm0d4RcJ1gG+kcmfgN9aZ4iIyBH1YwoJPEe2dYgf6ApAdegnfxER/3D4Dem6VXssGgCOJZP/A35vnSEiIjVyJ8N40DrCyzQAHE0mdwIPWGeIiEiNuThcTzpPW4d4lQaAI8niNlwess4QEZFaC+JyGcN52TrEizQAHE4mU4Bp6PdHRMTvKnD5McOZbR3iNVrgvi+Lcbi8ih7vKyISK8pxGc9w5lmHeIkGgO/KYDAOc9DGPiIisaYEl5EMZ7F1iFdoADhoPmcR4C2gkXWKiIhERCEuQxhOrnWIF2gAAMjgRBzeB1pbp4iISETtIsS5jOBT6xBr2gtgPs0JMA8t/iIi8aAlAWbzP5pZh1iL7wFgBskEeAWX061TREQkajqTzEzmUs86xFL8DgAuDqn8CxhsnSIiIlE3gESexY3fW+HxuxnQj/gTcLN1hoiImOnGZ8DzvG0dYiE+J58MfoLDv60zRETEnIvL1QxnmnVItMXfAJDF+bhkAMnWKSIi4gkVBBjFUBZYh0RTfA0AC+hCiHeAVOsUERHxlL049COd1dYh0RI/A8B82hLgfaCjdYqIiHjSRpI4l0Fssw6Jhvj4FEA2KQSYhRZ/ERE5sk5U8Ea8fDwwPgaACh4D+lpniIiI551DIo9YR0RD7A8AGVwH/NQ6Q0REfON6MmJ/3Yjt9wBUbfCzGOLjco6IiITNfqA/w1hmHRIpsTsALKAFIZYBnaxTRETEl74kiTQGscs6JBJi8xbADBII8SJa/EVEpPY6UsFLzIjNp+bG5gDQlHuBYdYZIiLie0NI5Q/WEZEQe7cAMhiPw+vE4v83ERGx4OIyieG8ah0STrG1SM7jdBL4EGhinSIiIjHEYR8O5zCUtdYp4RI7twDm0oREZqHFX0REws2lMSFeIZtG1inhEjsDQCKP4XK6dYaIiMSsLlTwsHVEuMTGLYAMJuLwinWGiIjEAZfJDOdl64y68v8AMJcOJLISaG6dIiIicWEPDj1I50vrkLrw9y2AuwmQxHS0+IuISPSk4vKc358P4O8B4Ef8BpdB1hkiIhJ3BpDKndYRdeHfWwAZpOHwLpBsnSIiInGpghD9GMGH1iG14c8BIIOGBMjVu/5FRMTYpyTRi0EUWYfUlD9vATg8osVfREQ84BQquN86ojb8dwUgkwnA69YZIiIi33AYTzqzrDNqwl8DwFu0J8hKoIV1ioiIyHfsIkR3RrDVOqS6/HULoJJ/oMVfRES8pyUBnraOqAn/DAAZTMZhnHWGiIjIEYwmi0utI6rLH7cA5tOcAGuBNtYpIiIiR7GbAF0ZynbrkGPxxxWAAA+ixV9ERLyvBUGeso6oDu9fAZjPIAK8hR9aRUREAFwuYjivWmccjbcX1dk0IJlVOJxsnSIiIlID2ynnDMZQYB1yJN6+BVCPe7T4i4iID7UhmT9bRxyNd68ALKAvId4Df++2JCIicSuES3+G8651yOF48wpANomEeAot/iIi4l8BHJ5iGUnWIYfjzQGggl8BvawzRERE6qgb+dxhHXE43rsF8BYnE2QNkGKdIiIiEgYlJNCFIWyyDvku710BCPIQWvxFRCR2NCDIA9YR3+etKwCZDAMyrDNERETCzmEE6d5Z47wzAMwgmWaswuV06xQREZEIWEdzetCHCusQ8NItgKbcqcVfRERi2Bnk83PriIO8cQXgLdoTZD3QyDpFREQkgvYS4DQvbBbkjSsAQf6EFn8REYl9TXD5g3UEeOEKwHx6ECAPrwwjIiIikRXEoRfprLaMsF90HR7wRIeIiEh0JODysHWE7cKbwRgchpo2iIiIRN9gshhuGWB3CyCbRCpYBZxh1iAiImJnDXvoySSCFie3uwJQzk/Q4i8iIvGrG6lMsTq5zRWAbFKoYANwvMn5RUREvGETlZzOKMqifWKbKwCV3IwWfxERkRNI4HqLE0f/CsAsGlOfT4HWUT+3iIiI9+yklJMZx75onjT6VwAa8Cu0+IuIiBzUihRujfZJo3sFIJuWVPI5Lo2jel4RERFvK6ScExlDQbROGN0rABX8Qou/iIjIDzQlmduiecLoXQFYQAtcvtAAICIiclh7KadTtK4CJEbjJACEuBO0+IuI+EmjhEZ0qt+J41OOp129drRMavnN11xcdlXsYlf5LnaU72Bt8Vr2Vu41rPW9JiRxK3B3NE4WnSsA82lOAhv107+IiLd1TOnI6JajOSf1HPo06UPnBp0JONW/W7yxdCOrilaxqGARGbsz+KjoowjWxqSovRcgOgNABn/E4bdROZeIiNRI+3rtubr91UxoNYHeTXqH9dib929mxvYZ/Oer/7C2eG1Yjx2zHO4mnd9H/jSRNpcmJLIJSI34uUREpNoGNBvAzcffzITWE0h0In9H+L3C93h408O8uuNVQm4o4ufzsQKS6MggiiJ5ksh/CiCJn6HFX0TEM3o36U1WWhaL+iziojYXRWXxBzi36bm83P1lVp6zkoltJuIY7kfncc2o5OpInySyv/tzqUciXwBtI3oeERE5ppZJLXnw9Ae57LjLanRfP1KWFCzhunXXsb54vXWKF31BEqcxiMpInSCy/wYkchVa/EVEzF3Q6gLWnLeGKW2neGLxB+jfrD8rzlnB/530f1G7CuEjJ1LBhEieIHJXAGaQQCrrgFMjdg4RETmq5EAyj3V+jGvbX2udclRvF7zNxasuZkf5DusUL8lhGGdF6uCRGwObMgEt/iIiZloktSCzd6bnF3+A85udT+7ZuZzVNGLrnR/1JYt+kTp4JK8D3RHBY4uIyFGc2uBU3j/rfQY2G2idUm0dUjqwMG0hQ5oPsU7xkjsjdeDI3ALIIA2HZRE5toiIHFXXRl3J7J1Ju3rtrFNqpSxUxsWrLmbWzlnWKV7g4tCVdNaF+8CRugKgn/5FRAycl3oeS/su9e3iD1AvUI8Z3WfoSkAVB5dbInPgcMukHfAFkBz2Y4uIyBENbj6YmT1m0jgxNp66vrdyL+flnKfHCcN+AnRiKNvDedBIXAG4CS3+IiJRNbHNROb1mhcziz9Ak8QmzOwxkxZJLaxTrKXgckO4DxreKwBVD/7ZDLQK63FFROSIprSdwn+6/idmP0v/5s43GbdinHWGtR1U0pFRlIXrgOG9ApDIRWjxFxGJmp8f/3OmdZsWs4s/VD3E6Mp2V1pnWGtNIheG84DhvgVwY5iPJyIiR/DHU/7Io50fjYtn6j9y+iN0SOlgnWEtrLcBwjcALKA7cF7YjiciIofl4PDQ6Q/x2xPjZ5f1polN+fMpf7bOsDaADLqF62DhGwBC+ulfRCTSEpwE/t3139zW8TbrlKi77LjL6N2kt3WGLYewPdYxPNeNsmlEBV8BTcJyPBER+YGUQAozus9gbKux1ilm5u+ez8i8kdYZlgpxac9wiut6oPBcAajkErT4i4hETMOEhrzZ8824XvwBRrQYQfdG3a0zLDXF4aJwHCg8A4DLT8JyHBER+YFmSc1YkLaA9Bbp1imecOPxcX/H+epwHKTutwDmcToJrAvLsURE5BDt67UnMy2TLg27WKd4RlGwiA6LO1BYWWidYsUlxGmM4NO6HKTuVwAS+Sla/EVEwu7E+ifydp+3tfh/T6OERoxpNcY6w5KDw1V1PUjdBoBsEnG5vK4RIiJyqC4Nu7Ck7xJOaXCKdYonjWsV508GdLiKGSTU5RB1GwDKGQm0rdMxRETkEOc0PYclfZfQvl576xTPGtFiBPUC9awzLLWnGUPrcoC6DQAOU+r0ehEROcT5zc4ns3cmzZOaW6d4WuPExqQ1SbPOsFanNbj2A8AsGgNxfRNGRCScxrYay7zesbWjXySd1eQs6wRbLuPJplFtX177ASCFC4H6tX69iIh84/K2l/N6j9dJCaRYp/hG36Z9rROsNaSCWj8YovYDgMOltX6tiIh849aOtzK92/SY3tEvEro1Cttj8f3sktq+sHYDQAatgcG1PamIiFSZ2mkqD5/+cFzs6Bdux9c73jrBC0awgBa1eWFtrwBMBjSqiojUkoPD3077G/eeeq91im81S2pGw4SG1hnWkgjV7tHAtRsAHCbV6nUiIkKik8gzXZ/hjhPusE7xveOSj7NO8IIoDQDZHAecW5uTiYjEu+RAMv89879c2e5K65SYkBxItk7wgoEHbs3XSM0HgHIurNXrRETiXMOEhszuOZuJbSZap8QMvXESgAQcLqjpi2q+kDv8uMavERGJc82TmvNW2lsMazHMOiWmJDh1ehpu7HBrvjbXbACoeqfhgJqeREQknh2XfBwL0xZydtOzrVNizp7KPdYJ3uAwhP/RrCYvqdkA4HIBeve/iEi1darficV9F9OjcQ/rlJi0s3yndYJXJJFcs6fz1nQAGF+j7xcRiWNnNDyDJX2WcGqDU61TYlJJsITiYLF1hpfU6H0A1R8A5lIPPfxHRKRa0pqksbjvYjqkdLBOiVlflH5hneA1Iw6s1dVS/QEgkSFQ+00HRETixcBmA1mYtpCWSS2tU2LaqqJV1gle04hk+lf3m6s/ALja+U9E5FjGtBrDvN7zaJLYxDol5q0uWm2d4D1BRlf3W6s/ADiMqlWMiEicuLzt5bzR4w3qB7RRajQs27vMOsF7avA8gOoNAAvoDpxQ2x4RkVh3Y4cbmdZ1mh5MEyWloVKWFiy1zvCik8igc3W+sXoDQIgRdcoREYlhUztN5fEzHifg6CGp0ZKdn01pqNQ6w5sC1Vuzq/dvq0t6nWJERGKQdvSzM2fXHOsE76rmmn3sDaizSaGCfEA3tUREDkhwEnjyjCe5pv011ilxpyxURofFHdhVscs6xauKqaQFoyg72jcd+wpABQPQ4i8i8o2DO/pp8bfx+o7XtfgfXUOSjr1r77EHAF3+FxH5xsEd/S5qU6st2CUMnv7qaesE76vG2n3sAcDRACAiApCamEpG7wzt6Gfo3T3vkp2fbZ3hB8dcu4/+HoD5NCfATmqzbbCISAxpk9yG+b3n07NxT+uUuDYkdwgL8xdaZ/hBiCRaMIgjbpd49IXdYcAxv0dEJMadkHICS/ou0eJv7K38t7T4V1+ASn509G84+lcHhDVHRMRnOjfszJK+2tHPWlmojJ+v/7l1hr+4R1/Dj/XIqoFhTBER8ZXeTXozv9d8WiW3sk6Je/d8fg/ritdZZ/jNUdfwI78HYC5NSCQfSAh3kYiI1w1oNoDZPWdrUx8PWLZ3GT/K+RHloXLrFL+ppJTmjGPf4b545FsAifRDi7+IxKHRLUczv/d8Lf4ekF+Rz6RVk7T4104iKZxzpC8e7T0A/SIQIyLiaZOPm8wbPbWjnxeE3BCXrr6UL0q/sE7xL4f+R/rSkQcA58hTg4hILLqhww280O0Fkpwk65S45+Jy4/obydidYZ3id2cf6QuHHwDuJoBLWsRyREQ8Rjv6ecsvN/ySf275p3VGLDibuw+/1h/+3/R+dAN080tEYp6Dw32n3se9p96LU4390SSyXFzu3HAnf9v0N+uUWNGUfnQ+3BcO/zFA98iXDEREYkVKIIWnuzzN5W0vt04RIOgG+dn6n+kn/3ALcg6w9vu/fPgrABoARCTGtavXjsV9F2vx94jyUDmXrblMi38kBA6/ph/pQUBnRTBFRMRUWpM0ZvecTdt6ba1TBCgJljBx1UTm7ZpnnRKbjvBD/Q9veGWTQgX7OPZTAkVEfEcP+PGWwspCxiwfw9I9S61TYlkFSTRhEPu/+4s/vAVQRne0+ItIDNIDfrwlvyKfYXnDtPhHXhJldPn+L/5wAAjQKyo5IiJRdMlxl+gBPx6ytWwrA5cN5MPCD61T4oPzw7X9cG8C1AAgIjHlhg438Hy35/WAH4/4vPRz+uX0Y03RGuuU+FHNAaB3FFJERKJiaqepPHHGE3rAj0esKVpD/5z+fF76uXVKvDnGADCDBKBbtGpERCLluw/4EW/4sPBDBi4byNdlX1unxKPu338i4KEDQHNOBnSDTER8LcFJ4KkuT/GrTr+yTpEDFuYvZEjuEPIr8q1T4lUjzuWE7/7CoQNAiK5RzRERCbPkQDIvnvki17a/1jpFDpi5Yyajlo+iKFhknRLvDlnjDx0AnB9+TEBExC8aJDRgZo+ZTGozyTpFDpi+dToXrbqIslCZdYp8b43//hUADQAi4ktNE5uS0TuDkS1HWqfIAY9++ShXrbmKSrfSOkWqHGUA0BUAEfGh1smtye6TTb/UftYpcsB9G+/j1o9vxcW1TpFvHbLGf/vEv6p3B54e7RoRkbromNKRzN6ZnN5Qf315gYvLHR/fwcNfPmydIj90Bi4OTtVU9u0AUPXuQH0CQER84/SGp5PZO5OOKR2tU4Sq7XyvWXsNz379rHWKHF4j5tEe2AKH3gI4xaZHRKTmejXuxeI+i7X4e0RZqIyLVl2kxd/rkr5d678dAAIaAETEH85uejYL0hbQOrm1dYoARcEixiwfwxs73rBOkWNxv13rE7/ziyebxIiI1MCQ5kOY2XMmjRIaWacIVTv6jV4+mvcL37dOker4zlr/3QHgFByTHBGRahnfejwvnfkS9QL1rFOEqh39hucNZ3XRausUqS7ncLcAHN0CEBHvuqLtFbzS/RUt/h7xRekX9M/pr8Xff753C8DFIYsTzXLkGw0TGtKrcS86N+xMh5QOdKjXgdSkVJomNgXAdV12Veyq+k/5Lj4u+ZjV+1azoWSDHrYhMetXnX7Fvafei6PLlJ6wqmgVw3OHs618m3WK1JTz7S2Aqj9Nc2lFIjvMguJYciCZQc0GMb71ePql9uOMhmeQ4CTU+DjloXI+KPyAjN0ZZOzOIG9fHiE3FIFikej68yl/5jcn/sY6Qw54r/A9Ri8fTUFFgXWK1FY5zRlDQdUAMJ/eBMg1Toor56Wex40dbuSCVhfQJLFJ2I+/ef9mnvn6GZ75+hk2lm4M+/FFIi3gBPhH539wQ4cbrFPkgKzdWUxYOYHiYLF1itRFgB4MZVXVAJDFOFxmGifFvAQngcvbXs6tHW+lV+NeUTlnyA0xb/c8fv/Z78nZmxOVc4rUVZKTxLRu07jkuEusU+SA13a8xmWrL9OmPrHAYQzpzDn4JsDjTWPiwJhWY1h5zkqe7fps1BZ/qPopanTL0Xx49ofM7jmb7o26R+3cIrVRP1CfN3q+ocXfQ575+hkuXnWxFv/Y0REOfgrA1QAQKQefUz6752y6Nup67BdE0JhWY8g9J5d7T72X+gE99Vm8p0liE+b1nsfolqOtU+SAhzY9xE8/+ilBN2idIuFyYM0/OAB0MI2JUVe1u4pV564ivUW6dco3Ep1EpnaayurzVnNe6nnWOSLfaJXcioVpCxnYbKB1ihzwf5/9H3dsuEM7+sWe7wwADu1MU2JMSiCFF898kWe6PvPNx/e85uT6J5Odls1Nx99knSJCh5QOLOqziLQmadYpQtWOfresv4V7Pr/HOkUioy18+yCgNoYhMaV1cmsW9lnoi/uXyYFkHuv8GNO6TSM5kGydI3Hq1AansrTvUs5oeIZ1igCVbiVXrrmSv2/+u3WKRE4b+PZRwBoAwuCk+ifxVtpbdKrfyTqlRq5oewXNE5szcdVEvclHoqpH4x5k9M6gTbL+CvKC/aH9TF41mVk7Z1mnSGS1BnBYRhL5lIEesVUXx6ccz6I+izixvn8fqPh2wduMXT6WomCRdYrEgb5N+jKv9zxaJLWwThGgOFjMhJUTyNqdZZ0ikRciiXoBCmmNFv86aV+vPdl9sn29+AOc3+x8Xuvxmm4HSMQNazGMd+S4fAAAIABJREFU7D7ZWvw9YnfFbgbnDtbiHz8CBGkRIIQ21K6DlEAKb/R8g5Prx8ZuysNaDOPlM18m0Uk89jeL1MK4VuOY1XMWDRMaWqcIsK18G4OXDebDwg+tUyS62gRwaWVd4WePdX6Mvk36WmeE1fjW4/l3139r4xUJuyltp/Bqj1dJCaRYpwiwsXQj/XP6s6polXWKRFuIVgFcmll3+NVP2/+Un7b/qXVGRFzR9goeOO0B6wyJIXeccAfTuk3T1SWPWFO0hvNyzuPTkk+tU8SCQ2oCV9APGGPd4jdt67VlVs9ZMf2TzLmp5xIkyOKCxdYp4nNTO03l/tPu11Ulj1i2dxnpuensKNcmsHEsK4CjKwC18Xjnx0lNTLXOiLh7Tr6HO064wzpDfMrB4cHTHuTeU++1TpED3i54myG5Q9hVscs6RSw5pAYI4c1H1XnY2FZjGd96vHVG1Nx/6v1c3vZy6wzxmUQnkendpnP7Cbdbp8gBM3fMZETeCPZW7rVOEXtNAzjE/o+xYeTg8IeT/2CdEVUBJ8CzXZ9lYpuJ1iniE/UC9Xi5+8saHD3kha0vMGnVJD3sS6q4NAuArgDUxITWE+jZuKd1RtQlOAm80O0FhrcYbp0iHtcwoSGze87mwtYXWqfIAY9vfpwrPrqCCrfCOkW8wiE1ADSy7vCT3574W+sEM8mBZF7p/gpnNT3LOkU8qkVSC7L7ZHtqB8x494fP/8BN628i5IasU8RbGgaABtYVfpHWJI3eTXpbZ5hqnNiYjN4ZcXkVRI7uuOTjWNhnYcw9F8OvXFx+seEX3PXZXdYp4kUuDQJAfesOv4jVz/zXVGpiKnN6zeGk+idZp4hHdKrfiSV9l9C9UXfrFAGCbpBr117L3zb9zTpFvMqhvq4AVFNyINkXW/xGS7t67chMy6RtvbbWKWKsW6NuvNv3XU5pcIp1igBloTImrZrEv7/6t3WKeNmBKwAaAKrhR6k/iovP/dfEyfVPJrN3pjZ0iWN9mvQhu0+2BkGPKA4WM27FOF7f8bp1inifbgFUl979fnjdGnVjbq+5NE5sbJ0iUXZ+s/NZmLaQlkktrVME2FO5h2F5w8jYnWGdIv5QPwDE7rNswyi9ud7VfCRnNT2LN3q8Qb1APesUiZLxrcczv/d8DX4esa18GwNzBvLunnetU8Q/6gcA7cxxDPUC9Tiz8ZnWGZ42pPkQZnSfoY1e4sBlbS/jle6vaODziE37NzEgZ4B29JOaSgzgaAA4ljMankGSk2Sd4XkXtLqAZ7o+Q8AJWKdIhNx0/E1M7zpdg55HrC9eT7+cfnxS8ol1ivhPQgCXBOsKr+vWqJt1gm9c3vZyHjrtIesMiYC7TrqLxzo/pgHPI5btXUb/nP5s2b/FOkX8KTEAGgCOpVP9TtYJvnJLx1u4++S7rTMkTBwcHjjtAf0z9ZDFBYu1o5/UVYIGgGrQu5xr7q6T7uLOE+60zpA6SnASeLrL0/pn6SFzds3Rjn4SDroCUB2tkltZJ/jS/afdzzXtr7HOkFpKDiTz0pkv6QmYHvLfbf9lwooJlIZKrVPE/xJ0M68aGiVov6TacHB48ownmdB6gnWK1FCjhEbM6TVHW0B7yOObH+fyNZdrRz8JmwAQtI7wuqCr36LaSnASeOnMlxjRYoR1ilRTamIqGb0zGNp8qHWKHHDfxvu0o5+EW1ADQDVoAKib5EAyr/V4jX6p/axT5BjaJLfh7T5vc17qedYpQtWOfr/65Ff8+pNfW6dI7KnUAFANZaEy6wTfa5DQgFk9Z3FmIz1QyatOrH8i75z1Dj0a97BOEap+8Lhu7XXcv/F+6xSJTcEAjgaAY/m67GvrhJjQPKk5C9IWcHrD061T5HvOaHgGi/ss5uT6J1unCFAeKufS1Zfyr6/+ZZ0isasygEuldYXXfVX2lXVCzGid3Jqs3ll0TOlonSIHpDVJY1GfRXRI6WCdIkBJsIRxK8YxY/sM6xSJbcEAaAA4ls37N1snxJTjU45nXu95er6CB5zf7Hyy07L1UVePOLij3/zd861TJPZVBoD91hVep002wq9Lwy5kpWWRmphqnRK3xrQaw9ze2srZK3aU72DQskG8s+cd6xSJD6UBQE+UOIbPSj5jd8Vu64yY07NxT97o+QYpAe1IHW2XHncpr/d4nfqB+tYpAny5/0v65/Rnxb4V1ikSP0oDQIl1hde5uOTtzbPOiEnnNztf2whH2U3H38Rz3Z7TDpce8XHxx/TL6ceGkg3WKRJfSjQAVNNb+W9ZJ8Sssa3G8mzXZ7XLXBRM7TRVO/p5SN7ePAYsG6D3GUn0OVUDgG4BVMPrO163Tohpl7W9jMc6P2adEbMcHP566l+599R7rVPkgCUFSxicO5gd5TusUyQeuboFUG2flHzCuuJ11hkx7cYON/LHU/5onRFzEpwEnuryFL/s9EvrFDlg7q65jFg+gsLKQusUiVcOJQlMYSygx7NVQ7OkZgxuPtg6I6YNaDaAomAR7xW+Z50SE5IDybx45otMaTvFOkUOeHnby1y86mI9YVRsOeQGcNlj3eEXT215Sn9oo+D+0+7n2vbXWmf43sHHL1/U5iLrFDlg2tfTtKOfeEOI/ACOBoDq2lm+k1e3v2qdEfMcHJ444wkuPu5i6xTfSk1MJbN3pnZh9JBHv3yUqz+6mkpXz14TD3DYEwANADXxwKYHtCVnFCQ4CUzvOp3hLYZbp/hOm+Q2ZPfJ5kepP7JOEao+RvybT37DrR/fiotrnSNyUKFuAdTQin0r+O+2/1pnxIXkQDJv9HyD/s36W6f4RseUjizuu5iejXtapwhVi//tH9/OvRv16QvxGJeCAAENADX1u89+p/cCREn9QH1m95xN7ya9rVM8r3PDziztu5TTGpxmnSJApVvJ1R9dzSNfPmKdIvJDAfYECFFg3eE3G0s3aqKPoqaJTZnbay6nNjjVOsWzejfpzeI+izk+5XjrFAFKQ6WMXzGeaV9Ps04ROTyXwgAOO607/OiPn/+RnL051hlxo01yGxamLeSElBOsUzynf7P+LExbqB39PKIoWMTY5WOZs2uOdYrIkblsDxBiu3WHH1W6lVy55kpKQ3qQYrR0SOlAVloWbZLbWKd4xqiWo8jonUHTxKbWKQLkV+QzNHeoHh0ufrAjQD12Anpbey2sK17HDWtvsM6IK6c2OJXMtEyaJTWzTjE3+bjJzOw5Uzv6ecTWsq0MXDaQDwo/sE4ROZYghewOMIhKIN+6xq+mb53OX774i3VGXOneqDtzes2hYUJD6xQz13e4nhe6vaAd/Tzii9Iv6J/TnzVFa6xTRKpjF5MIHtwSTLtR1MHvPvudHhAUZec2PZcZ3WfE5QI4tdNUnjjjCe3o5xEr963k3A/P5bPSz6xTRKrHrbr1X/U3iKP3AdRFyA1x2ZrLmL97vnVKXBnVchQvdX+JBCfBOiVq7j75bu499V4cHOsUAT4s/JAhuUPYXq6/QsVXdsDBASDEVtOUGFAeKufHK3/M0j1LrVPiyoWtL+RfXf4V8wuig8Mjpz/CXSfdZZ0iByzMX8jQvKHsrthtnSJSM07Vmn/wCsBm05gYURIsYczyMSzft9w6Ja5c1e4qHjz9QeuMiEl0Enmm6zPc0vEW6xQ5YNbOWYxePpp9lfusU0RqzuVLODgAoAEgXAorCxmRN4KPiz+2Tokrt3W8jamdplpnhF29QD1e6f4KV7a70jpFDnhu63NMXDmR/aH91ikitXPgh34NABGwo3wH6XnpfLn/S+uUuPKXU//C9R2ut84Im0YJjZjTaw7jW4+3TpED/r7571y55krt6Cd+950BQLcAwm7z/s2k56brzUFR5ODweOfHmXzcZOuUOmue1JwFaQsY0nyIdYoccN/G+7hl/S3a0U/875BbAA76UTUCNpRsYETeCPZUar+laAk4AaZ3m87olqOtU2qtbb22LOqziLObnm2dIny7o9+vP/m1dYpIeASqfuj/9q3TmRQDDax6Ytl5qeeR1TuLBgn67Y2W0lApI/NGsqhgkXVKjZxU/ySy0rI4qf5J1ikCBN0g1669lme+fsY6RSRc9jKMpvDtewAAPjeKiXnv7nmXyasnU+FWWKfEjfqB+rzZ803SmqRZp1Rb10ZdWdJ3iRZ/jygLlTFp1SQt/hJrvnli1bcDgMOnJilxYvbO2Vy15ipCrrZdiJYmiU2Y33s+ZzQ8wzrlmM5qehaL+iyiXb121ikCFAeLGbtiLK/veN06RSTcvlnrvx0AQhoAIu3FbS9y8/qbrTPiSsuklmSlZdGpfifrlCMa3Hwwb6W9RYukFtYpAhRUFDA0dyhZu7OsU0Qi4TADgIMeZB0FT2x5gt99+jvrjLjSvl57snpncVzycdYpPzCu1Tjm9JpDo4RG1ikCbCvfxsBlA3m/8H3rFJHIcA93C8DVABAtf/riT9y/8X7rjLhySoNTPLeN8BVtr+DVHq+SEkixThG+3dFvddFq6xSRyAkcbgBAtwCiaeonU3n6q6etM+LKmY3OZG6vuZ74afvnx/+cZ7s9S6KTaJ0iwNritfTP6c+nJfprUGJcxeFuAbzHJqDUoiceubjcuO5GXt72snVKXDmn6Tm80fMN6gXqmTVM7TSVRzs/GvMbGPlFzt4cBuYM5Kuyr6xTRCKtiJF88y/6twPA3YSA9RZF8SroBpmyZgpzd821TokrQ5sP5aUzX4r6T98ODg+d/hD3nnpvVM8rR/Z2wdsMyR3Cropd1iki0bAW59tHWQYO+ZLD2qjnxLkKt4KJKyeypGCJdUpcGd96fFS3EU5wEvhP1/9wW8fbonI+ObbZO2czMm+kdvSTeHLIGn/oAOBqALBQGipl7Iqx5O3Ns06JK1e2u5KHT3844uepF6jHjO4zuKrdVRE/l1TP81uf58KVF2pHP4kvrgYATyqsLGTE8hGsL9ZdmGi6peMt/PbE30bs+I0SGvG/Xv/jwtYXRuwcUjP/2PwPrvxIO/pJHAocbQBI0ABgaWf5TtLz0tm0f5N1Slz54yl/5PYTbg/7cZslNSMrLYuhzYeG/dhSO/dtvI+b19+sJ3JKfAodbQDI5zOgJJo9cqgt+7doG2EDfzvtb1zd7uqwHe/gjn7nND0nbMeU2nNxuXPDndrRT+JZ0YFP+33j0AFgEkFAT8Ew9knJJwzLHUZBRYF1StxwcHi6y9P8uPWP63ysE+ufyJK+Sziz0ZlhKJO6CrpBrll7DQ9uetA6RcTSigOf9vtG4DDftDxKMXIUq4pWMXr5aIqDxdYpcSPBSeDFM19kWIthtT5Gl4ZdWNJ3CSfXPzmMZVJb5aFyJq+ezH+++o91iogt94dr+w8HgMN8k9h4r/A9JqycQFmozDolbiQHknm1+6v0adKnxq/t26Qvi/supn299hEok5o6uKPfq9tftU4R8YIV3/+FHw4ADvosmodk7c7i0tWXEnSD1ilxo3FiY+b1nkeXhl2q/ZpBzQdpRz8PKagoYFjeMDJ3Z1qniHhDoDpXACpZDVREo0eq5/Udr3PN2mtwv32Ak0TYwW2ET6x/4jG/94JWFzC311waJzaOQpkcy7bybQzKHcS7e961ThHxinIqfvgpvx8OAKMow2VdVJKk2p79+llu/zj8H1WTI2tXrx1ZaVm0rdf2iN9zedvLea3Ha9rRzyM2lm5kQM4AVu5baZ0i4iVrGcUP7iUf7k2AAB9EOEZq4ZEvH+G+jfdZZ8SVk+ufTGbvTJonNf/B1246/iamdZ2mHf08Yl3xOvov688nJZ9Yp4h4zfuH+0UNAD7zm09+w1NbnrLOiCvdGnX7wTbCUztN5bHOjxFwjvRHSKIpd28uA3IGsGX/FusUES867JquAcBnXFx+tv5nvLTtJeuUuHJ207OZ1XMW9QP1+dtpf9OOfh6yqGARg3MHa0c/kSNxD38F4PBbod1NgPPIB5pGsklqL8lJYmbPmYxqOco6Ja5s2b+FDikdrDPkgDd3vsnFqy7Wpj4iR7aHd2nx/YcAwZEGAIBMFgBDIlkldVM/UJ95vecxsNlA6xSRqHtx24tcteYqKlx9aEnkiFzmM5yRh/vSkW9gHuGSgXhHaaiUC1ZcQO7eXOsUkah6YssTTFkzRYu/yLEd8Zb+0d7B9E4EQiTM9lbuZUTeCNYV65ObEh/u23gfP1v3M+3oJ1IdCSw90peOPADsZymgDbN9YFfFLtJz09lYutE6RSRiXFx+ueGX2tFPpPoqCPLekb545AFgHPs4zLODxZu+KvuK9Lx0tpVvs04RCbugG+S6tdfxwKYHrFNE/MNlGcM54o5yx/oQ8+Iw50gEfVryqbYRlphTHirnktWX8K+v/mWdIuIvztHX8KMPAMd4sXjP6qLVjFo+iqJgkXWKSJ2VBEsYt2Icr2x/xTpFxI/qMAAEWQI//OygeNv7he8zYYW2ERZ/21O5h2F5w5i/e751iogfBUniqDtiHX0AGEE+oF01fGhB/gImr55Mpav3cYr/bC/fzqBlg3hnjz6MJFJLuQxiz9G+oToPMs8KU4xE2cwdM7WNsPjOpv2bGJAzgBX79B5kkVpzj712H3sACGgA8LNpX0/jto9vs84QqZb1xevpn9OfDSUbrFNE/M0JxwBQ9RCB0nD0iI1Hv3yUP3/xZ+sMkaPK25vHgGUD2Lx/s3WKiN8VU3nsp/keewAYxH448pOExB9+++lveWjTQ9YZIoe1uGAxg3MHs7N8p3WKiP85ZDOKY74LvHqbmVfjXoJ4350b7uSZr5+xzhA5xJxdcxiRN4LCykLrFJHYEKreml29AQDm1SFFPMLF5dq11/LajtesU0QAeGnbS0xYMYHSkO4yioRNiIzqfNuRtwP+vkw+B06sbY94R3Igmdk9ZzOsxTDrFIljT255kpvW36RNfUTCyeUzhnNKdb61ulcAAObUMkc8pjxUzsRVE1m2d5l1isQp7egnEiEOs6r7rdUfAAIaAGLJvsp9jMwbydritdYpEkdcXKZ+MpVff/JrPZ9CJBLc6q/V1R8AysnGYV+tgsSTDm4j/EXpF9YpEgeCbpAb1t3AXzf+1TpFJFbtpbD6n9qr/gAwijJcFtQqSTzr67KvSc9NZ2vZVusUiWHloXIuW3MZ/9zyT+sUkVg2n0mUV/eba/IeAIA3a/j94gOflX7GsLxh5FfkW6dIDCoJljB+5Xhe3vaydYpIrJtdk2+u2QCQxEyo/nQh/rGmaI22EZawKwoWMXbFWObt0ieJRSKsnPKavVevZgNA1c5Ci2r0GvGNDwo/YNyKcewP7bdOkRiQX5HPkNwhLMxfaJ0iEg+yGENBTV5Q01sAAHqKTAxbmL+Qyau0jbDUzdayrQxcNpAPCz+0ThGJD07N1+aaDwABZgLBGr9OfGPWzln85KOf6DPaUiufl35Ov5x+rClaY50iEi8qSazZ/X+ozQAwlO3AOzV+nfjKc1uf49aPb7XOEJ9ZU7SG/jn9+bz0c+sUkXiSzSB21fRFtbkFAA6v1Op14iuPbX6MP3z+B+sM8YkPCz9k4LKBfF32tXWKSHxxebU2L6vdAFDBy4BuEseBuz67iwc3PWidIR63MH8hQ3KH6KOkItFXTkLt3ptXuwFgFDv1UKD48YsNv+DfX/3bOkM8auaOmfoIqYgVl3kMZXdtXlq7AQDA4cVav1Z8xcXl+nXX88p23fmRQ03fOp2LVl1EWajMOkUkXv23ti+s/QDg8jpQXOvXi68E3SCXr7mcjN3V2mZa4sCjXz7KVWuu0kdGRewUA/+r7YtrPwAMpxin9icW/ykPlXPhygt5Z48+BBLv7tt4H7d+fKt29BOx9TrDa/+DeO0HgCrP1fH14jMlwRLGLB/Din0rrFPEgIvL7R/fzq8/+bV1ioi4dVuD6zYAFDAf2FKnY4jv7Kncw/C84Wwo2WCdIlEUdIP85KOf8PCXD1uniAhsoZA6PWe7bgPAJILAC3U6hvjSjvIdpOem8+X+L61TJArKQmVctOoinv36WesUEanyzIE1uNbqegsAAvwHdCMwHn25/0tGLR/F7opafQJFfKIoWMSY5WN4Y8cb1ikiUsUlgWl1PUjdB4ChbADeq/NxxJc+KvqIkXkj2Ve5zzpFIiC/Ip/03HQW5OuxHyIesoghfFbXg9R9AABw+U9YjiO+lLM3h3ErtY1wrNlatpXzl53P+4XvW6eIyHc5PBOOw4RnAEjmZWBvWI4lvpSdn83Fqy7WZ8JjxBelX9A/pz+ri1Zbp4jIofawv3bP/v++8AwAgyjC4fmwHEt8682db3L1R1drG2GfW1u8ln45/fistM5XGEUk/KYxlpJwHCg8AwCAwz/QmwHj3vNbn+fnH//cOkNqKWdvDgNyBmhHPxGvCvF0uA6VEK4DMZ2dTGEo0DFsxxRfytmbQ4gQg5oPsk6RGsjOz2bk8pHsqdxjnSIih/c2w7k/XAcL3xUAAJcnw3o88a17Pr+HhzY9ZJ0h1VDhVvDc1ucYuVyf5hDxtDCvsU44D8Zc6pHIZqBVWI8rvuTg8M8u/+Sa9tdYp8gRlIXKmLx6MjN3zLROEZGj284eOjKJ8nAdMLxXAEZRBroKIFVcXG5YdwMzts+wTpHDKAoWMXr5aC3+In7g8EQ4F38I9wAAEOIJCG+k+FfQDTJlzRTm7ZpnnSLfkV+Rz9DcobyV/5Z1iogcWxmJPBXug4Z/ABjBVkA/8sk3ykPlTFw1kSUFS6xThKoH/AxcNpAPCj+wThGR6nmRQWwL90HDPwAAhNC7v+QQJcESxq4Yy/J9y61T4trBB/ysKVpjnSIi1fdoJA4amQFgBHnA0ogcW3yrsLKQ4XnD+bj4Y+uUuPRR0Ud6wI+I/yxkGCsiceDIDAAAjq4CyA/tLN9Jel46m/Zvsk6JKx8WfsjAZQP1gB8Rv3F5OFKHjtwA8A4zgbURO7741ub9m0nPTWd7+XbrlLiwMH8hQ/OGattmEf9Zx3vMidTBIzcA3E0IlwcjdnzxtU9KPmF43nA9dS7CZu2cxejlo/WAHxE/criXu4nY5iqRGwAAWjAd2BzRc4hvrdy3ktHLR1McLLZOiUnPbX2OiSsnaptmEX/aQgEvRfIEkR0A+lCBE5l3L0pseHfPu1y48kLKQ3p0RDj9ffPfuXLNldqeWcS/Hgj3g3++L7IDAEAJTwEFET+P+Fbm7kxtIxxG9228j1vW34KrzTlF/CqfJP4d6ZOEbzfAI3mJcqbQABgY8XOJb60uWs3O8p2MbjXaOsW3XFzu+PgO/vjFH61TRKRu/sJQFkT6JJEfAACuYDlwA5ASlfOJLy3bu4wKt4IhzYdYp/hO0A1yzdpreHKLtuIQ8blCkriUaUT8zTvRGQCeo4wraAQMiMr5xLeW7FlCg4QG/Cj1R9YpvnFwR7//bvuvdYqI1N1fGEpGNE4U3u2AjyabVCr4AkiN2jnFlxwcnjzjSa7rcJ11iucVB4uZsHICWbuzrFNEpO4KSaITg4jK56Mj/ybAg6r+Dz0etfOJb7m43Lj+Rl7aFtFPwPheQUUBQ3OHavEXiRUOD0Vr8a86XTQtoAUhPgeaRPW84ktJThIze85kVMtR1imes618G8Nyh7G6aLV1ioiERwFJnBTNASB6VwAAhrIbR08HlOqpcCuYuHIiiwsWW6d4ysEd/bT4i8QQl/ujufhDtAcAgET+Bugh8FItpaFSxq4YS97ePOsUT1hbvJb+Of35tORT6xQRCZ8d7OexaJ80+gPAIIpwuDfq5xXf2lu5lxHLR7CueJ11iqmcvTkMzBnIV2VfWaeISHj9gXFEfcOO6A8AAAU8Dnxhcm7xpZ3lOxmWN4yNpRutU0y8XfA2Q3KHsKtil3WKiITXRir5l8WJbQaASZTjoseVSY1s2b+F9Lx0tpVvs06Jqtk7ZzMyb6R29BOJRQ53MYoyi1PbDAAAhUzDZZXZ+cWXPi35lOG5wymoiI/tJZ7f+jwXrrxQO/qJxKYVFPCC1cntBoBJBHG5zez84lurilbFxTbC/9j8D678SDv6icSw25hE0OrkdgMAwAiycZhp2iC+9F7he1y06qKY3Ub47s/u5ub1N2uHRJHYNYNhLLIMsB0AABzuBJv7H+Jv83bN4+LVF8fUT8guLnduuJPff/576xQRiZz9BJlqHWE/AAzlc+AR6wzxp5k7ZvLTj36Ki2udUmcHd/R7cJOelSUS0xweYCQbrTOisxvgsUzkA5K4CmhsnSL+s7JoJfkV+YxsOdI6pdbKQ+VcuuZSXthq9n4gEYmOr0jiEqZhfv/SGwPAS5RzOXtwuMA6Rfzpw70fkhRIYkAz/+04XRwsZvzK8czeOds6RUQi7yaGssw6ArwyAACcwkqOZxTQ3jpF/Glh/kKaJjbl3NRzrVOqraCigJHLR/J2wdvWKSISeR+Qzq145C0+3hkA3sblcj7C4SdEe5dCiRmZuzM5PuV4ejXpZZ1yTNvKt5Gel86yvZ74YUBEIsvF4RJO5kvrkIPs3wT4XcN5F3jFOkP8y8XlunXX8dqO16xTjmpj6UYG5Axg5b6V1ikiEh3Pk85S64jv8tYAAJDAr4BS6wzxr6Ab5NLVl5K5O9M65bDWFa+j/7L+fFLyiXWKiERHEQn8xjri+7w3AAxhE3jlDon4VXmonAtXXsi7e961TjlE7t5cBuQMYMv+LdYpIhItDv8fQ/DcNp7eGwAAkvgbkGudIf5WHCzmghUXsLZ4rXUKAIsKFjE4d7B29BOJLzkU8HfriMPx7pvt5tODADlAknWK+Fu7eu1Y2ncpJ9Y/0azhfzv/x6RVkygN6e6WSBypxOEs0lluHXI43rwCADCClcBD1hnif1+XfU16bjpby7aanP/FbS9y4coLtfiLxBuHe726+IOXBwCARtwNfGqdIf73WelnDMsbRn5FflTP+8SWJ5iyZgoVbkVUzysi5jaQyJ+sI47G2wPAeZTicC3EwIPexdyaojWMXD6SomBRVM45AvSWAAAOa0lEQVR338b7+Nm6n2lHP5H44+JyI4PYbx1yNN4eAADSeRuHZ6wzJDZ8WPgh41aMY38ocn8uXVx+ueGX/PqTX0fsHCLiaU8xnIXWEcfi/QGgyh3gvY9QiD8tzF/I5FWTI7KNcNANct3a63hg0wNhP7aI+MJWkrz3mf/D8ccAkE4hcLt1hsSOWTtncfVHV4f18nx5qJxLVl/Cv776V9iOKSK+cxOD2GMdUR3e2QvgWJ5jLVfQE+hsnSKxYVXRKnZX7GZUy1F1PlZJsIQJKyfw5s43w1AmIj71KsP4g3VEdflnAAC4jMU4XAk0sE6R2JCzNwfHcTi/2fm1Psaeyj2MXD6S7ILs8IWJiN/sIMBYplNsHVJd/hoAnqeIK9gATLZOkdjxdsHbNE5szHmp59X4tdvLt5Oem07O3pwIlImIT7i4XMow8qxDasJfAwDAc3zMFbQD0qxTJHZk7c6iQ0oHejfpXe3XbNq/icHLBvNR8UcRLBMRH3ic4TxsHVFT/ngT4Pft53ZgvXWGxA4Xl+vXXc8r26u3G/X64vX0z+nPhpINES4TEY9bRxm/so6oDe/uBXAs8+lNgPeAZOsUiR3JgWRm9ZzFiBYjjvg9eXvzGLF8BDvLd0axTEQ8qAw4h2GssA6pDX9eAQAYQR4Od1lnSGwpD5Xz45U/ZumepYf9+uKCxQzOHazFX0QA/p9fF3/w8wAA8A5/Be8/bUn8pSRYwpjlY1ix79A/13N2zWFE3ggKKwuNykTEQ7J413/3/b/Lv7cADnqL9gRZBTS3TpHY0jq5NYv7LOb0hqfz0raXuGLNFdrUR0QACnDpwXA2W4fUhf8+BfB909nHFXwKXGydIrGlOFjMnF1zKA4Wc/PHNxN0g9ZJIuINVzKc96wj/v/27j3G8rK+4/jrd2aXcg0LlEIsRClUEbCKQGBhW7Myc2YXVqAINJFyFcUrl5oG2jQK2lRJNApFKtQIdU2l3CwXCzO7dMXislRWTBRQu0opxSyC7IBclr2cX/+Y3bhQLnuZmeec3/m8kslks/+8s5nM893n9/yes6V6fwdgvVFX4/TSGRER0WCVqww5u3TGROjtMwAbmu7jeLB0RkRENNaPdPxF6YiJ0pwdAFjozTr+EzuWTomIiEYZ03GIOZaVDpkozdkBgEE/w6moS6dERERj1DizSYs/TRsAoO0WfK50RkRENMZntH2rdMREa94AAIv9jdodpTMiIqLnLTDWOx/xuymadQZgQ3fYWct92Kt0SkRE9KRHTHew2Z4sHTIZmrkDAHM8hePxQumUiIjoOSvV3tvUxZ8mDwBYd0dzI97XjIiIKVT5iGFLS2dMpmYPANA2H1eWzoiIiJ5xuSFXl46YbM0fAGCNc3Fv6YyIiOh6i435ROmIqdDcQ4Avt8juVluCN5ZOiYiIrvSwlpkGPV46ZCr0xw4AzLZcZS5WlE6JiIiu87TaMf2y+NNPAwAMeQh/ihdLp0RERNdYjfca9uPSIVOpvwYAaLsLZ8h1wRERQa1ylrY7S4dMtf4bAKDtm/hM6YyIiCjuU4Z8vXRECf1zCPDlapVR16icWjolIiKK+KYhJ6v6c0e4P3cAoFLbxVn037ZPRES4yxpn9OviTz/vAKy3wI5qd+OA0ikRETElHrTKLPP6+62wDABwuzcZsAS7lU6JiIhJVFtumsMc6ZHSKaX17yOADc3132pH4+nSKRERMWnGVOZm8R+XAWC9YUu1zMWzpVMiImLCPa/jmHUfEhcyALzUoHtwHFaWTomIiAnzgo555viP0iHdJAPAy7XdqXKc3BYYEdEEq9VOMsei0iHdJgPAKxkyovI+rCmdEhERm22t2qmG3VY6pBtlAHg1Q25SOwud0ikREbHJanzIsGtLh3SrDACvZdg/4ZzSGRERsUlqtY9p+2rpkG6WAeD1tH1Z5fzSGRERsdH+yrArSkd0uwwAG2PIl1T+tnRGRES8jtrF2i4pndELchPgphh1AT5XOiMiIl7RJdouLB3RK7IDsCnGp8oLSmdERMT/88ks/psmOwCbY9SH8GUZoCIiSqtxvrZLS4f0mgwAm2vEySrXYFrplIiIPrVW5QOGXF06pBdlANgSC5yk9g1ML50SEdFnVqmdbNgNpUN6VQaALbXA0WrXY5vSKRERfeJFlT8z5ObSIb0sA8BEGPUulVvVdiidEhHRcM9pOc6ghaVDel0GgImy0CE67sDOpVMiIhpqTO1owxaXDmmCnGKfKIO+r9bG46VTIiIap7Zc5d1Z/CdOdgAm2oi9VL6Nt5ZOiYhoiAcMONqRHikd0iTZAZhowx62yhGqfPZ0RMQE+HfTzcriP/EyAEyGeVZYYY7a10unRET0sGuMmWu2sdIhTZRHAJOpVhn1KZVPyr91RMTGqtU+re1ilbp0TFNlUZoKI05TuQpblU6JiOhyq3CWtvmlQ5ouA8BUGfFulRsxo3RKRESXWqFyvCHfKR3SDzIATKWF9tPxbbypdEpERJd5WOVoQx4qHdIvcghwKg160HQzsaR0SkREF1msdlgW/6mVAWCqzbbcdH+MS0qnREQUV7nKmNmG/ap0Sr/JI4CSRv05rsS2pVMiIqbYSrWPGva10iH9KgNAaaPegZuwV+mUiIgp8j9aTjDo+6VD+lkeAZTW9kMth2CkdEpExBS4XceBWfzLywDQDQb92pC5uBCd0jkREZOgxiUWm2eOp0rHRB4BdJ8R81Tmy30BEdEcz+B0bd8qHRK/lQGgG436Q+PnAg4onRIRsYV+su5yn7zi12XyCKAbtf2X6Waqcjo2InpY7R/VDs7i352yA9DtFjhe7SrsUjolImIjjal92LBrS4fEq8sA0AsW2d0qV6vMKZ0SEfE67jTgNEd6rHRIvLY8AugFsy3XdhTOw4ulcyIiXsFqtYst1s7i3xuyA9BrRhyg8s94W+mUiIh1HlI52ZD7S4fExssOQK8Z9mPbOxSXGX+vNiKipPlqh2Tx7z3ZAehlCwzruEZl99IpEdF3nlB7v2G3lg6JzZMdgF42ZETtnbildEpE9JHajVrelsW/t2UHoClGnYgr8LulUyKioWrL8XHDbiidElsuOwBN0Xa92v6YXzolIhqnNv6sf/8s/s2RHYAmGnEC/j5nAyJii1V+quODhn23dEpMrOwANNGwG7Tsa/xNgbWlcyKiJ63BJaZ5Rxb/ZsoOQNPd4Z1arsJBpVMiomfcr/YBw5aWDonJkx2AppvjB3Y2Exfi+dI5EdHVnlM535hDsvg3X3YA+smdft9an8UppVMioqvUuMGAv3SkR0rHxNTIANCP7jBby2U4oHRKRBR3H87T9r3SITG18gigH82xyHQHGv9woadL50REEb9UO9tih2bx70/ZAeh3C+2m9mm192OgdE5ETLqVal/AZw17rnRMlJMBIMaN2Ffl0zixdEpETJLKbTrOMezh0ilRXgaAeKmFBnV8Hm8vnRIRE+Z+tfPyPn9sKGcA4qUGLTTmIJUzyWngiB73sMppFjs4i3+8XHYA4tVdZys7Oh0X51rhiJ7yJD5vukvNtrJ0THSnDADx+kZsp/Ix45cJzSidExGvovIbtSus8XeO8kzpnOhuGQBi491sB9v4iAwCEd1l/cK/yiXmWVE6J3pDBoDYdL8dBC7ATqVzIvpWFv7YAhkAYvMtMsMa56qdg51L50T0kV/jUpXLDOUyr9g8GQBiyy2ytTVOwl+rvaV0TkRj1ZbjSi1fzMIfWyoDQEyci7TMdLTKhTi8dE5EgyzD5db4iqO8WDommiEDQEyOBWbhE2rHyH0TEZunskjHF7XdplKXzolmyQAQk2uhP9BxLs7CtqVzInrAKtys9gXD7i0dE82VASCmxr/Z1TQfxkfxe6VzIrrQ42pfMeAfDHq8dEw0XwaAmFrX2coMx6p9UOVI+RmMWKp2lR3Md7gXSsdE/8gv3yjndm8x4Azjjwd2KZ0TMYWeVvkXXG7Ij0rHRH/KABDljV81fKLKmWqz5OcymqnGd1W+ZqUbvMfzpYOiv+UXbXSXEXuqvA9nY6/SORET4DF8Q8dXzbGsdEzEehkAojtdpOUIQzhF7ThsVzopYqONX9H7r2rz3eNOF+mUTop4uQwA0f0W2doqQyqn4FhsVTop4hWsVVukZb5pbjLbs6WDIl5LBoDoLQvtouMEnIR3YaBwUfS3NWrf0XKdtW40x1OlgyI2VgaA6F132NmAeThRrS07AzE11mIJrtdybd7Zj16VASCaYZEZVnuP2rFa2mo7lE6KRnkGI7hF5dZ8EE80QQaAaJ7rDNjJTLV5OAZvLZ0UPekXKgt13OZpI06yqnRQxETKABDNN2JfLXPUhoyfG8gbBfFKnsVdWKDldoN+VjooYjJlAIj+cp2t7OTwdWcGhnCgHCTsV2vxA7VRlQXG3JP/5Uc/yQAQ/W2R7a11mLVm4QiVP5HDhE21Fj/E93C3jjtzaj/6WQaAiA0tsr3VDscsHLrua8eyUbGZxnCv2hID7rbWPYY9VzoqoltkAIh4LRdpmWVftUNx2Lrv+2F64bJ4qdV4APdiicq9Bv1EpS7cFdG1MgBEbKr7TPekNxtwkNpBOAhvx/aFy/rFs/gpHsRSlaW2szQfpRuxaTIAREyUUW/Qsp+O/VX2U9tf5Y9yJ8FmexE/xwNqD6o8oONBSzyUu/UjtlwGgIjJVKuM2kNtHy17Yx+1fVT2Vtk7w4Fn8AssU1um8nOVZVZbZq7HsoUfMXkyAESUdJud/I49dLxRy55qe2BPvAG7Ydd1X62SmZuhgyfWfT2OX+JRPKr2v1oeMc2jZhsrGRnRzzIARHS76wzY1a7W2FXHrthZZYbKDJ113ysz1LZV20Fla2xj/MKjrYy/xbDhALH+7zf0AlZu8OcOnsYqPKfyvI4XVX6j8rzamNqYljEdKzb4/oRpnnCXX2WbPqK7/R/ekZWlyzUTdQAAAABJRU5ErkJggg==;" vertex="1" parent="1">
          <mxGeometry x="80" y="1214" width="22" height="22" as="geometry" />
        </mxCell>
        <mxCell id="mUVZ_eBPIsCB5TYUY8Db-34" value="" style="shape=image;verticalLabelPosition=bottom;labelBackgroundColor=default;verticalAlign=top;aspect=fixed;imageAspect=0;image=data:image/png,iVBORw0KGgoAAAANSUhEUgAAAgAAAAIACAYAAAD0eNT6AAAABHNCSVQICAgIfAhkiAAAAAlwSFlzAAAOxAAADsQBlSsOGwAAABl0RVh0U29mdHdhcmUAd3d3Lmlua3NjYXBlLm9yZ5vuPBoAACAASURBVHic7d15lJx1mfbx7/1UdRaSAIZkWNKpqgQUIS6DkbDroL7nFQRlcJsRRFbRUYfRcWEcR3EdxREVF7YAihsiIi6AvuIoSkSiUVHDIgldVVkQSKKE7Omu3/tHdUOWXqqqq+p+lutzDkeSdD11HUn3fdXv9yyGiMRWgIgDDpjOpEnTqdWmE8J0QtgHmE4U1X8N9d+r/3oCMG3w5ZOAyYP/PgWY0ODbbgM2Dv77ZmDL4L8/gdk2arV1mK0F1mG2jlpt3ZP/braWKFrHli3rWL16nUFtvP8fiEhnmHcAkSwLxeL+mBWp1QqYFYACZiVCKACzgBm+CcdtDbAaswohlIEqIVSJoiohVKhU/mIQnDOKZJIKgEgHhfnze3j00YPJ5eZRqx2MWQkoEMLQwJ/om9DdVkKoYlalXg4qRNH9DAwsZc89/2xLl27zDiiSVioAIm0QIE+hUADmAYdiVv/f+q8nuYZLrn6gCtyL2VJqtXuBpUTRUiuXt4zxWhEZgwqASJNCb+90crkjgOcBz6I+6J9J43vsMj7bgPuBe4E/Ab9jYOBXtnLlOt9YIsmiAiAyigA5CoVnAvOJomMI4Vjqwz5yjia7exizO6nVFgFLmDDh17Zs2VbvUCJxpQIgsoNQLO5PCM8niuYTwnzgWGBv71zSkk3A7zBbQq22BLNfWKXS5x1KJC5UACTTQrE4B3gRcDxwHFDwTSQdVgXuIIQfY3a7VSoPewcS8aICIJkSSqX9qNVegtnQ0C85RxJffwJ+DPyYLVt+bo88snGsF4ikhQqApNrgHv7fAy/B7GTgKLR/L8PrB+7B7HZqtduZOfMOW7Jku3cokU5RAZDUCQccMIMJE15GCCcB/wfYyzuTJNI6zH4C3Mq2bT+w1avXeAcSaScVAEmFUCzOIYSXY3YS8EKgxzuTpEqN+gmFPyCEb1qlcp93IJHxUgGQxAqFwjyi6DWE8ErqN9wR6ZalmH2bWu0Gq1aXeocRaYUKgCTKDp/0Xw0c451HhPqdCr+llQFJGhUAib0wa1YvudzrMDsNeI53HpERmf2RWu1r9PR83ZYvX+EdR2Q0KgASS6G3dzJRdBJmZwAvBfLemUSaUAPuIoTrmDDhelu2bL13IJFdqQBIbAQwisXjgXOAU4A9nCOJtMNm4DuEcA3V6v/q8ccSFyoA4m7w5jxvwOw84EDvPCIdtBKzr2F2mfX1VbzDSLapAIiLABHF4gmYvZEQTkRL/JIt/ZjdRq12JdXqrVbfMhDpKhUA6aowd+5e9Pefidm/AnO984jEwCrMFrJt2+d1syHpJhUA6YpQLD4Ps/MJ4XS0ty8ynK2YfY9a7bNWrS7yDiPppwIgHTO4zH8K8A50zb5IM34JXEKlcrPBgHcYSScVAGm7UCpNolZ7DWb/ATzTO49IgvURwhXk85fbQw897h1G0kUFQNomzJmzL7XavwJvAqZ75xFJkb8SwhXkcp+xvr5HvMNIOqgAyLiFuXML1Gr/Tgjnov19kU7aBnyTgYEP2cqVy7zDSLKpAEjLQqEwlyi6gBDOByZ65xHJkO3A9cB/6/kD0ioVAGlaKBYPIYQPDD6QJ/LOI5JhNUL4FvAhq1bv9Q4jyaICIA0LpVIJ+A9COAfIOccRkafUMPs2Zv9lfX0PeIeRZFABkDGFOXOKhPBeQjgb3bFPJM7qRaC//z9t5coHvcNIvKkAyIhCqbQfIbwfOBfo8c4jIg3bTghXY/Yhq1Qe9g4j8aQCILsJ++47hYkT34rZe4E9vfOISMs2YfY5oui/dR8B2ZUKgDwpzJ/fw2OPnYXZB4H9vPOISNusJYRPMmHCZ2zZsq3eYSQeVAAEgFAs/iNwMXCQdxYR6ZjlwLusUvmOdxDxpwKQcaFUeiYhXAKc4J1FRLrmZ0TRv1lf3z3eQcSPCkBGhd7e6eTzHyCEf0Fn9otkUQ34GlH0Lt1eOJtUADImQI5C4S2D+/x7e+cREXd/I4SLqFa/YNDvHUa6RwUgQ0KhMB/4ImYLvLOISOzcA/yLVSq/9A4i3aECkAGhUHgaUXQRIbwV3bpXREYWgK+Sz7/Tli9/1DuMdJYKQIoFMIrFc4CPA/t45xGRxFhHCBdSrS60eimQFFIBSKlQKMzF7ArgJd5ZRCSxFmF2rpXL93sHkfZTAUiZAPnBk/w+CkzxziMiibcFs08wZcrHbOnSbd5hpH1UAFIkzJnzHEJYSAiHe2cRkdT5A1F0nvX1LfYOIu2hApACYd68CWzY8F/AheiafhHpnH7gYqZO/aBWA5JPBSDhwuzZzyKKvgw8zzuLiGTGUkJ4g1WrS7yDSOt0SVhCBciHQuE9RNFv0PAXke6ah9mvQqn08TBv3gTvMNIarQAkUCiVnkmt9mXd0EdE3Jn9mhDeYJXKfd5RpDlaAUiYUCicQQi/0fAXkVion3T821AoXBD0oTJR9B8rIUKptDchXAb8k3cWEZFhhfBd+vvPtdWr13hHkbGpACRAKBaPB74CzPLOIiIyhkeAs6xSuc07iIxOWwAxNnii338Dt6PhLyLJsC/wg1AqfTzosuRY0wpATIXe3lnk898ghOO8s4iItCSExUTRa61cLntHkd2pAMRQKBZfBHwN2M87i4jIOK0B3mCVyq3eQWRn2gKIkQC5UCpdBPwYDX8RSYcZ1LcEPhvmz+/xDiNP0QpATIQDD/w7+vuvB473ziIi0iF3EEWvtb6+R7yDiApALIRi8TDgJqDkHEVEpNNWYfYqK5d/5R0k67QF4CwUCqcDi9DwF5FsmEUIPwuFwnneQbJOKwBOAuQplT5CCO/xziIi4sLsSqZMeZueLOhDBcBBOOigmWzffhNwrHcWERFnvySKTtV5Ad2nAtBlg4/v/R4wxzuLiEhMrAJebpXKb72DZInOAeiiUCq9lCi6Ew1/EZEdzQLuCKXSKd5BskQFoEtCoXABIfwA2Ms7i4hIDE0lhJsG74UiXaAtgA4L8+f3sGbNZcA53llERBLiWmbMON+WLNnuHSTNVAA6KMycOZU99vgmcKJ3FhGRhPkJudwr7aGHHvcOklYqAB0SSqX9Bpf853tnERFJqD+Rz59oy5ev8A6SRioAHRCKxUOA24CidxYRkYRbjdnLrFz+vXeQtNFJgG0WZs8+jvqd/TT8RUTG7wBC+Gkolf7BO0jaqAC0USgUTiKKfgQ8zTuLiEiK7E0IPwyFwqu8g6SJCkCbhGLxdZjdBEz2ziIikkITMbs+FIu6oqpNVADaIBSLbwG+AuhZ1yIinZMDrgrF4ju9g6SBCsA4hULhPcDn0f+XIiLdYMAnQ6n0ce8gSaerAFoUwCiVPk0IF3hnERHJqC9QqbzNIHgHSSIVgBYEMIrFzwJv884iIpJxV1OpvNGg5h0kaVQAmjQ4/D8P/It3FhERAeAbVCpnGPR7B0kSFYAmBMhRKCzE7EzvLCIisgOzGyiXT1MJaJwKQIMC5CkWvwy8zjuLiIgM60ZmzHidHiLUGJ253oAAOYrFa9HwFxGJs1exZs31AfLeQZJABWAMg3v+lwGne2cREZExnUqx+A2VgLGpAIwigFEofBE4zzuLiIg07FUUCguDZtyodA7ACHS2v4hI4l1LpXKuLhEcntrRSEqlT6PhLyKSZGdRLF7qHSKuVACGEUqlD+oOfyIiqfCWUCx+xDtEHGkLYBeDD/b5vHcOERFpq3dZpfI/3iHiRAVgB6FYPA24Dq2MiIikTQDOs0rlau8gcaECMCgUCidjdhO6dEREJK0GCOGfrVr9lneQOFABAMLs2ccRRT8CJntnERGRjtqC2QlWLv/MO4i3zBeAUCweAtwJTPfOIiIiXbGeKDrO+vr+4B3EU6YLQCgW9wfuAoreWUREpKtWkc8fZcuXr/AO4iWzJ7uFgw+eBtyChr+ISBbNor//1lAq7e0dxEsmC0CYP7+HzZu/BRzmnUVERNw8ixBuCvPmTfAO4iGTBYA1ay7D7P96xxAREXfHs2HD5d4hPGSuAIRi8Z3AOd45REQkNs4KxeK7vEN0W6ZOAgyl0ksJ4QdAzjuLiIjESg2zU61c/q53kG7JTAEIhcKhmP0S2Ms7i4iIxNIGouhY6+u7xztIN2SiAIRZs/Yhn78bONA7i4iIxFqFKDrC+voe8Q7Saak/ByDMn99DPn8zGv4iIjK2IrXad7JwZUDqCwBr1nwGONY7hoiIJMZRPPHEpd4hOi3VWwChUHg9Ztd55xARkQQK4Y1WrV7lHaNTUlsAQrF4GLAIPeBHRERas50QjrdqdZF3kE5IZQEYPOnvN0DJO4uIiCTaw9Rqz7cVK1Z7B2m31J0DECBHPv8tNPxFRGT89ieKvh4g7x2k3VJXACgWPwgc7x1DRERS44UUCh/yDtFuqdoCCMXii4D/h+70JyIi7RWo1U6xFSu+5x2kXVJTAEKptB8h/A7YzzuLiIik0jrM5lu5XPYO0g6p2AIY3Ju5AQ1/ERHpnOmEcH1abhKUigJAofBhQjjOO4aIiKTeEWzY8FHvEO2Q+C2AUCq9kBB+gvb9RUSkOwJwklUqt3oHGY9EF4BQKDwNs98DBe8sIiKSKY8QRc9N8kODkn1dYxRdTgga/p0yaRKUSvV/DjgAJk+GqVNh4kTYuhU2bIAtW2D1aujrg3K5/msR6YzJk6FYhDlz6t+Tkybt/j25eTOsWgWVSv37cutW79RptS+12rUBXmb1FYHESewKQCiVzieEy71zpMrMmXDssXD44bBgARx4IFiTf0WWL4fFi+HXv4Y774RHH+1MVpEs2HdfOOaY+vfjggUwd25zrw8Bli2rfz8uXlz/nlyzpjNZs8rszVYuJ3IWJbIAhFLpmYSwBNjDO0vi7bknvPSl8IpXwJFHQq6Np1LUanD33fDd78Jtt8Hjj7fv2CJptddecOKJ9e/JBQsgauO52gMDcNdd9e/JH/4QnniifcfOrk3A861Suc87SLMSVwAC5CkUFmG2wDtLos2cCaedBuecA9Omdf79tm2DH/wALr20vlUgIjvr7a1/P772tbBHFz7bbNwIN9wAV11V38aT8fgdM2YcYUuWbPcO0ozkFYBi8X3Ah71zJNaMGfDud8Opp0Le4RSQ/n64+Wa4+GJtD4hAfZn/3e+uf+L3+p688Ub45Cdh7druv39ahPABq1YTdbvgRBWAMGfOc6nVFgOpuAlDV+XzcMYZ8Pa3d+cT/1g2bYIrr4QvfrG+OiCSNUPfk+94R/1EPm/r18Nll8HChbA9UR9k46KfWu0oW7HiN95BGpWYAhDmz+9hzZq7gPneWRKntxc+9zk47DDvJLv785/hbW+DBx7wTiLSPXPnwuc/D4ce6p1kd3/8Y/17Ult1rbh38FbBibgcKjl3Alyz5gNo+DfvxBPh1lvjOfwBnvGM+glJZ5/tnUSkO175Svj+9+M5/AGe/Wy45RY45RTvJEl0KLXa+71DNCoRKwChWDwMWEzS71vQTWZw4YVw/vneSRp3zTXwkY/Urx4QSZsogve/H8480ztJ4y67rH6+TkjkZe5eBqjVjkzCVkDsC0CAPMXir9Cn/8blcvCxj9XPJk6aH/4QLrhANy+RdOnpgUsugZNP9k7SvJtuqp+k2N/vnSRJ/sCMGc+P+1UB8d8CKBT+HQ3/xuXzcMUVyRz+UL8nwcKF9TuciaTBpEn11a0kDn+oXzF0+eU+Vygk13NYu/ad3iHGEusVgNDb+3RyuXuAyd5ZEsGsvlz36ld7Jxm/xYvhrLPq1yqLJNWkSfVCe+yx3knG7+ab61cRaTugUVuBw+J8g6DYrgAEMHK5y9Dwb9yFF6Zj+EP9DmhXXqmVAEmuSZPg6qvTMfyhflLgu9/tnSJJJhLC5SHGH7RjWwAoFs8BXuwdIzFOOilZJ/w14phj4LrrYMoU7yQizRn65H/MMd5J2uvNb67fsEgaY/YCCoVzvWOMJJbNJPT2TieXewCY4Z0lEYrF+mU7cbiZSCdoO0CSJE3L/sPZuLH+gaOvzztJUqyjp+eZtmzZY95BdhXPFYBc7mI0/BuTz9dvKJLW4Q/aDpDkSNuy/3CmTIHPfEYnBTZuOtu3/7d3iOHErgCE2bMPB87yzpEYZ55Zv3FH2mk7QOIurcv+w3nuc+H0071TJMnZoVR6oXeIXcVqCyBAjmLx10BMb1sXMzNmwE9/Go97+3eLtgMkjtK+7D+cDRvg+OPhsditbMfVn5gx43lxujdAvFYACoW3oOHfuHe/O1vDH7QdIPGThWX/4UydWr8sUBr1LNaufYt3iB3FZgVg8MS/B4Hp3lkSYf/94Re/yO4+nFYCJA6y+Ml/R/398IIXwOrV3kmS4gnMnmHl8l+8g0CcVgCi6GNo+DfuvPOyO/yhvhJw7bU6J0D8ZH34Q/1n0Fk6ZasJ04APeocYEosVgFAozMPs9+hhP43Zc0+46y4NP4BFi+Ccc2BLIp6+KWkxtOyfhRP+xrJxIxxxRP2cAGlEjRAWWLW6xDtIPFYAoujTaPg37sQTNfyH6OoA6bYsne3fiClT6s/wkEZFmP2PdwiIQQEIxeI/EsL/8c6RKC9/uXeCeNF2gHSLlv2Hp59JzfqHUCye6h3CdQsgzJs3gQ0blgIHeeZIlJkz4Ve/qj/yV3am7QDpJC37j6y/v17E163zTpIky5k69VBbunSbVwDfFYAnnngTGv7NOfZYDf+RaDtAOkXL/qPL5+Hoo71TJM2BgzPQjVsBCDNnTsXsvV7vn1iHH+6dIN60HSDtpmX/xixY4J0gecz+Kxx00J5eb++3ArDHHu8G9nV7/6Q64gjvBPGnEiDtouHfOP1sasUMtm9/l9ebu5wDEA488O/o719G/ZpIadSkSXDvvRC5n7uZDLpZkIyHhn9zajU45BDYutU7SdJspr//GbZq1cpuv7HPJOnvvwgN/+aVShr+zdBKgLRKw795UQSzZ3unSKLJ5HLv83jjrk+TMGdOETin2++bCqWSd4LkUQmQZmn4t27OHO8EyWR2bpg79xndftvuf5wcGLgImND1902DAw7wTpBMeoCQNCqrD/ZpF/2MalWO/v6unxTf1QIQensPwkwPkW7V1KneCZJLlwjKWHSp3/jp+6t1ZqeHUumZ3XzL7q4A5HIXoVv+tm7yZO8EyabtABmJlv3bQ99b45EjhP/q5ht2rQAM7m/8U7feL5UmTvROkHzaDpBdadm/ffQhZbz+KfT2Prtbb9a9FYD+/g8BuoXdeOjymvbQdoAM0bJ/e23e7J0g6SLy+a5dEdCVAjC49/+qbrxXqumbq320HSBa9m8/3XNj/EJ4VSgUDu3GW3VnBSCXey/69D9+et52e2k7ILu07N8ZmzZ5J0iDCOjK3QE7XgDCgQfOBk7r9PtkwsMPeydIH20HZI+W/Ttn1SrvBOlgdloodf7GL51fAejvfze67r89+vq8E6STtgOyQ8v+nVUueydIix5C6PgqQEefBTB4z/8yoFND22Hy5PqzAMzlEQ7pp2cHpJuGf2fpWQDttpVaba6tWLG6U2/Q2RWA/v4L0PBvn82btQrQSTonIL205995y5Zp+LfXRHK5f+3kG3SsAIQDDtgDOL9Tx8+su+/2TpBuOicgfbTn3x362dR+IZwfZs7s2C1gO7cC0NNzNrBPx46fVb/+tXeC9NM5AemhZf/uUQHohL2ZPPnsTh28IwUg1C/5u6ATx868O++s77VJZ2k7IPm07N89/f1w113eKdLJ7O2hQ7fQ78wKQLF4CnBQR46ddY8+qqbdLdoOSC4t+3fXXXfB2rXeKdKqRKFwSicO3KktgLd36LgC8L3veSfIDm0HJI+W/btPP5M6y+wdHTlsuw8YisXDgN+2+7iyg732qjfuPfbwTpIdixbBOefAli3eSWQ0Q8v++uTfPRs3wlFHwfr13knSrVZbYCtWtPUksPavAITQ0csWBHj8cfjmN71TZIu2A+JPy/4+vvENDf9uMHtL2w/ZzoOFQuFpmK0E9NG00/bfH37xC8h35NwQGYluFhRPWvb30d8PL3gBrO7YvWrkKVvJ5wu2fPmj7Tpgu1cAzkPDvzsefhhuvtk7Rfbo6oD40dn+fm68UcO/eyYyMNDWSwLbtgIQIKJYXAbMadcxZQwzZsBPfwrTpnknyR6tBMSDPvn72bABXvSi+pVJ0i1VKpW5BgPtOFj7VgCKxRPQ8O+uNWvgc5/zTpFNujrAn4a/r0su0fDvvgKl0kntOlj7CoDZG9t2LGnctdfC0qXeKbJJ2wF+tOzv649/rJ8UK90XwrntOlRbtgBCqbQfIVSBnnYcT5pUKsEtt+jTqBdtB3SXPvn72rgRTj4ZHnrIO0lWDZDPz7Hly1eM90DtWQEI4Ww0/P2Uy/D+93unyC5tB3SPhr+/971Pw99Xjv7+N7TjQOMuAKG+inBWG7LIeHz723DNNd4pskvbAZ2nZX9/CxfCd77jnULg7NCG+T3+FYBC4UXovv/x8OEP14uA+NDNgjpHN/nx9/3vw8c+5p1C6uYMzt5xGX8BMOvYowqlSSHAhRfWbxAkPrQS0H765O/vF7+Ad7xDTyKNE7Nzxn2I8bw4HHzwNLZs+Qu6+U+8aJ/Un04MbA/9Xfa3eDGceSZs2uSdRHa2BbP9rVz+W6sHGN8KwNatr0TDP362bIFzz4U77/ROkl06MXD8NPz9afjH2SRCOHU8BxhfAQjh9eN6vXSOSoA/lYDWafj70/BPgnHN4Ja3AEJv7yxyuQqQG08A6TD9IPWn7YDm6O+sPw3/pAiYzbVyudzKi1tfAYii09Hwjz+tBPjTSkDjNPz9afgniRHC61p9cesFwKzlN5UuUwnwpxIwNg1/fxr+SXRaqy9sqQCEOXMOBp7T6puKA5UAfyoBI9Pw96fhn1SHhtmzn9XKC1tbARgY+KeWXie+VAL8qQTsTsPfn4Z/suVyr27lZa0VALPXtPQ68acS4E8l4Cka/v40/JMvhNe28rKmC8DgUsOhrbyZxIRKgD+VAA3/ONDwT4uDQ2/vs5t9UfMrAC0uNUjMqAT4y3IJ0PD3p+GfLi3M5uYLQAivbPo1Ek8qAf6yWAI0/P1p+KfRq5p9QVM3AgqzZx9IFC1r9k0k5vQD2V9Wbhakv2v+NPzTK4qeaX19DzT85U0e/JSmA0n8aSXAXxZWAjT8/Wn4p1ut9vJmvry5AmD2iqa+XpJDJcBfmkuAhr8/Df8saGpGN7wFEGbN2od8/i9AvulIkhz6Qe0vbdsB+jvlT8M/K2qYzbJy+S+NfHHjKwA9PSej4Z9+Wgnwl6aVAA1/fxr+WRIRwssa/+JGNXFQSTiVAH9pKAEa/v40/LPopEa/sKECEOqf/F/SchxJHpUAf0kuARr+/jT8s+rFYd68CY18YWMrALNnHwXsPZ5EkkAqAf6SWAI0/P1p+GfZNDZuPLqRL2ysAJidMK44klwqAf6SVAI0/P1p+Eut9n8b+bJGC8BLxxVGkk0lwF8SSoCGvz8Nf4GGP7SPeRlgKJX2I4TVjXytpJx+wPuL6yWC+rvhT8NfnhKo1XptxYrVo33R2CsAtdpL0PAX0EpAHMRxJUDD35+Gv+zMMBvzxP2xC4DZi9oSR9JBJcBfnEqAhr8/DX8Z3vFjfUEj5wCMeRDJGJUAf3EoARr+/jT8ZWQvHusLRi0AoVCYC5TalUZSRCXAn2cJ0PD3p+EvozGbHXp7DxrtS0ZfATDTp38ZmUqAP48SoOHvT8NfGhFFo27hj7UFoAIgo1MJ8NfNEqDh70/DXxo1xof40QtACC9oaxhJJ5UAf90oARr+/jT8pTkvHO0PRywAYfbsAzCb3f48kkoqAf46WQI0/P1p+Evz9g9z5xZG+sORVwCi6KiOxJH0Ugnw14kSoOHvT8NfWtXff+RIfzTaFsARHYgiaacS4K+dJUDD35+Gv4yH2YizfOQCEIIKgLRGJcBfO0qAhr8/DX8Zv+YKQIA8ZvM7l0dSTyXA33hKgIa/Pw1/aY/5Yd68CcP9wfArAMXic4AY3GdUEk0lwF8rJUDD35+Gv7TPJNavf+5wfzDSFsCIJw2INEUlwF8zJUDD35+Gv7Sb2bAzffgCMMpJAyJNUwnw10gJ0PD3p+EvnTDCTB++AISgFQBpL5UAf6OVAA1/fxr+0jnDznTb9TdCb+90crk1w/2ZyLhp0PhbvBjOOgs2bqz/Wv9N/Gn4S6dF0X7W1/fITr+12xflckei4S+dopUAfzuuBGj4+9Pwl24YGFiw628NtwVwWBeiSJapBPhbsAC+9KV6EdDw96PhL93zvF1/Y7gC8KwuBJGsUwnwd/jhcJTu+O1Gw1+6KYrm7fZbu32R2W5fJNIRKgGSVRr+0m0hjF4AAuQJ4RndSySZpxIgWaPhLz6evusdAXdeASgWnw5M7GYiEZUAyQwNf/HTw/r1O33A37kADLNEINIVKgGSdhr+4i2X22nG73oOgAqA+FEJkLTS8Jc42OVD/s4FYJizBEW6SiVA0kbDX+JjlAKgLQCJA5UASQsNf4mX4QtAmD+/B3h61+OIDEclQJJOw1/i56DQ2zt56BdPrQA8+ujBQI9HIpFhqQRIUmn4Szzl6Ol58kqApwrALmcHisSCSoAkjYa/xFmt9uSsj3b4zYNdwoiMRSVAkkLDX+LvmUP/8lQBMCs5BBFpjEqAxJ2GvySBWXHoX3e8CqDgEEWkcSoBElca/pIUITw563csAMVhvlQkXlQCJG40/CVZdl4BCGBAr1sckWaoBEhcaPhL8vQGyMHQCkCxuB8wyTORSFNUAsSbhr8kUw+zZu0PQwXATPv/kjwqAeJFw1+SLJ8vwFABqNW0/y/JpBIg3abhL0k3eCVAtOMvRBJJJUC6RcNf0mGHAqBLACXpVAKk0zT8JS0GLwXUCoCkh0qAdIqGv6TLDisAIagASDqoBEi7afhL+uy0BaB7AEh6qARIu2j4SzrNBrAAOYrFbex8V0CR5Js0CRYuhGOP9U4i3MrOvwAAIABJREFUSaThL2k2derEiAMOeBoa/pJGWgmQVmn4S9pt2vS0iIkT9/HOIdIxKgHSLA1/yYKBgX0iarXp3jlEOkolQBql4S/ZMT0CVAAk/VQCZCwa/pIlIUyPCEFbAJINKgEyEg1/yZpcbp+IKNIKgGSHSoDsSsNfsmhwBUAFQLJFJUCGaPhLdukcAMkolQDR8JcsC0EFQDJMJSC7NPwl66JIJwFKxqkEZI+GvwiEsE9EFD3NO4eIK5WA7NDwFxkyPSKEyd4pRNypBKSfhr/IjqZEwATvFCKxoBKQXhr+IjsLYXIETPTOIRIbKgHpo+EvsjuzPbQCILIrlYD00PAXGcnkCOjxTiESOyoByafhLzKayVoBEBmJSkByafiLjMV0DoDIaFQCkkfDX6Qh2gIQGYtKQHJo+Is0LBr8R0RGoxIQfxr+Ik3R8BdplEpAfGn4izRNBUCkGSoB8aPhL9ISFQCRZg2VgF/+0juJLFmi4S/SIhUAEUmuEMDMO4VIIqkAiDRr0iRYuBCOPto7iTz/+XDttTBlincSkcRRARBpxtDwP/ZY7yQyZMEClQCRFqgAiDRKwz++VAJEmhYBNe8QIrGn4R9/KgEiTYmA7d4hRGJNwz85VAJEGhYBW71DiMSWhn/yqASINCQCtnmHEIklDf/kUgkQGUvQFoDIcDT8k08lQGQ0m7UCILIrDf/0UAkQGclmnQMgsiMN//RRCRDZXQibtAIgMkTDP71UAkR2ZrY5wmyzdw4Rdxr+6acSILKjjRG12jrvFCKuNPyzQyVAZMjaCDMVAMkuDf/sUQkQAbN1EbDWO4eICw3/7FIJkKwLQSsAklEa/qISINm2TucASPZo+MsQlQDJrnURoAIg2aHhL7tSCZAsMlunLQDJDg1/GYlKgGTNwMC6CDOdBCjpp+EvY1mwAK68sv53RSTtzNZGRJFWACTdNPylUcccA9ddp5UAST+zdRFbtqgASHpp+EuztB0gWRBF6yxAjmJxGxB55xFpKw1/GY/Fi+Gss2DjRu8kIu03derEyGAA+Jt3FpG20vCX8dJKgKTXelu6dNvQp/6VrlFE2knDX9pFJUDSaQUMLfubVVyjiLSLhr+0m0qApE8FhgpACCoAknwa/tIpKgGSLjsUAKg6BhEZPw1/6TSVAEkLsypoBUDSQMNfukUlQNJhhxWAKNIKgCSThr90m0qAJF2tphUASTgNf/GiEiBJNjBQATCAAEaxuAnQTbAlGTT8JQ50syBJnu1UKpMNBiIAg4DuBSBJoeEvcaGVAEmelYM3ANzp9r86D0DiT8Nf4kYlQJLlyVm/YwHQeQASbxr+ElcqAZIUO9z476kCoBMBJc40/CXuVAIkCUIYZgUgih5wCSMyFg1/SQqVAIm/+4f+5akCMDDwJ5coIqPR8JekUQmQOIuiJ2f9UwXg7/7uAWC7Rx6RYWn4S1KpBEg8DbB9+5+HfvFkAbAlS7YDy1wiiexKw1+STiVA4me5rVy5eegX0S5/uLTLYUR2p+EvaaESIPGy04zfuQCYqQCILw1/SRuVAImPnc7127kA1Go6EVD8aPhLWqkESBzs8iFfKwASDxr+knYqAeJtYGCUAlCpPAhs7WYeEQ1/yQyVAPHTz8SJD+74GzsVAIN+YKcvEOkoDX/JGpUA8fGgLVu20wf8Xa8CgF1OEhDpGA1/ySqVAOk2s91m+3AFQOcBSOdp+Pv7zW/grru8U2SXSoB01727/sZwBeC3XQgiWabh72/xYjjjDDjrLLjzTu802aUSIN1Sqy3Z9bd2LwADA78CQjfySAZp+PtbvBjOPBM2bYItW+Dcc1UCPKkESDfkcot3/a3dCoCtXLkOnQgonaDh72/H4T9EJcCfSoB01nLr63tk198cbgsAzH7V8TiSLRr+/oYb/kNUAvypBEjnDDvThy8AIdzd0SiSLRr+/kYb/kNUAvypBEgnjDDThy8AI7QFkaZp+PtrZPgPUQnwpxIg7RZCEysAlcofgI2dzCMZoOHvr5nhP0QlwJ9KgLTPFvbc857h/mDYAmDQTwi7XTIg0jANf3+tDP8hKgH+VAKkPZbY0qXbhvuDkbYAIIq0DSCt0fD3N57hP0QlwJ9KgIzfiLN85AKgEwGlFRr+/tox/IeoBPhTCZDxGGWWj1wAQPcIleZo+Ptr5/AfohLgTyVAWtXTM+IKgI32ulAsVoBC2wNJ+mj4++vE8N+R/hv7W7y4fvvmjTpHWxqy2iqVWSP94WgrAAA/b3MYSSMNBn+dHv6glYA40EqANOeO0f5w9AIQwo/bGkXSR8PfXzeG/xCVAH8qAdIos1Fn+OgFIIr+H3owkIxEw99fN4f/EJUAfyoB0ohc7vbR/njUAmDl8l8Y5hnCIhr+MeAx/IeoBPhTCZDR3W/Ll68Y7QvGOgdA2wCyOw1/f57Df4hKgD+VABnZmLN77AIwxh6CZIyGv784DP8hKgH+VAJkOA18eB+7AGzf/jNgaxviSNJp+PuL0/AfohLgTyVAdtbPhAmjXgEADRQAW716E7opkEyaBFdfreHvadEiOOOMeA3/ISoB/lQCZIjZXbZs2fqxvmzsFYA6bQNk2dAn/2OO8U6SXYsXw3nn1QdtXKkE+FMJEGj43L3GCkCtpgKQVVr29xfHZf+RqAT4UwmQBs/dG/VWwEMC5CgWHwWmjyuUJIuGv78kDf8d6e+OP902OKv+RqUy06B/rC9saAXAYACzn4w/lySGfoD7S+rwB60ExIFWArLqp40Mf2j8HACAW1sMI0mj4e8vycN/iEqAP5WALLql0S9svABs3/59GmwVkmAa/v7SMPyHqAT4UwnIkhpm7S8AtmrVWsx0OWCaafj7S9PwH6IS4E8lICvuGryFf0Oa2QKAEL7bdBxJBg1/f2kc/kNUAvypBGRBUzO6uQJQq93c1NdLMmj4+0vz8B+iEuBPJSDdcrnOFQBbsWI5sLSpQBJvGv7+sjD8h6gE+FMJSKv77KGH/tzMC5pbAQAw+3bTr5F40vD3l6XhP0QlwJ9KQBrd2OwLmi8A8I0WXiNxo+HvL4vDf4hKgD+VgHQZGPhWsy9pugBYuXw/2gZINg1/f1ke/kNUAvypBKTFA7Zy5R+bfVErKwAQQtNNQ2JCw9+fhv9TVAL8qQQkn9n1rbystQKQy7X0ZuJMw9+fhv/uVAL8qQQkW63W0ofylgqA9fU9gFnTyw3iSMPfn4b/yFQC/KkEJNV9Vq22tC3f2gpA3dfH8VrpJg1/fxr+Y1MJ8KcSkERfbfWFrReA/v6vAAMtv166Q8Pfn4Z/41QC/KkEJElgHFfmtVwAbOXKVcDPW329dIGGvz8N/+apBPhTCUiKn1ul0tfqi8ezBQBmXxnX66VzNPz9afi3TiXAn0pAEoxrBo+vAOTz3wb00y1uNPz9afiPn0qAP5WAONsy3jvzjqsA2LJl62ny6UPSYT09cNVVGv6eFi2CM87Q8G+HoRKwaJF3kuxasAAuv7z+s0XiI4TvWrn8t/EcYnwrAPUQ14z7GNIeZvCJT8Bxx3knya7Fi+G88+qDS9pjyxY45xytBHg67jj49KchGv/IkLa5erwHGP9/zWr1J8CycR9Hxu8DH4BTT/VOkV365N85Wgnwd9JJ8L73eaeQuvLg7B2XcRcAq1+G8KXxHkfG6dWvru85iw998u88rQT4O/tsfciIh2sMauM9iLUjSSiV9iOEFUC+HceTJpVKcMstOlHHi0746y6d5Opr0yY4+WRYvtw7SVbVyOXm2EMPVcd7oLZs6Fi5/BfMbmvHsaRJPT1w2WUa/l607N992g7wtccecOmlkNfnPSc/bMfwhzYVAABqtavadixp3DnnwCGHeKfIJi37+9F2gK9587Tl6MWsbbO2LVsAAAEiisVlwJx2HVPGMHMm/PSnMHWqd5Ls0bJ/PGg7wM/GjXD88fDoo95JsqRKpTLX2nQb/ratABjUCOHydh1PGnDhhRr+HrTsHx/aDvAzZQq8853eKbLF7PJ2DX9o4woAQCgUnobZSmCPdh5XhjF7dv3Tv/bhukuf/ONJKwE++vvhhS+EVau8k2TBVvL5gi1f3rYll7be1cGq1b8Swg3tPKaM4NxzNfy7TcM/vnTbYB/5fP1cDOm8EK5v5/CHNhcAAMwubfsxZWd77VW/7l+6R8v+8aftAB+vfS3suad3ivQL4QvtPmTbC4BVKr8Dftnu48oOXvay+qU40h062z85dHVA902ZAiec4J0i7X5lK1b8ut0H7dSNnS/p0HEF4BWv8E6QHVr2Tx5tB3TfySd7J0i3ED7VicO29STAIQFyFIsPAAd24viZtu++cNddeihHNyxaVP80qU/+yTRpElx9NRxzjHeS9BsYqD81cO1a7yRpVKZSebpBf7sP3JEpYjBACJ/txLEz79hjNfy7Qcv+yaftgO7J5eDoo71TpFMIn+7E8IfObQFAf//VgOpgux1+uHeC9NOyf3poO6B7jjjCO0EarWfChC916uAdKwC2evUmQriyU8fPrAULvBOkm872Tx9dHdAdKgDtZ3a5LVu2vlOH7+xaci73WWBzR98jSyZPhjm603LHaNk/vbQd0HkHHlg/70LaZSsDAx3dSu9oAbC+vkeAazr5HplSLIJ15LxN0bJ/+mk7oLOiqH6HUmmXa2zFitWdfIPOn02Wz38C2Nbx98kCffrvDA3/7FAJ6KxSyTtBWmwHPtnpN+l4AbDly1cQwtc7/T6ZsP/+3gnSR3v+2aNzAjpn1izvBOkQwtetUunr9Nt053qyWu2jtPEJRpmlJ/+1l/b8s0vnBHSG7lDaDjW68OkfulQAbOXKZYRwYzfeK9UmT/ZOkB5a9hdtB7TflCneCZLP7EarVpd24626eUeZD1FvNtKqiRO9E6SDlv1liLYD2ksfUsarRn//R7r1Zl0rAFat3gtc3633S6WtW70TJJ+W/WVX2g5on8266nucrreVK//YrTfr7j1lBwYuokO3NMwEfWIdHy37y0i0HdAeGzd6J0iyAcw+3M037GoBsJUrHySEr3XzPVNF31yt07K/jEXbAeOnn1GtM/ualcv3d/Mtu/9UmSi6CN0XoDWrO3pPiPTSsr80StsB46OfUa0awOxj3X7TrhcAK5fLhKC7A7aiXPZOkDxa9pdmaTugdX0dv3Q9ra6xvr4Huv2mPs+V7en5APCEy3snWbkMNV1I0TANf2mVSkDzajVYscI7RRJtpr//Qx5v7FIAbPnyR4HPeLx3om3ZAg895J0iGTT8ZbxUAprz5z/rSqXWfMpWrVrp8cY+KwAAmzZdDDzi9v5JtXixd4L40/CXdlEJaNzdd3snSKI19PR05a5/w3ErAPbYYxsI4aNe759YKgCj0/CXdlMJaIx+NjUvhA/bsmXrvd7ebwUAYNq0K4DlrhmS5s47YUCPVRiWLvWTTtElgqPr74e77vJOkTQPMW3a5Z4BXAuALV26DXiXZ4bEWbNG32jD0aV+0mm6RHBkd94J69Z5p0iadw7OQDe+KwCAVSrfwezH3jkS5Xvf804QL1r2l27RdsDwvv997wRJ8zOrVL7jHcK9AABQq70d3SK4cbfdpjtuDdGyv3SbtgN2tmED/OhH3imSpEYI7/QOATEpAFatLiWEq71zJMYTT8A3vuGdwp+W/cWLtgOe8rWv1UuANMZsoVWrS7xjAJh3gCGht3c6udyDwHTvLImw//7w859DT493Eh9a9pc4mDQJFi6EY4/1TuKjvx+OOw4eftg7SVI8gdkzrFz+i3cQiMkKAICtXLmOEFzuhpRIDz8MN97oncKHlv0lLrK+HXD99Rr+zbkoLsMfYrQCABAgR7H4G+DvvbMkwj77wE9/Cnvu6Z2ke/TJX+IoiysBjz8Oxx+vs/8b9ydmzHieLVmy3TvIkNisAAAYDBBF5wO64X0j1q6Fz2Tojsoa/hJXWbw64JJLNPwbFzB7a5yGP8SsAABYX99i4EveORLjuuvgnnu8U3Selv0l7rK0HfD739dP/pNGXWvl8h3eIXYVqy2AIWHWrH3I5+8HZnhnSYRCAW65BaZN807SGfrkL0mS9u2AJ56AE0/Uk/8a91d6eg62Zcse8w6yq9itAADYqlVrCeG93jkSo1qFCy/0TtEZGv6SNGnfDvjP/9Twb0YIF8Zx+ENMCwAA1epC4CfeMRLjllvgssu8U7SXhr8kVVpLwOc/rzuRNiOEn1OtXuUdYySxLQAGgYGBNwObvbMkxsUXww03eKdoDw1/Sbq0lYCbb4ZPfco7RZJsxexNBsE7yEhiWwAAbOXKBzH7sHeOxAgB3vteuP127yTj84tf6IQ/SYehEvCLX3gnGZ/bb4d3vrP+M0Ya9WGrVO7zDjGaWBcAAMrlTwK/9Y6RGP39cP759Rt0JNFtt9V/YOr2vpIWW7bA2Wcnd+n829+GN72p/rNFGmP2R2bMuNg7xlhy3gHG8kGoXbTXXkswO5skFJY4CAF+8hOYOBEOP9w7TeMWLqyfzKgfNJI2tVr9gTnTpsFhh3mnadwXvwgXXVTPL40aIIpeYffeG/szJWNfAAA++PjjD1+0996TgOO8syTKokVw//31e3VPmuSdZmQbN8J73gNXXumdRKRzQoA77oAHH4QXvKBe0ONqw4b6kv8113gnSR6zT1q5/GXvGI2I5X0AhhPmzZvAhg2/Bp7jnSVxZs2CSy+F+fO9k+zuT3+Ct74VymXvJCLd09sLn/tcPFcD7rkH/vVfoVLxTpJE92H2PCuXE7GHmZgCABDmzHkutdpiYIJ3lsTJ5+E1r6m3+ukxeODixo1w1VXwhS/A9ljdHVOkO/L5+smub397PG7itX59/dbi112nbbjW9FOrHW0rVvzaO0ijElUAAEKx+F+AnhrYqunT6yXg1a/2eZRwf3/9KYb/8z+wZk33318kbmbOhHe9C049tV4Kum379vrlw5/6lO7tPx4hfMCq1UTNpuQVAMhTKCzCbIF3lkSbMQNOP71+dnI3nia4cWP9h8xVV8Hq1Z1/P5GkmTkTTjsNzjmnOysCQ9+TV16pR/qO3++YMeOIuD3sZyyJKwAAoVg8BPgNsId3lsSbOhVe+lJ4+cvh6KPb+wlkYAB++cv65U8/+lF9iVFERrfnnk99Tx51FOTaeK52f3/95OCh78kNG9p37OzaTAjPt2r1Xu8gzUpkAQAIpdKbCCFl9751Nn16vQQsWABHHgkHHQRRE1de1mqwbFn9Ln53310f/mvXdi6vSNrtsw8ccwwccUT9+/LAA5v/nnzwwfr34+LF9e9JLfO3l9m/WLmcyFmU2AIAEEqlGwjh1d45UmvCBCgWoVSCAw6APfaofzrp6anvG65fD5s315f0y+X6P9u2OYcWSbGJE3f+npw8effvyU2b6t+TfX31B4Xpe7KTbqNSeVmcb/c7mmQXgELhacA9mM32ziIiIpnyKFH0HOvre8Q7SKsSfWc9q1b/ShS9HtBtqkREpFsCcFaShz8kvAAAWLl8B2af9M4hIiKZcYlVKrd6hxivRG8BDAmQp1j8KXCsdxYREUmxEBYzbdpxtnRp4k+uSPwKAIBBP/39/wzozjIiItIpfyWKXpuG4Q8pKQAAtmrVSuAMdD6AiIi0X8DsLCun58ElqSkAAFap3EYIn/DOISIiKRPCJ6xc/q53jHZKxTkAOxo8H+B24IXeWUREJAVC+DnV6osNUvWUpFStAMDg+QD5/GuAld5ZREQk8R4mhH9O2/CHFBYAAFu+/FHg5cBm7ywiIpJY2wnhNbZiRSqfYJbKAgBglcrvCOF87xwiIpJQIbzFqtU7vWN0SmoLAIBVq18hhMu9c4iISMKYXWfV6lXeMTop1QUAgGnTLgB+6R1DREQS427y+Td6h+i01F0FMJxwwAEz6Om5G5jrnUVERGJtNQMDC2zlylXeQTot/SsAgK1evYYQTgYe984iIiKxtZla7ZQsDH/ISAEAsGr1XuCfgQHvLCIiEjs1zF5nK1b82jtIt2SmAMCTdwp8r3cOERGJmRDea+Xyzd4xuikT5wDsKhSL1wBneecQEZEYCOHLVq2e6R2j2zK1AvCkGTPOJ4QfeccQERF3P2PChEzeMyaTKwAA4eCDp7Flyx3AYd5ZRETExVLMjrVy+W/eQTxktgAAhGJxf+AuoOidRUREumo1+fyRtnz5Cu8gXrK5BTDIKpWHCeFE4K/eWUREpGvWE0UnZnn4Q8YLAAxeHmh2KrDFO4uIiHTcVuAfra/vHu8g3jJfAACsXP4ZtdprSeHjHkVE5EkDhPB6q1T+1ztIHKgADLIVK75HCGcBNe8sIiLSdoEQ3mzV6re8g8SFCsAOrFr9KnCBdw4REWmzEC5M+9P9mqUCsAurVD4PfNQ7h4iItEkIH7dq9WLvGHGT6csARxOKxc8Db/HOISIi4xDCFVSrbzYI3lHiRgVgBAGMQuGLmL3JO4uIiLQghC9TrZ5tOrdrWCoAowhgFItXAOd5ZxERkSaYfYty+XWmq7tGpAIwhgA5isUvAad7ZxERkYbcRKXyWg3/0ekkwDEYDFCpnAlc751FRETGdBs9Pfrk3wAVgAYYDDBjxhnAjd5ZRERkBCF8l6lTT7Fly7Z6R0kCbQE0IUCOUukaQjjDO4uIiOzA7Fvss89ptmTJdu8oSaEC0KTBcwKuAs7yziIiIgBcT6Xyei37N0dbAE0aPCfgHOAL3llERISva/i3RgWgBQaBSuVtqASIiPgJ4QoN/9apALTIIFil8lZCuNA7i4hI5phdOniHP93kp0U6B6ANQqHwNsw+gwqViEinBUL4D6tWP+EdJOlUANokFAqnY3YtkPfOIiKSUgODj/TVU/3aQAWgjUKhcDJm3wQme2cREUmZbYTweqtWb/AOkhYqAG0WSqV/IITvAHt7ZxERSYnHCeGVVq3+xDtImqgAdEAoFA7F7Fag6J1FRCThVmP2MiuXf+8dJG100loHWLV6L3AU8FvvLCIiCfYn8vkjNfw7QysAHRRmzpzKHnvcAJzgnUVEJGH+l1zuVHvooce9g6SVVgA6yB57bAMzZrwCuNY7i4hIYoTwZaZOPUHDv7O0AtAloVC4ALNLUOkSERlJwOxDVi5f5B0kC1QAuigUiycA1wN7emcREYmZjcDrrVL5jneQrFAB6LLQ2/tscrnvASXvLCIiMbGaEF5u1eoS7yBZouXoLrOVK/9IFB0J3OWdRUQkBu4Gnq/h331aAXASIE+p9BFCeI93FhERJ19hYOB8W7lys3eQLFIBcBYKhddjdgW6fbCIZMdWQniPVauf9Q6SZSoAMRCKxecBN6E7B4pI+q0GXmWVirZBnekcgBiwSuW3RNERwB3eWUREOiaEn2M2X8M/HlQAYsL6+h6hUnkxZh8Eat55RETaKGB2KTNnvsTK5b94h5E6bQHEUCgUXozZ14B9vbOIiIzTWuANVqnc4h1EdqYCEFNh1qxe8vnrgWO8s4iItOg3wGusUunzDiK70xZATNmqVSuZMeN44H+A4J1HRKQJAfgUM2YcreEfX1oBSIDBLYEvA7O8s4iIjOFR4CyrVG71DiKjUwFIiHDAATPI5xdi9grvLCIiwwrhR0TRmTrRLxlUABImFApnYPZFYIp3FhGRQVsI4UKq1UtNW5aJoQKQQKFYPAS4Dni+dxYRybwlhHCGVav3egeR5ugkwASySuU+KpWjCOFCYJt3HhHJpH7MPsHUqUdr+CeTVgASbvDxwl8GDvPOIiKZcS+12htsxYrfeAeR1mkFIOFs5co/0tNzFCF8HBjwziMiqTaA2cX09DxPwz/5tAKQIqFU+ntCuAqdGyAi7Wb2R+A8K5fv9o4i7aECkDIB8hQKb8Hso+hKAREZv+2YXcKUKe+3pUt1zlGKqACkVJg9+0Ci6Argxd5ZRCSxFgHnWaVyn3cQaT8VgBQLYBQK52L2cWC6dx4RSYx1hPAfVKtX6br+9NJJgClmEKxavYqBgadjdil6zLCIjC4AXyGfP8Sq1Ss1/NNNKwAZEmbPfj653BcJ4XDvLCISO38ghLdYtXqndxDpDhWAjAmQp1R6KyFcBOzlnUdE3K3H7CLK5c8Z9HuHke5RAcioMGvWPvT0vJ8Q3gLkvPOISNfVgK8RRe+yvr5HvMNI96kAZNzgcwUuAV7qnUVEuuZnmL3dyuXfewcRPyoAAkAoFk8FLgYO9M4iIh3zEPBuq1S+7R1E/OkqAAHAKpWbmDHjEEI4H9ByoEi6rCWECzGbp+EvQ7QCILsJ++47hYkT34rZfwLTvPOISMs2YfY5oui/7aGHHvcOI/GiAiAjCsXi/oTwAczOBnq884hIw/qBa6nVLrIVK1Z7h5F4UgGQMYU5c4qE8F5COBvIe+cRkRHVMPs2UfQ+e+ihP3uHkXhTAZCGhWJxDmYXEsI56NJBkTipD354v5XL93uHkWRQAZCmhULhUKLoA4TwKnQiqYinGmY3Uqt9yKrVpd5hJFlUAKRloVCYSxRdMHjlwETvPCIZUv/EH8IH9KQ+aZUKgIzb4DkC7yCE84DJ3nlEUmwb8E0GBj5sK1c+6B1Gkk0FQNomlEr7Af82uCKwt3cekRT5G2ZXEsJnrFJ52DuMpIMKgLRdmDlzKpMnvw6zdwAHe+cRSbAyIVxOFF1h5fLfvMNIuqgASMcEyFEo/CNm/w4c6Z1HJEHuJoRPUa3eZDDgHUbSSQVAuiIUCvOJojcSwunAHt55RGJoG2bfpVa70qrV273DSPqpAEhXhVJpb2q1N2D2b0DJO49IDDyM2ZXk81+wZcse8w4j2aECIC4C5CiVThq8cuCl6MZCki0DwI+AhVQq39Myv3hQARB3YfbsAzB7PWbnoccRS7qtwuyrwOVWLpe9w0i2qQBIbASIKBRePPjwoVegewpIOmwGvksI11Ct/sSg5h1IBFQAJKbCQQftybZtp2D2auAEtEUgybOEEL7CwMBXbdWqtd5hRHalAiCxF+ab7dOyAAACnUlEQVTOLTAwcDpwGnCodx6RUdwHfI0o+qr19VW8w4iMRgVAEiUUCvOIolcTwmuAQ7zziAB9mH2fWu1bVq3e6R1GpFEqAJJYobf32eRyrwFeicqAdNd9wLeJom9ZX98fvMOItEIFQFIhFItzCOHlmJ0E/AOQd44k6VIDfofZD6jVbrBq9V7vQCLjpQIgqRMOPPDv6O8/GTgJeDEwzTmSJNPjwP8Ct5LPf8+WL3/UO5BIO6kASKoNPo/g74mikwnhJOB56O+9DG8A+D1mt1Or3c60aT+3pUu3eYcS6RT9IJRMGbzp0EuAFwEvwmy2dyZxdT/wY0L4MZMn/8weeOAJ70Ai3aICIJkWensPIoqGysBxwAHemaSjVgN3YPZjcrnbbfnyFd6BRLyoAIjsYHCFYD5RNJ8QjgGOQXckTKrtwB8wW0SttgRYYtXqUu9QInGhAiAyigB5CoWDgWMwOxaYT/2SQ33vxM/D1O++dyewiCj6jZXLW7xDicSVfoiJNCkcdNBMtm07EngeUTSPEOYBTwd6nKNlRT/wILAUs6XUakvo6blbZ+mLNEcFQKQNwvz5PTz22GxgHnAoZvOorxYcjJ5jMB71T/X1QX8vsJRa7V5buXKzdzCRpFMBEOmgcNBBE9m+/VDq2wbPxKxICEWgAPSiVYPtwCpCqGJWAcrAA8C9mN2nJXyRzlEBEHESIMesWfuTyxUxK2JWoFar/y8UgdnAns4xx2s9sAKoEEKVKKoSQoUQKgwMVFi16mGrX38vIl2mAiASY2H+/B7Wrt2HWm06MJ0QppPL1f8X9iGE6UTRdELYB3gasDf1LYc9gQnAlHFG2Ahsoz7IB4C/AX/DbC212lrM1gHrMFvLwMC6J38dReuYMmWdbqQjEl//H0d2QrwLXZo/AAAAAElFTkSuQmCC;" vertex="1" parent="1">
          <mxGeometry x="81" y="1260" width="20" height="20" as="geometry" />
        </mxCell>
        <mxCell id="mUVZ_eBPIsCB5TYUY8Db-35" value="&lt;font style=&quot;font-size: 14px;&quot;&gt;条件　を満たしていません&lt;/font&gt;" style="text;html=1;strokeColor=none;fillColor=none;align=left;verticalAlign=middle;whiteSpace=wrap;rounded=0;" vertex="1" parent="1">
          <mxGeometry x="110" y="1255" width="220" height="30" as="geometry" />
        </mxCell>
        <mxCell id="mUVZ_eBPIsCB5TYUY8Db-36" value="&lt;font style=&quot;font-size: 24px;&quot;&gt;&lt;b&gt;新規登録&lt;/b&gt;&lt;/font&gt;" style="rounded=1;whiteSpace=wrap;html=1;" vertex="1" parent="1">
          <mxGeometry x="80" y="1320" width="190" height="50" as="geometry" />
        </mxCell>
      </root>
    </mxGraphModel>
  </diagram>
</mxfile>
